<svg width="40" height="40" viewBox="0 0 40 40" fill="none" xmlns="http://www.w3.org/2000/svg">
<g clip-path="url(#clip0_1_77)">
<path d="M39.2167 9.374C39.1087 9.37713 39.0025 9.40221 38.9045 9.44771C38.8065 9.49322 38.7187 9.55819 38.6467 9.63869C38.5746 9.71918 38.5196 9.8135 38.4852 9.9159C38.4507 10.0183 38.4375 10.1267 38.4462 10.2344C38.4462 10.4655 38.4462 10.6966 38.4462 10.9278H36.7512C36.5422 10.4298 36.1815 10.0103 35.7205 9.72907C35.2594 9.44782 34.7214 9.31908 34.183 9.36116C29.252 9.36116 24.3082 9.36116 19.3772 9.36116H18.992C18.7944 9.37432 18.6095 9.46303 18.4756 9.60887C18.3417 9.75472 18.2691 9.94651 18.2729 10.1445C18.2782 10.3351 18.3529 10.5172 18.4829 10.6567C18.6129 10.7961 18.7894 10.8834 18.9791 10.9021H34.5682C34.767 10.9119 34.9546 10.9969 35.093 11.14C35.2313 11.2831 35.31 11.4735 35.313 11.6726C35.3108 11.8688 35.2361 12.0573 35.1034 12.2019C34.9707 12.3464 34.7892 12.4369 34.5939 12.4559H5.44462C5.24136 12.4492 5.04866 12.3637 4.90727 12.2175C4.76588 12.0714 4.68689 11.8759 4.687 11.6726C4.69357 11.4681 4.7786 11.274 4.92445 11.1305C5.07029 10.9871 5.26576 10.9053 5.4703 10.9021H12.7384C12.9461 10.9021 13.1453 10.8196 13.2922 10.6727C13.4391 10.5258 13.5217 10.3265 13.5217 10.1188C13.5217 9.91104 13.4391 9.7118 13.2922 9.5649C13.1453 9.418 12.9461 9.33547 12.7384 9.33547H12.443C10.2343 9.33547 8.01284 9.33547 5.80417 9.33547C5.26722 9.29241 4.73033 9.41927 4.26944 9.6981C3.80855 9.97694 3.44701 10.3936 3.23595 10.8892H1.55377C1.55377 10.6067 1.55377 10.3499 1.55377 10.0931C1.55238 9.97157 1.52127 9.85223 1.46316 9.7455C1.40504 9.63876 1.32169 9.54786 1.22038 9.48074C1.11906 9.41362 1.00286 9.37231 0.881906 9.36042C0.760956 9.34853 0.638933 9.36641 0.526485 9.41252C0.321027 9.50241 0.179775 9.73355 0 9.90048V13.496C0.321027 13.9583 0.616372 14.1124 0.975923 14.0096C1.33547 13.9069 1.56661 13.5859 1.56661 12.9823V12.5072H3.2488C3.44248 13.0154 3.80039 13.4443 4.26569 13.7258C4.73099 14.0073 5.277 14.1253 5.81701 14.061H6.79294C7.0181 16.0933 7.70426 18.0473 8.79913 19.7742C9.89401 21.5011 11.3687 22.9552 13.1108 24.0257V24.1798C11.6982 26.748 10.2729 29.3804 8.84751 31.9872C8.73298 32.1322 8.56784 32.2285 8.38523 32.2568C7.62412 32.4103 6.92716 32.7903 6.38573 33.3468C5.8443 33.9033 5.48367 34.6105 5.35113 35.3755C5.21859 36.1406 5.32033 36.9278 5.643 37.634C5.96566 38.3402 6.49421 38.9325 7.15932 39.3331C7.82444 39.7337 8.59509 39.924 9.37022 39.879C10.1454 39.8339 10.8888 39.5558 11.5031 39.0809C12.1174 38.606 12.5738 37.9565 12.8126 37.2177C13.0513 36.4789 13.0613 35.6852 12.8411 34.9406C12.7938 34.8379 12.7694 34.7262 12.7694 34.6132C12.7694 34.5001 12.7938 34.3884 12.8411 34.2857C13.1878 33.6822 13.5345 33.0658 13.8555 32.4366C13.8886 32.3535 13.9479 32.2835 14.0244 32.2371C14.1008 32.1908 14.1903 32.1706 14.2793 32.1798H25.7207C25.7951 32.1861 25.8672 32.209 25.9316 32.2467C25.9961 32.2845 26.0512 32.3362 26.0931 32.3981C26.3884 32.886 26.6581 33.3997 26.9278 33.9005C27.8266 35.5313 28.6998 37.175 29.6116 38.7929C29.8157 39.1847 30.1332 39.5058 30.5226 39.7142C30.9121 39.9227 31.3554 40.0089 31.7945 39.9615C32.2214 39.9468 32.6349 39.8093 32.9856 39.5657C33.3363 39.322 33.6094 38.9824 33.7721 38.5875C33.9291 38.2276 33.996 37.8348 33.9669 37.4432C33.9378 37.0516 33.8136 36.673 33.6051 36.3403C31.8331 33.1172 30.0867 29.9197 28.3146 26.6581C27.8395 25.7721 27.3644 24.8989 26.8636 24C28.6152 22.9347 30.0984 21.4808 31.1984 19.7507C32.2984 18.0206 32.9856 16.0607 33.2071 14.0225C34.6709 14.1252 36.0706 14.1252 36.7384 12.5201H38.4462C38.4462 12.764 38.4462 12.9823 38.4462 13.2006C38.4355 13.3087 38.4474 13.4178 38.4812 13.5211C38.5149 13.6243 38.5698 13.7194 38.6422 13.8003C38.7147 13.8812 38.8031 13.9462 38.902 13.991C39.0009 14.0359 39.1081 14.0597 39.2167 14.061C39.3246 14.0632 39.4317 14.0427 39.5312 14.0008C39.6306 13.9589 39.7202 13.8966 39.794 13.8179C39.8679 13.7392 39.9244 13.6459 39.9599 13.544C39.9953 13.4421 40.009 13.3339 40 13.2263C40 12.2247 40 11.2231 40 10.2087C40.0052 10.102 39.9888 9.99537 39.952 9.89514C39.9151 9.79491 39.8584 9.70312 39.7853 9.62524C39.7122 9.54736 39.6242 9.48499 39.5265 9.44182C39.4289 9.39866 39.3235 9.37559 39.2167 9.374ZM9.05297 38.4334C8.59075 38.4308 8.13966 38.2913 7.75675 38.0324C7.37385 37.7735 7.07631 37.4068 6.90178 36.9788C6.72724 36.5508 6.68355 36.0807 6.77622 35.6278C6.86888 35.175 7.09375 34.7598 7.42239 34.4347C7.75102 34.1097 8.16866 33.8894 8.6225 33.8017C9.07633 33.714 9.54597 33.7629 9.97204 33.9421C10.3981 34.1213 10.7615 34.4229 11.0161 34.8086C11.2708 35.1943 11.4054 35.6469 11.4029 36.1092C11.3961 36.7279 11.1456 37.3191 10.7056 37.7542C10.2656 38.1894 9.67178 38.4334 9.05297 38.4334ZM11.6982 33.1557L10.4141 32.3596C11.7881 29.7913 13.1621 27.313 14.5618 24.7705L16.0385 25.3226C14.5361 27.9422 13.1236 30.549 11.6982 33.1557ZM14.87 30.5875C15.1396 30.0867 15.3836 29.6244 15.6533 29.1621C15.6924 29.1242 15.7387 29.0945 15.7894 29.0747C15.8401 29.0549 15.8942 29.0453 15.9486 29.0466C18.6453 29.0466 21.3505 29.0466 24.0642 29.0466C24.1238 29.0475 24.1825 29.0619 24.2358 29.0885C24.2892 29.1152 24.3358 29.1535 24.3724 29.2006C24.6292 29.6372 24.8604 30.0867 25.13 30.5875H14.87ZM16.5778 27.4543C16.886 26.8892 17.1685 26.3499 17.4767 25.8234C17.5131 25.7862 17.5574 25.7576 17.6063 25.7399C17.6552 25.7221 17.7074 25.7155 17.7592 25.7207C19.2507 25.9776 20.775 25.9776 22.2665 25.7207C22.3171 25.7191 22.3675 25.7286 22.4141 25.7486C22.4607 25.7685 22.5023 25.7985 22.5361 25.8363C22.8315 26.3499 23.114 26.8764 23.4221 27.4543H16.5778ZM32.1798 36.9695C32.2516 37.094 32.3159 37.2226 32.3724 37.3547C32.429 37.5206 32.4273 37.7008 32.3677 37.8657C32.3081 38.0305 32.1941 38.17 32.0444 38.2613C31.8948 38.3526 31.7185 38.3901 31.5447 38.3677C31.3709 38.3453 31.2099 38.2643 31.0883 38.138C31.0253 38.0575 30.9694 37.9715 30.9213 37.8812L24.1541 25.4767L24.077 25.3098L25.5281 24.7448L25.7207 25.0915L32.1798 36.9695ZM20.3788 24.3981C17.4562 24.4994 14.6021 23.5 12.3811 21.5977C10.1602 19.6953 8.73414 17.0286 8.38523 14.1252H31.6019C31.2737 16.8987 29.9597 19.4618 27.8996 21.3475C25.8395 23.2332 23.1704 24.3158 20.3788 24.3981Z" fill="black"/>
<path d="M24.9117 3.37721C24.5748 3.63415 24.3043 3.96789 24.1226 4.3506C23.9409 4.73331 23.8533 5.15391 23.8671 5.57733C23.881 6.00076 23.9958 6.41475 24.2021 6.78479C24.4083 7.15484 24.7001 7.47022 25.0529 7.70466C25.2207 7.82126 25.4273 7.86772 25.6288 7.83414C25.8303 7.80056 26.0107 7.68958 26.1316 7.52488C26.2556 7.35729 26.309 7.14773 26.2801 6.94123C26.2513 6.73474 26.1427 6.54778 25.9775 6.42055C25.8095 6.32366 25.6699 6.18423 25.5729 6.01629C25.4759 5.84836 25.4248 5.65783 25.4248 5.46388C25.4248 5.26994 25.4759 5.07941 25.5729 4.91148C25.6699 4.74354 25.8095 4.60411 25.9775 4.50722C26.3485 4.24625 26.6461 3.89428 26.8418 3.4851C27.0375 3.07593 27.1248 2.6233 27.0951 2.1707C27.0654 1.7181 26.9199 1.28072 26.6725 0.900589C26.425 0.520453 26.084 0.210328 25.6821 0L25.207 0C24.5393 0.552167 24.5521 0.898877 25.207 1.55377C25.3991 1.78872 25.5195 2.07404 25.5537 2.3756C25.6051 2.83788 25.2584 3.12039 24.9117 3.37721Z" fill="black"/>
<path d="M14.1252 7.61477C14.2039 7.68338 14.2955 7.73557 14.3947 7.76825C14.4939 7.80093 14.5986 7.81345 14.7027 7.80508C14.8068 7.7967 14.9082 7.7676 15.0008 7.71948C15.0935 7.67136 15.1756 7.6052 15.2424 7.52488C15.3611 7.35104 15.4061 7.13726 15.3676 6.9303C15.3291 6.72335 15.2102 6.54007 15.0369 6.42055C14.8689 6.32366 14.7294 6.18423 14.6323 6.01629C14.5353 5.84836 14.4842 5.65783 14.4842 5.46388C14.4842 5.26994 14.5353 5.07941 14.6323 4.91148C14.7294 4.74354 14.8689 4.60411 15.0369 4.50722C15.409 4.2483 15.7083 3.89809 15.9061 3.49021C16.1039 3.08233 16.1936 2.63047 16.1665 2.17796C16.1394 1.72546 15.9965 1.28751 15.7515 0.90612C15.5065 0.524735 15.1675 0.212716 14.7672 0L14.2921 0C13.6244 0.552167 13.6372 0.898877 14.2921 1.55377C14.4842 1.78872 14.6046 2.07404 14.6388 2.3756C14.703 2.83788 14.3563 3.12039 14.0225 3.37721C13.6988 3.6314 13.4389 3.95762 13.2634 4.32991C13.088 4.7022 13.0018 5.11029 13.0118 5.52173C13.0217 5.93318 13.1276 6.33662 13.3209 6.69997C13.5142 7.06332 13.7896 7.37656 14.1252 7.61477Z" fill="black"/>
<path d="M19.5313 7.61477C19.61 7.68338 19.7016 7.73557 19.8008 7.76825C19.9 7.80093 20.0047 7.81345 20.1088 7.80508C20.2129 7.7967 20.3142 7.7676 20.4069 7.71948C20.4996 7.67136 20.5817 7.6052 20.6484 7.52488C20.7783 7.36359 20.8402 7.15805 20.821 6.95188C20.8018 6.74571 20.7031 6.55512 20.5457 6.42055C20.3747 6.32456 20.2322 6.18475 20.1331 6.01549C20.034 5.84622 19.9818 5.65361 19.9818 5.45746C19.9818 5.26132 20.034 5.06871 20.1331 4.89944C20.2322 4.73018 20.3747 4.59037 20.5457 4.49438C20.9132 4.23182 21.2073 3.87954 21.4001 3.47111C21.5928 3.06268 21.6778 2.61169 21.6469 2.16111C21.616 1.71054 21.4703 1.27537 21.2236 0.897075C20.9769 0.518778 20.6374 0.209947 20.2375 0L19.7624 0C19.0947 0.552167 19.1075 0.898877 19.7624 1.55377C19.9545 1.78872 20.0749 2.07404 20.1091 2.3756C20.1091 2.83788 19.8266 3.12039 19.4799 3.37721C19.1533 3.62748 18.8897 3.95047 18.7098 4.32052C18.53 4.69056 18.4389 5.09745 18.4439 5.50886C18.4489 5.92026 18.5498 6.32483 18.7385 6.6904C18.9273 7.05598 19.1987 7.37249 19.5313 7.61477Z" fill="black"/>
<path d="M15.1653 10.1701C15.1685 10.3713 15.2489 10.5635 15.39 10.7069C15.531 10.8504 15.7218 10.934 15.9229 10.9406C16.1296 10.9339 16.3255 10.8471 16.4693 10.6985C16.6131 10.5499 16.6935 10.3512 16.6934 10.1445C16.684 9.94314 16.5998 9.75257 16.4573 9.61007C16.3148 9.46756 16.1242 9.38338 15.9229 9.374C15.7174 9.38071 15.5228 9.46795 15.381 9.6169C15.2393 9.76585 15.1618 9.96456 15.1653 10.1701Z" fill="black"/>
<path d="M9.07864 35.313C8.92273 35.3079 8.76884 35.3494 8.63669 35.4323C8.50454 35.5152 8.40016 35.6357 8.33691 35.7783C8.27367 35.9209 8.25445 36.0792 8.28171 36.2328C8.30897 36.3864 8.38147 36.5283 8.48993 36.6405C8.59838 36.7526 8.73785 36.8298 8.89045 36.8622C9.04306 36.8945 9.20185 36.8806 9.34648 36.8221C9.49112 36.7637 9.615 36.6634 9.70226 36.534C9.78952 36.4047 9.83618 36.2523 9.83627 36.0963C9.83324 35.8939 9.75321 35.7002 9.61247 35.5547C9.47173 35.4092 9.28085 35.3228 9.07864 35.313Z" fill="black"/>
</g>
<defs>
<clipPath id="clip0_1_77">
<rect width="40" height="40" fill="white"/>
</clipPath>
</defs>
</svg>
