<svg width="40" height="44" viewBox="0 0 40 44" fill="none" xmlns="http://www.w3.org/2000/svg">
<g clip-path="url(#clip0_1_50)">
<path d="M33.7208 13.3735H21.9741V12.8013C23.295 12.4731 24.4731 11.7235 25.3298 10.6659C26.1866 9.60838 26.6754 8.30045 26.7223 6.9402C26.5481 5.24965 25.7532 3.68376 24.4913 2.54531C23.2295 1.40685 21.5903 0.776703 19.8908 0.776703C18.1913 0.776703 16.5522 1.40685 15.2903 2.54531C14.0285 3.68376 13.2336 5.24965 13.0593 6.9402C13.1065 8.30138 13.5961 9.61007 14.454 10.6679C15.3119 11.7258 16.4912 12.4752 17.8133 12.8025V13.3747H6.28499L0.703003 43.2488H39.3005L33.7208 13.3735ZM16.7787 6.94137C16.8577 6.17099 17.2197 5.45732 17.7946 4.93843C18.3695 4.41953 19.1164 4.1323 19.8908 4.1323C20.6652 4.1323 21.4121 4.41953 21.987 4.93843C22.5619 5.45732 22.9239 6.17099 23.0029 6.94137C22.9266 7.71373 22.5657 8.4301 21.9905 8.95121C21.4153 9.47231 20.6669 9.76092 19.8908 9.76092C19.1147 9.76092 18.3663 9.47231 17.7911 8.95121C17.2159 8.4301 16.8551 7.71373 16.7787 6.94137Z" stroke="black" stroke-miterlimit="10"/>
</g>
<defs>
<clipPath id="clip0_1_50">
<rect width="40" height="43.6552" fill="white" transform="translate(0 0.177582)"/>
</clipPath>
</defs>
</svg>
