<svg width="40" height="45" viewBox="0 0 40 45" fill="none" xmlns="http://www.w3.org/2000/svg">
<g clip-path="url(#clip0_1_48)">
<path d="M34.2228 13.7799H22.045V13.1868C23.4143 12.847 24.6355 12.0701 25.5236 10.9739C26.4117 9.87764 26.9182 8.52179 26.9664 7.11178C26.8715 5.32522 26.0734 3.64882 24.7464 2.44885C23.4195 1.24887 21.6715 0.622856 19.8844 0.707569C18.0971 0.622225 16.3487 1.24822 15.0217 2.44861C13.6948 3.64901 12.8972 5.32609 12.8036 7.11299C12.8527 8.52309 13.3599 9.8788 14.2484 10.9749C15.1368 12.0711 16.3581 12.8479 17.7275 13.188V13.7811H5.7857L0 44.7455H40L34.2228 13.7799ZM16.6599 7.11299C16.7041 6.2997 17.0677 5.53677 17.6716 4.99023C18.2754 4.44369 19.0708 4.15778 19.8844 4.19472C20.6998 4.15483 21.4978 4.43944 22.1038 4.98632C22.7099 5.5332 23.0748 6.29783 23.1186 7.11299C23.0754 7.9277 22.7115 8.6922 22.1064 9.23945C21.5013 9.78671 20.7042 10.0722 19.8892 10.0337C19.0753 10.0703 18.2798 9.78394 17.6759 9.23695C17.072 8.68996 16.7086 7.9266 16.6647 7.11299" fill="black"/>
</g>
<defs>
<clipPath id="clip0_1_48">
<rect width="40" height="44.0379" fill="white" transform="translate(0 0.707581)"/>
</clipPath>
</defs>
</svg>
