<svg width="40" height="40" viewBox="0 0 40 40" fill="none" xmlns="http://www.w3.org/2000/svg">
<g clip-path="url(#clip0_12_93)">
<mask id="path-1-inside-1_12_93" fill="white">
<path d="M4.20264 28.4088C4.71195 28.8205 5.25417 29.0963 5.83735 29.2143C5.59016 29.0009 5.37037 28.7192 5.20298 28.4013C4.97047 27.95 4.86003 27.4603 4.89583 27.0393C4.93162 26.6183 5.11074 26.3004 5.39397 26.1552C5.67458 26.0177 6.03217 26.0583 6.39108 26.2685C6.74998 26.4786 7.08205 26.8419 7.31703 27.2813C7.48917 27.6163 7.59538 27.9751 7.62243 28.3129C7.64949 28.6507 7.59619 28.9526 7.46918 29.181C8.84576 28.8665 9.80168 27.9329 10.4828 26.5561C10.5486 26.4249 10.6099 26.2994 10.6599 26.1651C10.4805 26.1903 10.2803 26.171 10.0762 26.1088C9.87216 26.0466 9.67029 25.9433 9.48778 25.8078C9.19455 25.5824 8.97405 25.2881 8.87363 24.9881C8.77321 24.688 8.80088 24.4061 8.9507 24.2029C9.1064 24.0054 9.3699 23.9036 9.68501 23.9192C10.0001 23.9348 10.3419 24.0665 10.6375 24.2863C10.834 24.4367 10.9998 24.6194 11.1184 24.8163C11.3967 23.7104 11.5882 22.3998 11.5625 21.1572C11.3631 21.6587 11.0023 22.0981 10.4706 22.3588C9.78043 22.7057 9.05668 22.6159 8.45248 22.2908C7.83568 21.9468 7.2709 21.3604 6.95302 20.6564C6.63072 19.9581 6.60138 19.1414 6.7492 18.472C6.8926 17.8083 7.29847 17.1941 7.94316 16.8938C8.59352 16.5979 9.32294 16.6922 9.91705 17.0185C10.4172 17.2898 10.8881 17.7391 11.2459 18.31C10.8935 16.913 10.443 15.6768 9.86547 14.6973C9.65195 14.3392 9.42198 14.014 9.18692 13.7303C9.22078 13.8802 9.24018 14.0369 9.24444 14.1949C9.25392 14.5935 9.16648 14.9773 9.0008 15.2642C8.83512 15.551 8.60437 15.7182 8.35787 15.7299C8.20215 15.7339 8.047 15.6756 7.90621 15.5602C7.75521 15.4342 7.62643 15.2466 7.53309 15.0167C7.43976 14.7867 7.38522 14.5228 7.3751 14.252C7.36689 13.9165 7.42734 13.5896 7.54708 13.3218C7.66683 13.0539 7.83921 12.8602 8.03756 12.7704C7.56455 12.5111 7.0472 12.3906 6.49244 12.4234C4.15798 12.492 2.76079 13.5468 1.8748 15.1279C0.931294 16.7828 0.650469 18.9452 0.908174 21.1424C1.01379 22.3059 1.2756 23.4681 1.65346 24.5281C1.82523 24.3337 2.04699 24.2234 2.27935 24.2169C2.53476 24.213 2.78284 24.3348 2.97106 24.5565C3.15928 24.7782 3.27285 25.0823 3.28771 25.4045C3.2956 25.6664 3.23763 25.9235 3.12212 26.139C3.0066 26.3544 2.83945 26.5171 2.64463 26.6038C2.71367 26.7142 2.78359 26.8235 2.85572 26.9299C3.28567 27.537 3.74395 28.0375 4.20264 28.4088ZM10.2052 29.1006C15.2866 29.2886 21.1354 29.3232 25.8084 28.4319C28.6049 27.9297 31.0617 26.9893 32.6969 25.6912C34.3286 24.3905 35.3088 22.6091 35.2462 20.1242C35.159 17.164 34.1306 15.3585 32.4293 14.1234C30.6758 12.8384 28.2405 12.2171 25.4224 11.9815C20.655 11.5311 14.8533 12.2084 9.87882 12.445C10.3169 12.8778 10.6412 13.4682 10.9776 14.0315C12.0269 15.7985 12.7026 18.1501 12.8375 20.4815C12.9723 22.8129 12.5826 25.2554 11.6464 27.1349C11.2815 27.8722 10.7927 28.5459 10.2052 29.1006ZM5.21951 24.7172C5.12905 24.6461 5.05889 24.5514 5.01312 24.4384C4.96734 24.3255 4.94685 24.1967 4.95285 24.0594C4.95885 23.9222 4.9912 23.7792 5.04804 23.6389C5.10488 23.4985 5.18507 23.3636 5.28395 23.2419C5.48278 23.0033 5.74174 22.8325 6.00498 22.7663C6.26822 22.7001 6.51463 22.7439 6.69105 22.8883C6.7934 22.9516 6.87524 23.0418 6.93143 23.1533C6.98763 23.2649 7.01695 23.3952 7.01756 23.5363C7.01816 23.6773 6.99004 23.8259 6.93496 23.9728C6.87988 24.1197 6.79903 24.2616 6.69751 24.3896C6.5945 24.5178 6.47299 24.6289 6.34071 24.7158C6.20843 24.8027 6.06829 24.8635 5.92922 24.8943C5.79016 24.9252 5.65523 24.9253 5.53304 24.8948C5.41084 24.8643 5.30406 24.8038 5.21951 24.7172ZM2.53971 21.9637C2.33739 21.8045 2.21988 21.5295 2.20955 21.191C2.19921 20.8526 2.29677 20.4742 2.48366 20.128C2.68633 19.761 2.97384 19.4609 3.28454 19.292C3.59524 19.1232 3.90439 19.0992 4.14573 19.225C4.38482 19.3573 4.53476 19.6294 4.56316 19.9828C4.59156 20.3361 4.49614 20.7422 4.29751 21.1134C4.09423 21.4842 3.80434 21.7873 3.49099 21.9569C3.17764 22.1265 2.86619 22.1487 2.62446 22.0188C2.59496 22.0026 2.56667 21.9842 2.53971 21.9637ZM3.26318 18.3909C3.15536 18.3069 3.06082 18.2058 2.97637 18.1035C2.63291 17.6897 2.42592 17.136 2.3459 16.4897C2.37888 15.8037 2.54046 15.2454 2.86092 14.811C3.17004 14.3677 3.66709 14.0344 4.266 14.0269C4.91598 14.0592 5.42996 14.3596 5.769 14.779C6.11813 15.1972 6.31377 15.742 6.33137 16.3397C6.34898 16.9374 6.18741 17.4957 5.87262 17.9346C5.5635 18.3778 4.99883 18.7861 4.41695 18.8069C3.9878 18.819 3.57778 18.6545 3.26318 18.3909ZM4.18514 17.3488C4.27469 17.4095 4.35923 17.4298 4.44127 17.4299C4.56371 17.425 4.68999 17.3684 4.82021 17.1779C4.94727 17.0033 5.04921 16.7087 5.03949 16.3817C5.0241 16.0504 4.90705 15.7675 4.76778 15.5951C4.62851 15.4226 4.49415 15.3726 4.37171 15.3775C4.2537 15.3768 4.12299 15.4391 3.98709 15.6251C3.86004 15.7998 3.76252 16.0887 3.77349 16.4257C3.7832 16.7526 3.90026 17.0355 4.03953 17.2079C4.07608 17.2547 4.11137 17.2913 4.14542 17.3179L4.18514 17.3488ZM8.887 20.9143C8.96645 20.9762 9.04464 21.028 9.12726 21.0742C9.45081 21.2443 9.72406 21.2566 9.94758 21.1572C10.1755 21.0521 10.3436 20.8364 10.4223 20.4781C10.501 20.1197 10.458 19.6482 10.2477 19.1923C9.96938 18.6834 9.62333 18.3314 9.3042 18.1556C8.98065 17.9855 8.70741 17.9732 8.48389 18.0726C8.26037 18.1721 8.08782 18.3934 8.01357 18.7461C7.9349 19.1045 7.9779 19.5759 8.18373 20.0375C8.34426 20.3816 8.61904 20.6962 8.887 20.9143ZM36.5432 20.8526C37.4207 21.1079 38.3025 21.5217 39.1702 22.1525C38.6645 19.9609 38.2878 17.6599 38.6532 15.162C37.9543 15.8397 37.0574 16.5547 36.0387 17.0469C36.3548 17.9685 36.5276 18.9791 36.5563 20.1055C36.5623 20.3565 36.5559 20.607 36.5432 20.8526Z"/>
</mask>
<path d="M4.20264 28.4088C4.71195 28.8205 5.25417 29.0963 5.83735 29.2143C5.59016 29.0009 5.37037 28.7192 5.20298 28.4013C4.97047 27.95 4.86003 27.4603 4.89583 27.0393C4.93162 26.6183 5.11074 26.3004 5.39397 26.1552C5.67458 26.0177 6.03217 26.0583 6.39108 26.2685C6.74998 26.4786 7.08205 26.8419 7.31703 27.2813C7.48917 27.6163 7.59538 27.9751 7.62243 28.3129C7.64949 28.6507 7.59619 28.9526 7.46918 29.181C8.84576 28.8665 9.80168 27.9329 10.4828 26.5561C10.5486 26.4249 10.6099 26.2994 10.6599 26.1651C10.4805 26.1903 10.2803 26.171 10.0762 26.1088C9.87216 26.0466 9.67029 25.9433 9.48778 25.8078C9.19455 25.5824 8.97405 25.2881 8.87363 24.9881C8.77321 24.688 8.80088 24.4061 8.9507 24.2029C9.1064 24.0054 9.3699 23.9036 9.68501 23.9192C10.0001 23.9348 10.3419 24.0665 10.6375 24.2863C10.834 24.4367 10.9998 24.6194 11.1184 24.8163C11.3967 23.7104 11.5882 22.3998 11.5625 21.1572C11.3631 21.6587 11.0023 22.0981 10.4706 22.3588C9.78043 22.7057 9.05668 22.6159 8.45248 22.2908C7.83568 21.9468 7.2709 21.3604 6.95302 20.6564C6.63072 19.9581 6.60138 19.1414 6.7492 18.472C6.8926 17.8083 7.29847 17.1941 7.94316 16.8938C8.59352 16.5979 9.32294 16.6922 9.91705 17.0185C10.4172 17.2898 10.8881 17.7391 11.2459 18.31C10.8935 16.913 10.443 15.6768 9.86547 14.6973C9.65195 14.3392 9.42198 14.014 9.18692 13.7303C9.22078 13.8802 9.24018 14.0369 9.24444 14.1949C9.25392 14.5935 9.16648 14.9773 9.0008 15.2642C8.83512 15.551 8.60437 15.7182 8.35787 15.7299C8.20215 15.7339 8.047 15.6756 7.90621 15.5602C7.75521 15.4342 7.62643 15.2466 7.53309 15.0167C7.43976 14.7867 7.38522 14.5228 7.3751 14.252C7.36689 13.9165 7.42734 13.5896 7.54708 13.3218C7.66683 13.0539 7.83921 12.8602 8.03756 12.7704C7.56455 12.5111 7.0472 12.3906 6.49244 12.4234C4.15798 12.492 2.76079 13.5468 1.8748 15.1279C0.931294 16.7828 0.650469 18.9452 0.908174 21.1424C1.01379 22.3059 1.2756 23.4681 1.65346 24.5281C1.82523 24.3337 2.04699 24.2234 2.27935 24.2169C2.53476 24.213 2.78284 24.3348 2.97106 24.5565C3.15928 24.7782 3.27285 25.0823 3.28771 25.4045C3.2956 25.6664 3.23763 25.9235 3.12212 26.139C3.0066 26.3544 2.83945 26.5171 2.64463 26.6038C2.71367 26.7142 2.78359 26.8235 2.85572 26.9299C3.28567 27.537 3.74395 28.0375 4.20264 28.4088ZM10.2052 29.1006C15.2866 29.2886 21.1354 29.3232 25.8084 28.4319C28.6049 27.9297 31.0617 26.9893 32.6969 25.6912C34.3286 24.3905 35.3088 22.6091 35.2462 20.1242C35.159 17.164 34.1306 15.3585 32.4293 14.1234C30.6758 12.8384 28.2405 12.2171 25.4224 11.9815C20.655 11.5311 14.8533 12.2084 9.87882 12.445C10.3169 12.8778 10.6412 13.4682 10.9776 14.0315C12.0269 15.7985 12.7026 18.1501 12.8375 20.4815C12.9723 22.8129 12.5826 25.2554 11.6464 27.1349C11.2815 27.8722 10.7927 28.5459 10.2052 29.1006ZM5.21951 24.7172C5.12905 24.6461 5.05889 24.5514 5.01312 24.4384C4.96734 24.3255 4.94685 24.1967 4.95285 24.0594C4.95885 23.9222 4.9912 23.7792 5.04804 23.6389C5.10488 23.4985 5.18507 23.3636 5.28395 23.2419C5.48278 23.0033 5.74174 22.8325 6.00498 22.7663C6.26822 22.7001 6.51463 22.7439 6.69105 22.8883C6.7934 22.9516 6.87524 23.0418 6.93143 23.1533C6.98763 23.2649 7.01695 23.3952 7.01756 23.5363C7.01816 23.6773 6.99004 23.8259 6.93496 23.9728C6.87988 24.1197 6.79903 24.2616 6.69751 24.3896C6.5945 24.5178 6.47299 24.6289 6.34071 24.7158C6.20843 24.8027 6.06829 24.8635 5.92922 24.8943C5.79016 24.9252 5.65523 24.9253 5.53304 24.8948C5.41084 24.8643 5.30406 24.8038 5.21951 24.7172ZM2.53971 21.9637C2.33739 21.8045 2.21988 21.5295 2.20955 21.191C2.19921 20.8526 2.29677 20.4742 2.48366 20.128C2.68633 19.761 2.97384 19.4609 3.28454 19.292C3.59524 19.1232 3.90439 19.0992 4.14573 19.225C4.38482 19.3573 4.53476 19.6294 4.56316 19.9828C4.59156 20.3361 4.49614 20.7422 4.29751 21.1134C4.09423 21.4842 3.80434 21.7873 3.49099 21.9569C3.17764 22.1265 2.86619 22.1487 2.62446 22.0188C2.59496 22.0026 2.56667 21.9842 2.53971 21.9637ZM3.26318 18.3909C3.15536 18.3069 3.06082 18.2058 2.97637 18.1035C2.63291 17.6897 2.42592 17.136 2.3459 16.4897C2.37888 15.8037 2.54046 15.2454 2.86092 14.811C3.17004 14.3677 3.66709 14.0344 4.266 14.0269C4.91598 14.0592 5.42996 14.3596 5.769 14.779C6.11813 15.1972 6.31377 15.742 6.33137 16.3397C6.34898 16.9374 6.18741 17.4957 5.87262 17.9346C5.5635 18.3778 4.99883 18.7861 4.41695 18.8069C3.9878 18.819 3.57778 18.6545 3.26318 18.3909ZM4.18514 17.3488C4.27469 17.4095 4.35923 17.4298 4.44127 17.4299C4.56371 17.425 4.68999 17.3684 4.82021 17.1779C4.94727 17.0033 5.04921 16.7087 5.03949 16.3817C5.0241 16.0504 4.90705 15.7675 4.76778 15.5951C4.62851 15.4226 4.49415 15.3726 4.37171 15.3775C4.2537 15.3768 4.12299 15.4391 3.98709 15.6251C3.86004 15.7998 3.76252 16.0887 3.77349 16.4257C3.7832 16.7526 3.90026 17.0355 4.03953 17.2079C4.07608 17.2547 4.11137 17.2913 4.14542 17.3179L4.18514 17.3488ZM8.887 20.9143C8.96645 20.9762 9.04464 21.028 9.12726 21.0742C9.45081 21.2443 9.72406 21.2566 9.94758 21.1572C10.1755 21.0521 10.3436 20.8364 10.4223 20.4781C10.501 20.1197 10.458 19.6482 10.2477 19.1923C9.96938 18.6834 9.62333 18.3314 9.3042 18.1556C8.98065 17.9855 8.70741 17.9732 8.48389 18.0726C8.26037 18.1721 8.08782 18.3934 8.01357 18.7461C7.9349 19.1045 7.9779 19.5759 8.18373 20.0375C8.34426 20.3816 8.61904 20.6962 8.887 20.9143ZM36.5432 20.8526C37.4207 21.1079 38.3025 21.5217 39.1702 22.1525C38.6645 19.9609 38.2878 17.6599 38.6532 15.162C37.9543 15.8397 37.0574 16.5547 36.0387 17.0469C36.3548 17.9685 36.5276 18.9791 36.5563 20.1055C36.5623 20.3565 36.5559 20.607 36.5432 20.8526Z" stroke="black" stroke-width="2" mask="url(#path-1-inside-1_12_93)"/>
</g>
<defs>
<clipPath id="clip0_12_93">
<rect width="40" height="40" fill="white"/>
</clipPath>
</defs>
</svg>
