<svg width="40" height="58" viewBox="0 0 40 58" fill="none" xmlns="http://www.w3.org/2000/svg">
<g clip-path="url(#clip0_1_209)">
<path d="M39.0077 0.699985C37.5295 0.411756 22.9719 0.0658809 20.069 0H19.9331C17.0302 0.0658809 2.47054 0.411756 0.992335 0.699985C0.687751 0.761447 0.417518 0.935439 0.235509 1.18728C0.0535 1.43911 -0.0269142 1.75029 0.0102974 2.05878C1.15292 11.0248 5.84693 54.117 5.89429 54.5576C5.89429 54.605 5.9087 54.6503 5.91899 54.6976C5.98075 54.9673 6.4028 56.3446 8.7004 56.8285C10.3948 57.1867 18.9408 57.547 19.9084 57.5881H20.0916C21.0613 57.547 29.6073 57.1867 31.2996 56.8285C33.5972 56.3405 34.0213 54.9756 34.0831 54.6976C34.0936 54.6515 34.1012 54.6047 34.1057 54.5576C34.1531 54.1232 38.8409 11.0309 39.9918 2.07319C40.0328 1.76212 39.9539 1.44709 39.7712 1.19205C39.5884 0.937015 39.3154 0.761087 39.0077 0.699985ZM31.6764 50.3289C31.4124 50.514 31.107 50.6314 30.787 50.6706C29.6608 50.893 23.7233 51.1853 20.001 51.3295C16.2788 51.1853 10.3412 50.893 9.21304 50.6706C8.89316 50.6309 8.58784 50.5136 8.32364 50.3289C7.95512 47.179 3.92815 12.923 2.61877 2.97699C5.78311 2.80817 14.4114 2.58583 19.9887 2.47053H20.0134C25.5968 2.58583 34.219 2.80817 37.3812 2.98317C36.0739 12.9229 32.0469 47.179 31.6764 50.3289Z" fill="black"/>
</g>
<defs>
<clipPath id="clip0_1_209">
<rect width="40" height="57.582" fill="white"/>
</clipPath>
</defs>
</svg>
