<svg width="40" height="40" viewBox="0 0 40 40" fill="none" xmlns="http://www.w3.org/2000/svg">
<path d="M6.37796 28.6173L6.36955 28.5813L6.35765 28.5463C6.0249 27.5677 5.90243 26.5803 5.77362 25.5072C5.57474 22.0963 6.63745 18.5387 8.67576 15.8314C8.21412 18.8408 8.92378 22.0336 10.8307 24.474C10.9473 24.6695 11.0959 24.8443 11.2705 24.9908C11.8439 25.4736 12.6518 25.7115 13.4567 25.3663C14.1362 25.0897 14.6675 24.4066 14.6675 23.603C14.6675 23.1786 14.5356 22.8497 14.4513 22.6394C14.4488 22.6333 14.4464 22.6272 14.444 22.6213C11.9517 16.1811 14.0406 8.66563 19.3362 4.41282C20.4109 3.55008 21.5908 2.76482 22.8789 2.22494C21.5729 6.18528 22.5115 10.8222 25.5397 13.79C26.2668 14.5056 27.0549 15.1007 27.8131 15.6606C27.8883 15.7161 27.9632 15.7713 28.0377 15.8262C28.7198 16.3288 29.371 16.8086 29.9847 17.3566C30.0887 17.4605 30.1915 17.5619 30.2927 17.6618C30.751 18.1142 31.1778 18.5355 31.5446 19.0115L31.5477 19.0159L31.5851 19.0699C31.6178 19.1172 31.6653 19.1864 31.7238 19.2726C31.841 19.4452 32.0017 19.6853 32.1759 19.9552C32.5323 20.5071 32.9174 21.1412 33.1173 21.5792L33.1228 21.5913L33.1287 21.6031L33.3949 22.1354C35.2692 26.7122 33.9842 32.0632 30.2974 35.4084C26.999 38.3849 22.3404 39.2105 17.8892 38.6489L17.8879 38.6487C13.8222 38.143 10.015 35.6281 7.81345 32.1107C7.1952 31.0163 6.65502 29.8048 6.37796 28.6173ZM25.8678 32.6352L25.8773 32.6271L25.8865 32.6186C27.3384 31.2877 28.1897 29.1505 28.1221 27.1884C28.1209 26.8139 28.0714 26.4594 27.974 26.1078C27.647 24.4448 26.7356 23.3551 25.7672 22.4457C25.486 22.1816 25.172 21.9083 24.8693 21.6448C24.6756 21.4762 24.4866 21.3117 24.3136 21.1561C23.8435 20.7331 23.4106 20.3076 23.0387 19.8246L23.0388 19.8245L23.0302 19.8137C22.5717 19.2406 22.1744 18.4934 21.7656 17.6758L21.0111 16.1668L20.3963 17.7379C19.7564 19.3733 19.7179 20.8656 19.9902 22.5447L19.991 22.5495C20.0658 22.9923 20.1669 23.4137 20.2653 23.8079C20.2829 23.8781 20.3003 23.9473 20.3174 24.0154C20.3984 24.3373 20.4741 24.6382 20.5372 24.9419C20.6867 25.6623 20.7482 26.3269 20.5985 27.0383C20.2061 28.6883 18.8852 30.3356 16.638 30.8643L15.3275 31.1727L16.2795 32.1247C17.7945 33.6398 20.4753 35.0432 23.2501 34.0664C24.1355 33.8144 25.2024 33.2055 25.8678 32.6352Z" stroke="black" stroke-width="1.5"/>
</svg>
