<svg width="40" height="41" viewBox="0 0 40 41" fill="none" xmlns="http://www.w3.org/2000/svg">
<g clip-path="url(#clip0_1_12)">
<path d="M12.6842 27.8283C12.3637 25.0478 11.1757 22.4389 9.28892 20.3716C9.21431 20.2775 9.12156 20.1993 9.01617 20.1417C8.91079 20.0842 8.79491 20.0483 8.67542 20.0364C8.55593 20.0244 8.43525 20.0366 8.32055 20.0722C8.20585 20.1077 8.09946 20.166 8.00769 20.2434C6.9571 21.0047 6.0898 21.9911 5.46914 23.1305C4.84848 24.2698 4.49013 25.5334 4.42025 26.829C4.51993 28.956 5.43808 30.9622 6.98271 32.4279L0.25625 39.2441C0.171023 39.3276 0.103315 39.4273 0.057092 39.5373C0.0108692 39.6473 -0.0129395 39.7654 -0.0129395 39.8847C-0.0129395 40.004 0.0108692 40.1221 0.057092 40.2321C0.103315 40.3421 0.171023 40.4418 0.25625 40.5253C0.424672 40.6884 0.649581 40.7802 0.884052 40.7815C1.00336 40.7816 1.12147 40.7578 1.23147 40.7116C1.34147 40.6654 1.44115 40.5977 1.52467 40.5125L8.23831 33.6707V33.7348C9.69758 35.1584 11.6335 35.9894 13.6707 36.0666H14.2473C15.4518 35.8912 16.608 35.4725 17.6454 34.8359C18.6829 34.1993 19.5799 33.3583 20.2819 32.3639C20.4255 32.1729 20.4939 31.9358 20.4741 31.6976C20.4429 31.4591 20.3185 31.2425 20.1281 31.0955C18.0519 29.251 15.4472 28.1078 12.6842 27.8283ZM14.196 34.2345C13.3398 34.263 12.4868 34.1164 11.6892 33.8035C10.8917 33.4907 10.1664 33.0182 9.55798 32.4151C9.34017 32.2486 9.1608 32.0692 8.96861 31.9026C8.93897 31.8485 8.90468 31.7971 8.86612 31.7489L8.67393 31.6208C7.95988 31.031 7.37349 30.302 6.95055 29.4782C6.5276 28.6543 6.27698 27.7529 6.21397 26.829C6.26545 25.9546 6.4915 25.0994 6.87879 24.3139C7.26607 23.5283 7.80675 22.8282 8.46893 22.255C10.442 24.9327 11.2492 27.3799 10.7751 29.3017C10.6455 29.9079 10.4699 30.5032 10.2498 31.0826C10.1714 31.3053 10.184 31.5498 10.2847 31.7633C10.3854 31.9768 10.5663 32.1419 10.788 32.2229C11.0124 32.3018 11.2587 32.2896 11.4743 32.189C11.6898 32.0885 11.8574 31.9075 11.9411 31.6848C12.1705 31.0321 12.3546 30.3642 12.492 29.6861C12.4841 29.6655 12.4841 29.6427 12.492 29.622C14.6239 29.7828 16.6567 30.587 18.3216 31.9283C17.2763 33.1821 15.8093 34.0113 14.196 34.2601V34.2345Z" fill="black"/>
<path d="M19.6797 20.6919C19.3652 17.9097 18.1764 15.299 16.2844 13.2351C16.2098 13.141 16.1171 13.0629 16.0117 13.0053C15.9063 12.9477 15.7904 12.9119 15.6709 12.8999C15.5514 12.888 15.4308 12.9001 15.3161 12.9357C15.2014 12.9713 15.095 13.0295 15.0032 13.107C13.9526 13.8722 13.0847 14.8609 12.4621 16.0019C11.8396 17.1428 11.4778 18.4077 11.403 19.7053C11.403 22.1525 12.7611 24.4843 15.3876 26.6624C16.837 28.0453 18.7413 28.8516 20.7431 28.9302H21.3197C22.5219 28.7531 23.6756 28.3336 24.7108 27.6971C25.7459 27.0606 26.6409 26.2204 27.3415 25.2274C27.4139 25.1337 27.467 25.0266 27.4978 24.9122C27.5286 24.7979 27.5364 24.6786 27.5208 24.5612C27.5106 24.4431 27.4757 24.3284 27.4183 24.2247C27.3609 24.1209 27.2823 24.0304 27.1877 23.959C25.0986 22.0954 22.4673 20.9503 19.6797 20.6919ZM21.1787 27.098C20.3156 27.1243 19.4562 26.973 18.654 26.6534C17.8517 26.3338 17.1237 25.8528 16.5151 25.2402C14.337 23.4337 13.2223 21.5631 13.2095 19.6925C13.2645 18.8158 13.4933 17.9587 13.8826 17.1713C14.2719 16.3838 14.814 15.6817 15.4773 15.1057C17.4504 17.7835 18.2447 20.2306 17.7707 22.1653C17.6595 22.7592 17.4966 23.3422 17.2838 23.9078C17.2022 24.132 17.2131 24.3795 17.314 24.5958C17.415 24.812 17.5976 24.9793 17.8219 25.0609C18.0462 25.1424 18.2937 25.1315 18.5099 25.0306C18.7262 24.9297 18.8935 24.747 18.975 24.5227C19.2102 23.8805 19.3944 23.2208 19.526 22.5496C19.52 22.5244 19.52 22.498 19.526 22.4728C21.6578 22.6335 23.6907 23.4377 25.3555 24.779C24.3037 26.0532 22.8143 26.8893 21.1787 27.1236V27.098Z" fill="black"/>
<path d="M39.7181 11.3389C39.6346 11.2537 39.535 11.186 39.425 11.1397C39.315 11.0935 39.1968 11.0697 39.0775 11.0697C38.9582 11.0697 38.8401 11.0935 38.7301 11.1397C38.6201 11.186 38.5204 11.2537 38.4369 11.3389L33.4657 16.4638C32.5363 15.78 31.5455 15.1839 30.5061 14.6829L39.6156 5.40679C39.7009 5.32329 39.7686 5.22361 39.8148 5.11361C39.861 5.00361 39.8848 4.88549 39.8848 4.76618C39.8848 4.64686 39.861 4.52874 39.8148 4.41874C39.7686 4.30874 39.7009 4.20907 39.6156 4.12556C39.4453 3.95656 39.215 3.86173 38.975 3.86173C38.735 3.86173 38.5048 3.95656 38.3344 4.12556L28.6611 13.9654C27.9806 13.7742 27.2793 13.6666 26.5727 13.6451C26.5293 12.8511 26.3784 12.0667 26.1243 11.3133L35.7463 1.52466C35.9162 1.35476 36.0117 1.12433 36.0117 0.884049C36.0117 0.643772 35.9162 0.413336 35.7463 0.243434C35.5764 0.0735324 35.346 -0.0219173 35.1057 -0.0219173C34.8654 -0.0219173 34.635 0.0735324 34.4651 0.243434L25.3812 9.51954C24.8869 8.57117 24.3125 7.66676 23.6643 6.81614L28.6611 1.69122C28.7452 1.6071 28.812 1.50722 28.8575 1.39731C28.903 1.28739 28.9265 1.16958 28.9265 1.05061C28.9265 0.931636 28.903 0.813828 28.8575 0.703911C28.812 0.593994 28.7452 0.494121 28.6611 0.409994C28.577 0.325867 28.4771 0.259134 28.3672 0.213605C28.2573 0.168076 28.1395 0.144643 28.0205 0.144643C27.9015 0.144643 27.7837 0.168076 27.6738 0.213605C27.5639 0.259134 27.464 0.325867 27.3799 0.409994L21.909 6.04741C20.8584 6.80872 19.9912 7.79507 19.3705 8.93443C18.7498 10.0738 18.3915 11.3374 18.3216 12.6329C18.3216 15.0801 19.6028 17.4247 22.319 19.6028C23.7652 20.9828 25.6645 21.789 27.6618 21.8706H28.2383C29.4189 21.6962 30.5529 21.288 31.5737 20.6697C32.5945 20.0515 33.4817 19.2358 34.1832 18.2703L39.7181 12.6073C39.8014 12.524 39.8675 12.4251 39.9126 12.3163C39.9577 12.2075 39.9809 12.0909 39.9809 11.9731C39.9809 11.8553 39.9577 11.7387 39.9126 11.6299C39.8675 11.521 39.8014 11.4222 39.7181 11.3389ZM28.0846 20.0641C27.2196 20.0957 26.3576 19.9456 25.5543 19.6234C24.751 19.3012 24.0242 18.8141 23.4209 18.1935C21.23 16.3741 20.1281 14.5035 20.1153 12.6329C20.1668 11.7586 20.3928 10.9034 20.7801 10.1178C21.1674 9.33226 21.7081 8.6322 22.3703 8.05894C23.1223 9.06233 23.7464 10.1555 24.2281 11.3133C24.2572 11.3904 24.296 11.4636 24.3434 11.5311C24.8236 12.6674 24.9487 13.9225 24.7021 15.1313C24.5867 15.7284 24.4239 16.3154 24.2153 16.8866C24.1337 17.1109 24.1446 17.3584 24.2455 17.5746C24.3464 17.7909 24.5291 17.9582 24.7534 18.0397C24.9776 18.1213 25.2251 18.1104 25.4414 18.0095C25.6576 17.9086 25.8249 17.7259 25.9065 17.5016C26.1418 16.8551 26.326 16.191 26.4574 15.5157C26.4627 15.486 26.4627 15.4557 26.4574 15.426C28.5892 15.5967 30.6204 16.4047 32.287 17.745C31.2277 19.0125 29.7338 19.8394 28.0974 20.0641H28.0846Z" fill="black"/>
</g>
<defs>
<clipPath id="clip0_1_12">
<rect width="40" height="40.7687" fill="white"/>
</clipPath>
</defs>
</svg>
