<svg width="40" height="40" viewBox="0 0 40 40" fill="none" xmlns="http://www.w3.org/2000/svg">
<path d="M18.4482 14.9069C4.97021 24.6829 2.0249 22.994 1.90436 26.844C1.83025 29.2738 3.98311 30.112 9.5 29.5M18.4482 14.9069C24.5524 10.2555 33.7401 7.80162 33.5001 15.5C33.3698 19.679 29.6519 21.0992 26.5001 22.5M18.4482 14.9069C18.4482 14.9069 18.5366 16.6352 17.9433 18.3288M24.4634 15.7107C25.3739 12.8908 24.6022 11.6067 24.6022 11.6067M6.35815 29.1333L6.42921 26.844" stroke="black" stroke-width="1.5" stroke-linecap="round" stroke-linejoin="round"/>
<path d="M21.3071 22.196L21.4395 21.4583L21.4022 21.4514L21.3645 21.4482L21.3071 22.196ZM22.605 23.555C22.8965 23.8512 23.3711 23.8565 23.6651 23.5667C23.9591 23.2769 23.9612 22.8018 23.6697 22.5055L22.605 23.555ZM20.5661 31.8503C20.0523 31.8073 19.4913 31.4128 19.0557 30.5521C18.6272 29.7053 18.3887 28.517 18.4901 27.195L16.9954 27.0701C16.8764 28.6205 17.1468 30.0919 17.7193 31.2233C18.2848 32.3407 19.217 33.2427 20.4513 33.3459L20.5661 31.8503ZM18.4901 27.195C18.5916 25.873 19.0084 24.7394 19.5606 23.9746C20.1219 23.1972 20.7359 22.9009 21.2497 22.9438L21.3645 21.4482C20.1302 21.3451 19.0723 22.0808 18.3436 23.0901C17.6058 24.1119 17.1144 25.5197 16.9954 27.0701L18.4901 27.195ZM21.1747 22.9338C21.6659 23.0252 21.9133 23.0884 22.0938 23.1682C22.2477 23.2363 22.3841 23.3304 22.605 23.555L23.6697 22.5055C23.3677 22.1985 23.0777 21.9666 22.6917 21.796C22.3322 21.6371 21.9259 21.5489 21.4395 21.4583L21.1747 22.9338ZM21.7808 31.3559C21.3576 31.7378 20.941 31.8816 20.5661 31.8503L20.4513 33.3459C21.3384 33.42 22.1442 33.0552 22.7887 32.4737L21.7808 31.3559Z" fill="black"/>
<path d="M21.1168 22.1535C21.1168 22.1535 17.4085 21.3119 14.09 21.7579M20.1759 32.5499C20.1759 32.5499 17.2833 32.5216 14.4378 31.7068M14.09 21.7579C11.5548 22.0987 9.24709 23.1912 8.99424 25.9847C8.8586 27.4834 9.38965 28.6401 10.2849 29.5328M14.09 21.7579C13.7923 21.8982 13.0182 22.5419 12.3037 23.9944M10.2849 29.5328C10.2724 29.5203 10.0708 27.6258 10.5174 26.718M10.2849 29.5328C11.3322 30.5771 12.8779 31.2602 14.4378 31.7068M14.4378 31.7068C14.1998 31.1181 13.8284 29.5155 14.2468 27.8144" stroke="black" stroke-width="1.5" stroke-linecap="round"/>
<g clip-path="url(#clip0_12_87)">
<path d="M27.3059 32.6064C25.5902 32.7345 24.0783 30.7168 24.1449 27.9264C24.2114 25.1359 25.3698 22.8268 26.7326 22.7707C28.0953 22.7145 28.8262 23.0495 29.3594 24.6468" stroke="black" stroke-miterlimit="10"/>
<path d="M21.9164 27.9873L22.4125 27.9798L22.4125 27.9798L21.9164 27.9873ZM25.4153 33.1054L25.3844 32.6024L25.384 32.6025L25.4153 33.1054ZM26.5306 32.9113L26.6814 33.3919L26.6966 33.3871L26.7113 33.3812L26.5306 32.9113ZM27.8259 22.9017C27.7481 23.1682 27.898 23.4491 28.1607 23.5292C28.4234 23.6094 28.6996 23.4583 28.7774 23.1919L27.8259 22.9017ZM25.7415 22.1363C24.2363 22.0493 23.1036 22.677 22.3815 23.786C21.6802 24.8632 21.3894 26.3541 21.4203 27.9949L22.4125 27.9798C22.3836 26.4457 22.662 25.1857 23.21 24.3441C23.7371 23.5344 24.5338 23.0755 25.6891 23.1422L25.7415 22.1363ZM21.4203 27.9949C21.4337 28.7085 21.4404 29.4262 21.4993 30.0808C21.5582 30.7352 21.6723 31.3709 21.9224 31.9199C22.1786 32.4825 22.5767 32.951 23.1807 33.2529C23.7722 33.5487 24.5198 33.6639 25.4466 33.6083L25.384 32.6025C24.5592 32.6519 24.0005 32.5415 23.6161 32.3493C23.2441 32.1633 22.9966 31.8817 22.8228 31.5C22.6428 31.1049 22.5424 30.6025 22.4875 29.9931C22.4327 29.3841 22.4263 28.7126 22.4125 27.9798L21.4203 27.9949ZM25.4462 33.6083C25.8962 33.5816 26.3074 33.5116 26.6814 33.3919L26.3797 32.4308C26.098 32.5209 25.7696 32.5796 25.3844 32.6024L25.4462 33.6083ZM26.7113 33.3812L27.4865 33.0766L27.1249 32.1367L26.3498 32.4414L26.7113 33.3812ZM25.6891 23.1422C27.0133 23.2188 27.6192 23.3188 27.8835 23.3883C28.0233 23.4251 28.0209 23.442 27.9763 23.4083C27.9499 23.3884 27.8888 23.3355 27.8464 23.2387C27.8246 23.1888 27.8099 23.132 27.8065 23.0706C27.8048 23.0404 27.8059 23.0108 27.8094 22.9822C27.8111 22.9679 27.8134 22.9541 27.8162 22.9406C27.8176 22.9339 27.8191 22.9273 27.8208 22.9208C27.8216 22.9175 27.8224 22.9143 27.8233 22.9112C27.8237 22.9096 27.8244 22.9072 27.8246 22.9064C27.8253 22.9041 27.8259 22.9017 28.3017 23.0468C28.7774 23.1919 28.7781 23.1895 28.7788 23.1872C28.779 23.1864 28.7796 23.184 28.7801 23.1824C28.7809 23.1792 28.7818 23.176 28.7826 23.1727C28.7842 23.1661 28.7858 23.1594 28.7872 23.1526C28.7901 23.1389 28.7924 23.1247 28.7942 23.1099C28.7978 23.0803 28.799 23.0493 28.7972 23.0172C28.7936 22.952 28.7779 22.8896 28.7529 22.8325C28.7042 22.7212 28.6281 22.6473 28.5671 22.6012C28.4533 22.5151 28.3031 22.4589 28.1289 22.413C27.7651 22.3173 27.0778 22.2135 25.7415 22.1363L25.6891 23.1422Z" fill="black"/>
</g>
<g clip-path="url(#clip1_12_87)">
<path d="M31.6545 33.8126C30.0765 34.2737 29.0073 32.2652 28.5598 29.6339C28.1123 27.0026 28.7718 24.6059 30.0333 24.2823C31.2949 23.9588 32.028 24.0934 32.551 26.2197" stroke="black" stroke-miterlimit="10"/>
<path d="M30.1092 24.2654C30.1092 24.2654 29.3802 24.3044 29.06 24.361C26.4262 24.8268 25.8556 27.1669 26.4912 30.1338C27.0703 32.8371 27.4604 35.1337 30.6915 34.2402C31.0767 34.1339 31.41 34.0001 31.6969 33.8365L31.8196 33.7542" stroke="black" stroke-miterlimit="10"/>
</g>
<g clip-path="url(#clip2_12_87)">
<path d="M32.4152 26.3375C31.408 26.994 31.5214 29.2796 32.6675 31.4413C33.8135 33.6029 35.3228 35.0371 36.5663 34.1666C37.5544 33.4754 37.6015 31.7499 36.314 29.0628C35.1029 26.5345 33.4223 25.681 32.4152 26.3375Z" stroke="black" stroke-miterlimit="10"/>
<path d="M32.4764 26.3002C32.4764 26.3002 31.852 26.5506 31.5891 26.6949C29.4262 27.8828 29.6008 30.0927 31.0073 32.4911C32.2888 34.6765 33.2886 36.5633 35.8494 34.8253C36.1548 34.6184 36.407 34.4027 36.6102 34.1749L36.6935 34.0668" stroke="black" stroke-miterlimit="10"/>
</g>
<defs>
<clipPath id="clip0_12_87">
<rect width="12.2279" height="10.4373" fill="white" transform="matrix(-0.603463 0.797391 -0.787779 -0.615958 33.4516 26.2697)"/>
</clipPath>
<clipPath id="clip1_12_87">
<rect width="11.7792" height="9.88056" fill="white" transform="matrix(-0.433497 0.901155 -0.8955 -0.445061 36.9434 26.2294)"/>
</clipPath>
<clipPath id="clip2_12_87">
<rect width="10.8625" height="9.05953" fill="white" transform="matrix(-0.129208 0.991618 -0.99106 -0.133418 39 25.9846)"/>
</clipPath>
</defs>
</svg>
