<svg width="40" height="40" viewBox="0 0 40 40" fill="none" xmlns="http://www.w3.org/2000/svg">
<g clip-path="url(#clip0_1_90)">
<path d="M0 19.1651C0.088409 18.8404 0.16117 18.5102 0.268357 18.1926C0.635293 17.1074 1.36369 16.3149 2.33384 15.7453C5.60419 13.8425 8.87715 11.9445 12.1527 10.0511C12.5439 9.82267 12.896 9.81641 13.2762 10.0769C13.9686 10.5565 14.7072 10.6137 15.4434 10.1935C16.1796 9.77338 16.5184 9.11227 16.4605 8.27356C16.423 7.7611 16.6326 7.4544 17.0653 7.20561C20.4686 5.24965 23.8618 3.27101 27.2628 1.30958C29.5317 0.00144333 31.9399 0.488867 33.6095 2.51523C36.0568 5.48828 37.8704 8.79228 38.9547 12.482C39.5806 14.6046 40.0172 16.7608 40.0023 19.0031C39.9671 24.3139 39.9945 29.6247 39.989 34.9355C39.989 37.3007 38.4548 39.1745 36.1194 39.496C34.9818 39.6525 33.8082 39.5578 32.6511 39.5414C32.2928 39.5367 32.0823 39.2785 32.0041 38.9155C31.9258 38.5525 31.8718 38.166 31.7115 37.8366C31.3203 37.0378 30.4432 36.6497 29.545 36.8195C28.7095 36.976 28.0499 37.7059 27.9576 38.5767C27.8747 39.3591 27.6493 39.568 26.8623 39.568H4.87736C2.2689 39.5664 0.629817 38.2575 0.0571138 35.7109C0.0420461 35.6622 0.0229419 35.6148 0 35.5693L0 34.3957C0.167429 33.9951 0.469428 33.8112 0.902085 33.7698C2.00837 33.6665 2.79936 32.8262 2.80483 31.7747C2.81031 30.7412 2.04436 29.897 0.955287 29.7742C0.520283 29.7249 0.186207 29.5715 0 29.1608V19.1651ZM3.19524 17.0628L3.21167 17.1364H3.59269C4.69898 17.1364 5.80526 17.1309 6.91155 17.1364C7.52103 17.1364 7.8684 17.4861 7.81442 18.0079C7.76982 18.4437 7.43966 18.6941 6.88417 18.6949C5.30924 18.6988 3.7343 18.6949 2.15937 18.6949H1.75644C1.53894 19.3607 1.42159 26.6548 1.59058 28.2571C3.29617 28.7899 4.32891 29.9314 4.34378 31.7419C4.35473 33.5718 3.31495 34.7266 1.56711 35.2845C1.61796 35.5114 1.64535 35.7296 1.71498 35.9354C2.1625 37.2655 3.22967 37.9986 4.73419 37.9986C11.8539 37.9986 18.9735 37.9986 26.0932 37.9986H26.432C26.9867 36.2773 28.1078 35.2438 29.9073 35.2258C31.7568 35.2078 32.9132 36.2546 33.4695 37.9986C34.0609 37.9986 34.6329 37.9986 35.2048 37.9986C37.1905 37.9946 38.4235 36.7663 38.4235 34.7869C38.4235 29.5658 38.4235 24.345 38.4235 19.1244V18.7332C38.393 18.7209 38.3616 18.711 38.3296 18.7035C34.6853 18.6993 31.0407 18.6941 27.3958 18.6878C27.1353 18.6878 27.1079 18.8396 27.0539 19.0156C26.5344 20.6946 25.0487 21.8119 23.3314 21.8166C22.4924 21.8163 21.676 21.5447 21.0041 21.0423C20.3322 20.5398 19.8408 19.8336 19.6033 19.0289C19.5251 18.7786 19.4312 18.6839 19.1542 18.6863C17.4753 18.7019 15.7955 18.6949 14.1165 18.6925C13.9479 18.7001 13.779 18.6875 13.6134 18.655C13.4476 18.613 13.3012 18.5155 13.1985 18.3787C13.0959 18.2419 13.0432 18.074 13.0493 17.9031C13.0767 17.5471 13.2527 17.2835 13.6126 17.1911C13.7769 17.1541 13.945 17.1372 14.1134 17.1411C15.6108 17.1369 17.1078 17.1369 18.6042 17.1411H19.4836C19.5274 17.0174 19.5619 16.9329 19.5869 16.8461C20.09 15.1961 21.4646 14.1164 23.1733 14.0295C23.6819 14.0021 24.0402 14.2783 24.0848 14.7337C24.1294 15.189 23.8243 15.5208 23.3142 15.5826C23.1201 15.6004 22.9271 15.6286 22.736 15.6671C21.9677 15.8509 21.262 16.5277 21.2002 17.1238H38.4298C38.1027 15.703 37.8524 14.3073 37.4557 12.9506C36.4386 9.48859 34.751 6.37863 32.4571 3.58788C31.1802 2.03563 29.6765 1.72425 27.9412 2.72726C24.7798 4.55803 21.6164 6.38698 18.4509 8.2141C18.1458 8.38857 18.019 8.59355 17.9775 8.93154C17.6881 11.2912 15.1524 12.7104 13.0071 11.7145C12.7677 11.6034 12.5948 11.6065 12.3647 11.7403C9.39952 13.4693 6.43013 15.1906 3.45656 16.904C3.36815 16.9517 3.286 17.012 3.19524 17.0628ZM21.1665 18.7144C21.456 19.6627 22.4144 20.2987 23.4354 20.2557C24.3813 20.2158 25.292 19.5312 25.4696 18.7144H21.1665Z" fill="black"/>
<path d="M17.0606 28.2039C18.9689 28.0748 20.6338 29.6185 20.7668 31.6401C20.8888 33.4983 19.3514 35.2031 17.437 35.3314C15.4028 35.4691 13.7214 33.9818 13.6229 31.8592C13.5352 29.9885 15.0084 28.2782 17.0606 28.2039ZM17.1827 29.7562C16.7845 29.759 16.396 29.8798 16.0665 30.1034C15.7369 30.3271 15.4811 30.6434 15.3314 31.0124C15.1817 31.3815 15.1448 31.7866 15.2254 32.1766C15.306 32.5666 15.5005 32.9239 15.7842 33.2034C16.0679 33.4828 16.4282 33.6719 16.8194 33.7465C17.2105 33.8212 17.6151 33.7782 17.9818 33.6229C18.3485 33.4676 18.6609 33.207 18.8795 32.8742C19.0981 32.5413 19.2131 32.151 19.2098 31.7528C19.2 31.2211 18.9823 30.7143 18.6034 30.3411C18.2245 29.9679 17.7145 29.7579 17.1827 29.7562Z" fill="black"/>
<path d="M31.2006 30.9086C29.6757 30.7944 28.4889 29.5003 28.6125 28.092C28.7533 26.4717 30.0012 25.3787 31.5769 25.4977C33.0196 25.6064 34.1588 26.9419 34.043 28.3925C33.9256 29.8727 32.6355 31.0166 31.2006 30.9086ZM31.3313 27.0476C31.1032 27.0482 30.8804 27.1163 30.6909 27.2433C30.5015 27.3703 30.3539 27.5505 30.2666 27.7613C30.1794 27.972 30.1565 28.2039 30.2009 28.4276C30.2452 28.6514 30.3547 28.857 30.5157 29.0186C30.6766 29.1802 30.8818 29.2906 31.1053 29.3358C31.3289 29.381 31.5608 29.359 31.7719 29.2727C31.983 29.1863 32.1639 29.0394 32.2916 28.8505C32.4194 28.6616 32.4884 28.439 32.49 28.211C32.4914 28.0582 32.4625 27.9066 32.4048 27.7651C32.3472 27.6236 32.2619 27.495 32.1541 27.3867C32.0463 27.2785 31.918 27.1927 31.7768 27.1345C31.6355 27.0763 31.4841 27.0467 31.3313 27.0476Z" fill="black"/>
<path d="M29.9402 10.3469C28.5201 10.3406 27.3497 9.16391 27.3638 7.75484C27.3728 7.0703 27.6507 6.41678 28.1374 5.93534C28.6241 5.4539 29.2806 5.18317 29.9652 5.18159C31.3782 5.18941 32.5572 6.37785 32.5416 7.77909C32.5352 8.46396 32.258 9.11845 31.7705 9.59958C31.2831 10.0807 30.625 10.3494 29.9402 10.3469ZM29.9566 8.7821C30.2248 8.77579 30.4803 8.66675 30.6705 8.47749C30.8606 8.28822 30.9708 8.03318 30.9784 7.76501C30.9688 7.49861 30.8592 7.2456 30.6714 7.05638C30.4837 6.86717 30.2315 6.75563 29.9652 6.744C29.4175 6.73696 28.9152 7.23221 28.9254 7.77987C28.9367 8.04725 29.0498 8.30018 29.2415 8.48692C29.4332 8.67367 29.689 8.7801 29.9566 8.78445V8.7821Z" fill="black"/>
<path d="M8.50059 26.5289C7.99476 26.5194 7.50318 26.3597 7.08838 26.07C6.67359 25.7804 6.35433 25.3739 6.17124 24.9023C5.98815 24.4306 5.9495 23.9152 6.06021 23.4216C6.17092 22.9279 6.42598 22.4783 6.79294 22.1301C7.1599 21.7818 7.62218 21.5506 8.12094 21.4658C8.61971 21.381 9.13242 21.4465 9.59384 21.654C10.0553 21.8615 10.4445 22.2015 10.7121 22.6309C10.9797 23.0602 11.1135 23.5595 11.0965 24.0651C11.0765 24.7352 10.7923 25.3702 10.3061 25.8317C9.8198 26.2932 9.17083 26.5438 8.50059 26.5289ZM8.57883 22.9925C8.32041 22.9893 8.07102 23.0874 7.88411 23.2659C7.6972 23.4444 7.58766 23.689 7.57896 23.9473C7.57026 24.2056 7.6631 24.457 7.83758 24.6477C8.01205 24.8383 8.25428 24.953 8.51233 24.9672C8.64222 24.9722 8.77183 24.9516 8.89374 24.9065C9.01565 24.8614 9.12747 24.7927 9.22281 24.7043C9.31815 24.616 9.39513 24.5097 9.44935 24.3915C9.50357 24.2734 9.53397 24.1457 9.53881 24.0158C9.54415 23.7533 9.44639 23.4991 9.26648 23.3078C9.08658 23.1165 8.83887 23.0033 8.57649 22.9925H8.57883Z" fill="black"/>
<path d="M10.5621 17.1434C10.7152 17.1462 10.8641 17.1944 10.9899 17.2818C11.1157 17.3692 11.2127 17.492 11.2688 17.6345C11.3248 17.7771 11.3373 17.9331 11.3047 18.0828C11.2721 18.2324 11.1958 18.3691 11.0855 18.4754C10.9753 18.5817 10.8359 18.653 10.6852 18.6801C10.5344 18.7073 10.379 18.6891 10.2386 18.6279C10.0981 18.5668 9.97898 18.4653 9.89619 18.3365C9.8134 18.2076 9.77068 18.057 9.77344 17.9039C9.78375 17.7007 9.87099 17.509 10.0175 17.3678C10.1639 17.2265 10.3586 17.1463 10.5621 17.1434Z" fill="black"/>
</g>
<defs>
<clipPath id="clip0_1_90">
<rect width="40" height="39.0032" fill="white" transform="translate(0 0.58197)"/>
</clipPath>
</defs>
</svg>
