<svg width="37" height="40" viewBox="0 0 37 40" fill="none" xmlns="http://www.w3.org/2000/svg">
<g clip-path="url(#clip0_15_242)">
<path d="M31.1778 22.5166V39.1858H5.7522V22.5058" stroke="black" stroke-width="1.5" stroke-miterlimit="10"/>
<path d="M5.7522 34.3296L31.1778 34.4531" stroke="black" stroke-width="1.5" stroke-miterlimit="10"/>
<path d="M18.6235 1.58197H14.4172V19.4116H22.2979V7.8833" stroke="black" stroke-width="1.5" stroke-miterlimit="10"/>
<path d="M5.75232 14.1309V1.58197H18.5054C18.4785 1.79685 18.4678 2.02247 18.4678 2.24272C18.4678 5.76137 21.6641 8.60852 25.6125 8.60852C27.8634 8.60852 29.8725 7.67917 31.1833 6.22873L31.2101 14.6412L22.8191 19.4653L14.2132 19.4868L5.74695 14.6144V14.1255L5.75232 14.1309Z" stroke="black" stroke-width="1.5" stroke-miterlimit="10"/>
<path d="M9.45896 27.4964C10.0982 27.4964 18.2959 22.5703 18.2959 22.1352C18.2959 21.7 1.62662 12.0251 1.03033 12.3044C0.434042 12.5838 8.8197 27.4964 9.46434 27.4964H9.45896Z" stroke="black" stroke-width="1.5" stroke-miterlimit="10"/>
<path d="M27.5356 27.4964C26.8964 27.4964 18.6987 22.5703 18.6987 22.1352C18.6987 21.7 35.3733 12.0305 35.9696 12.3044C36.5659 12.5784 28.1803 27.4964 27.5356 27.4964Z" stroke="black" stroke-width="1.5" stroke-miterlimit="10"/>
<path d="M35.9053 12.3044C33.923 10.7197 31.1833 10.7251 31.1833 10.7251H5.75236C5.75236 10.7251 3.00728 10.7143 1.0304 12.3044" stroke="black" stroke-width="1.5" stroke-miterlimit="10"/>
<path d="M31.1779 22.5166L31.2047 21.7914" stroke="black" stroke-width="1.5" stroke-miterlimit="10"/>
<path d="M5.7522 22.5058V21.7215" stroke="black" stroke-width="1.5" stroke-miterlimit="10"/>
</g>
<defs>
<clipPath id="clip0_15_242">
<rect width="37" height="39" fill="white" transform="translate(0 0.58197)"/>
</clipPath>
</defs>
</svg>
