<svg width="40" height="41" viewBox="0 0 40 41" fill="none" xmlns="http://www.w3.org/2000/svg">
<g clip-path="url(#clip0_13_108)">
<path d="M8.75 20.582C9.47917 20.582 10.1367 20.7447 10.7227 21.0703C11.3086 21.3958 11.8424 21.8385 12.3242 22.3984C12.806 22.9583 13.2031 23.5833 13.5156 24.2734C13.8281 24.9635 14.1081 25.6861 14.3555 26.4413C14.6029 27.1966 14.7656 27.9257 14.8438 28.6288C14.9219 29.332 14.974 29.983 15 30.582C15 31.1679 14.9479 31.8189 14.8438 32.5351C14.7396 33.2512 14.5768 33.9804 14.3555 34.7226C14.1341 35.4648 13.8607 36.1874 13.5352 36.8906C13.2096 37.5937 12.806 38.2187 12.3242 38.7656C11.8424 39.3124 11.3151 39.7486 10.7422 40.0742C10.1693 40.3997 9.50521 40.5689 8.75 40.582C8.29427 40.582 7.8776 40.4713 7.5 40.2499C7.1224 40.4713 6.70573 40.582 6.25 40.582C5.52083 40.582 4.86328 40.4192 4.27734 40.0937C3.69141 39.7682 3.15755 39.3255 2.67578 38.7656C2.19401 38.2057 1.79688 37.5807 1.48438 36.8906C1.17188 36.2005 0.891927 35.4778 0.644531 34.7226C0.397135 33.9674 0.234375 33.2382 0.15625 32.5351C0.078125 31.832 0.0260417 31.1809 0 30.582C0 29.996 0.0520833 29.345 0.15625 28.6288C0.260417 27.9127 0.423177 27.1835 0.644531 26.4413C0.865885 25.6992 1.13932 24.9765 1.46484 24.2734C1.79036 23.5703 2.19401 22.9453 2.67578 22.3984C3.15755 21.8515 3.6849 21.4153 4.25781 21.0898C4.83073 20.7643 5.49479 20.595 6.25 20.582C6.70573 20.582 7.1224 20.6926 7.5 20.914C7.8776 20.6926 8.29427 20.582 8.75 20.582ZM2.48047 30.582C2.48047 31.1679 2.52604 31.7604 2.61719 32.3593C2.70833 32.9583 2.84505 33.5442 3.02734 34.1171C3.20964 34.69 3.44401 35.2499 3.73047 35.7968C4.01693 36.3437 4.34896 36.8385 4.72656 37.2812C4.9349 37.5286 5.15625 37.7239 5.39062 37.8671C5.625 38.0104 5.91146 38.082 6.25 38.082V23.082C5.92448 23.082 5.64453 23.1536 5.41016 23.2968C5.17578 23.44 4.94792 23.6354 4.72656 23.8828C4.34896 24.3385 4.01693 24.8333 3.73047 25.3671C3.44401 25.901 3.20964 26.4544 3.02734 27.0273C2.84505 27.6002 2.70833 28.1926 2.61719 28.8046C2.52604 29.4166 2.48047 30.0091 2.48047 30.582ZM8.75 38.082C9.07552 38.082 9.35547 38.0104 9.58984 37.8671C9.82422 37.7239 10.0521 37.5286 10.2734 37.2812C10.651 36.8385 10.9766 36.3502 11.25 35.8163C11.5234 35.2825 11.7578 34.7226 11.9531 34.1367C12.1484 33.5507 12.2917 32.9583 12.3828 32.3593C12.474 31.7604 12.5195 31.1679 12.5195 30.582C12.5195 29.996 12.474 29.4036 12.3828 28.8046C12.2917 28.2057 12.1549 27.6197 11.9727 27.0468C11.7904 26.4739 11.556 25.914 11.2695 25.3671C10.9831 24.8203 10.651 24.3255 10.2734 23.8828C10.0651 23.6354 9.84375 23.44 9.60938 23.2968C9.375 23.1536 9.08854 23.082 8.75 23.082V38.082ZM40 31.832C40 32.2877 39.8893 32.7044 39.668 33.082C39.8893 33.4596 40 33.8762 40 34.332C40 35.0611 39.8372 35.7187 39.5117 36.3046C39.1862 36.8906 38.7435 37.4244 38.1836 37.9062C37.6237 38.388 36.9987 38.7851 36.3086 39.0976C35.6185 39.4101 34.8958 39.69 34.1406 39.9374C33.3854 40.1848 32.6562 40.3476 31.9531 40.4257C31.25 40.5038 30.599 40.5559 30 40.582C29.4141 40.582 28.763 40.5299 28.0469 40.4257C27.3307 40.3216 26.6016 40.1588 25.8594 39.9374C25.1172 39.7161 24.3945 39.4426 23.6914 39.1171C22.9883 38.7916 22.3633 38.388 21.8164 37.9062C21.2695 37.4244 20.8333 36.8971 20.5078 36.3242C20.1823 35.7512 20.013 35.0872 20 34.332C20 33.8762 20.1107 33.4596 20.332 33.082C20.1107 32.7044 20 32.2877 20 31.832C20 31.1028 20.1628 30.4453 20.4883 29.8593C20.8138 29.2734 21.2565 28.7395 21.8164 28.2578C22.3763 27.776 23.0013 27.3788 23.6914 27.0663C24.3815 26.7538 25.1042 26.4739 25.8594 26.2265C26.6146 25.9791 27.3438 25.8163 28.0469 25.7382C28.75 25.6601 29.401 25.608 30 25.582C30.5859 25.582 31.237 25.6341 31.9531 25.7382C32.6693 25.8424 33.3984 26.0051 34.1406 26.2265C34.8828 26.4479 35.6055 26.7213 36.3086 27.0468C37.0117 27.3723 37.6367 27.776 38.1836 28.2578C38.7305 28.7395 39.1667 29.2669 39.4922 29.8398C39.8177 30.4127 39.987 31.0768 40 31.832ZM30 28.0624C29.4141 28.0624 28.8216 28.108 28.2227 28.1992C27.6237 28.2903 27.0378 28.427 26.4648 28.6093C25.8919 28.7916 25.332 29.026 24.7852 29.3124C24.2383 29.5989 23.7435 29.9309 23.3008 30.3085C23.0534 30.5169 22.8581 30.7382 22.7148 30.9726C22.5716 31.207 22.5 31.4934 22.5 31.832H37.5C37.5 31.5064 37.4284 31.2265 37.2852 30.9921C37.1419 30.7578 36.9466 30.5299 36.6992 30.3085C36.2435 29.9309 35.7487 29.6054 35.2148 29.332C34.681 29.0585 34.1276 28.8242 33.5547 28.6288C32.9818 28.4335 32.3893 28.2903 31.7773 28.1992C31.1654 28.108 30.5729 28.0624 30 28.0624ZM30 38.1015C30.5859 38.1015 31.1784 38.0559 31.7773 37.9648C32.3763 37.8736 32.9622 37.7369 33.5352 37.5546C34.1081 37.3723 34.668 37.138 35.2148 36.8515C35.7617 36.565 36.2565 36.233 36.6992 35.8554C36.9466 35.6471 37.1419 35.4257 37.2852 35.1913C37.4284 34.957 37.5 34.6705 37.5 34.332H22.5C22.5 34.6575 22.5716 34.9374 22.7148 35.1718C22.8581 35.4062 23.0534 35.6341 23.3008 35.8554C23.7435 36.233 24.2318 36.565 24.7656 36.8515C25.2995 37.138 25.8594 37.3723 26.4453 37.5546C27.0312 37.7369 27.6237 37.8736 28.2227 37.9648C28.8216 38.0559 29.4141 38.1015 30 38.1015ZM22.5 20.2499C22.1224 20.4713 21.7057 20.582 21.25 20.582C20.5208 20.582 19.8633 20.4192 19.2773 20.0937C18.6914 19.7682 18.1576 19.3255 17.6758 18.7656C17.194 18.2057 16.7969 17.5807 16.4844 16.8906C16.1719 16.2005 15.8919 15.4778 15.6445 14.7226C15.3971 13.9674 15.2344 13.2382 15.1562 12.5351C15.0781 11.832 15.026 11.1809 15 10.582C15 9.99603 15.0521 9.34499 15.1562 8.62885C15.2604 7.9127 15.4232 7.18353 15.6445 6.44135C15.8659 5.69916 16.1393 4.9765 16.4648 4.27338C16.7904 3.57025 17.194 2.94525 17.6758 2.39838C18.1576 1.8515 18.6849 1.4153 19.2578 1.08978C19.8307 0.764262 20.4948 0.594991 21.25 0.58197C21.7057 0.58197 22.1224 0.692647 22.5 0.914001C22.8776 0.692647 23.2943 0.58197 23.75 0.58197C24.4792 0.58197 25.1367 0.744731 25.7227 1.07025C26.3086 1.39577 26.8424 1.83848 27.3242 2.39838C27.806 2.95827 28.2031 3.58327 28.5156 4.27338C28.8281 4.96348 29.1081 5.68614 29.3555 6.44135C29.6029 7.19655 29.7656 7.92572 29.8438 8.62885C29.9219 9.33197 29.974 9.98301 30 10.582C30 11.1679 29.9479 11.8189 29.8438 12.5351C29.7396 13.2512 29.5768 13.9804 29.3555 14.7226C29.1341 15.4648 28.8607 16.1874 28.5352 16.8906C28.2096 17.5937 27.806 18.2187 27.3242 18.7656C26.8424 19.3124 26.3151 19.7486 25.7422 20.0742C25.1693 20.3997 24.5052 20.5689 23.75 20.582C23.2943 20.582 22.8776 20.4713 22.5 20.2499ZM27.5195 10.582C27.5195 9.99603 27.474 9.40358 27.3828 8.80463C27.2917 8.20567 27.1549 7.61973 26.9727 7.04681C26.7904 6.4739 26.556 5.914 26.2695 5.36713C25.9831 4.82025 25.651 4.32546 25.2734 3.88275C25.0651 3.63536 24.8438 3.44004 24.6094 3.29681C24.375 3.15358 24.0885 3.08197 23.75 3.08197V18.082C24.0755 18.082 24.3555 18.0104 24.5898 17.8671C24.8242 17.7239 25.0521 17.5286 25.2734 17.2812C25.651 16.8385 25.9766 16.3502 26.25 15.8163C26.5234 15.2825 26.7578 14.7226 26.9531 14.1367C27.1484 13.5507 27.2917 12.9583 27.3828 12.3593C27.474 11.7604 27.5195 11.1679 27.5195 10.582ZM17.4805 10.582C17.4805 11.1679 17.526 11.7604 17.6172 12.3593C17.7083 12.9583 17.8451 13.5442 18.0273 14.1171C18.2096 14.69 18.444 15.2499 18.7305 15.7968C19.0169 16.3437 19.349 16.8385 19.7266 17.2812C19.9349 17.5286 20.1562 17.7239 20.3906 17.8671C20.625 18.0104 20.9115 18.082 21.25 18.082V3.08197C20.9245 3.08197 20.6445 3.15358 20.4102 3.29681C20.1758 3.44004 19.9479 3.63536 19.7266 3.88275C19.349 4.33848 19.0169 4.83327 18.7305 5.36713C18.444 5.90098 18.2096 6.45437 18.0273 7.02728C17.8451 7.6002 17.7083 8.19265 17.6172 8.80463C17.526 9.41661 17.4805 10.0091 17.4805 10.582Z" fill="black"/>
</g>
<defs>
<clipPath id="clip0_13_108">
<rect width="40" height="40" fill="white" transform="translate(0 0.58197)"/>
</clipPath>
</defs>
</svg>
