<svg width="40" height="41" viewBox="0 0 40 41" fill="none" xmlns="http://www.w3.org/2000/svg">
<g clip-path="url(#clip0_1_24)">
<path d="M36.3104 20.582L39.888 14.594C39.9609 14.4654 39.9991 14.3213 39.9991 14.1748C39.9991 14.0283 39.9609 13.8842 39.888 13.7556L36.0247 7.38438C35.947 7.25708 35.8363 7.15149 35.7034 7.07799C35.5705 7.00449 35.4201 6.96562 35.2669 6.96522H28.1489L24.5837 0.977191C24.503 0.854346 24.3909 0.75351 24.2583 0.684318C24.1256 0.615126 23.9767 0.579892 23.8259 0.581982H16.1489C15.9957 0.582391 15.8453 0.621258 15.7124 0.694756C15.5795 0.768255 15.4688 0.87385 15.3911 1.00114L11.8259 6.98917H4.69549C4.5423 6.98958 4.39186 7.02844 4.25899 7.10194C4.12612 7.17544 4.0154 7.28104 3.93772 7.40833L0.111636 13.7556C0.0387876 13.8842 0.000610352 14.0283 0.000610352 14.1748C0.000610352 14.3213 0.0387876 14.4654 0.111636 14.594L3.72654 20.582L0.148903 26.57C0.0760546 26.6986 0.0378774 26.8427 0.0378774 26.9892C0.0378774 27.1356 0.0760546 27.2798 0.148903 27.4083L3.97499 33.8035C4.05266 33.9308 4.16339 34.0364 4.29626 34.1099C4.42913 34.1834 4.57957 34.2223 4.73275 34.2227H11.8508L15.416 40.2107C15.4937 40.338 15.6044 40.4436 15.7373 40.5171C15.8701 40.5906 16.0206 40.6295 16.1737 40.6299H23.8259C23.9791 40.6295 24.1295 40.5906 24.2624 40.5171C24.3953 40.4436 24.506 40.338 24.5837 40.2107L28.1489 34.2227H35.3042C35.4574 34.2223 35.6078 34.1834 35.7407 34.1099C35.8735 34.0364 35.9843 33.9308 36.0619 33.8035L39.888 27.4083C39.9609 27.2798 39.9991 27.1356 39.9991 26.9892C39.9991 26.8427 39.9609 26.6986 39.888 26.57L36.3104 20.582ZM38.1241 14.1987L34.7824 19.7437H28.1489L24.8446 14.1987L28.1613 8.64186H34.7824L38.1241 14.1987ZM16.6706 26.1748L13.3539 20.582L16.6706 15.0371H23.329L26.6458 20.582L23.329 26.1269L16.6706 26.1748ZM16.6706 2.30653H23.329L26.6458 7.76761L23.329 13.3245H16.6706L13.3539 7.76761L16.6706 2.30653ZM5.19238 8.64186H11.8508L15.1675 14.1987L11.8508 19.7437H5.19238L1.87561 14.1987L5.19238 8.64186ZM1.87561 26.9293L5.19238 21.4203H11.8508L15.1675 26.9293L13.5029 29.7077L11.8508 32.5221H5.19238L1.87561 26.9293ZM23.329 38.9053H16.6706L13.3539 33.3604L15.0185 30.582L16.6706 27.8035H23.329L24.9812 30.582L26.6458 33.3604L23.329 38.9053ZM34.7824 32.5221H28.1489L26.4967 29.7437L24.8446 26.9293L28.1613 21.3844H34.7824L38.1241 26.9293L34.7824 32.5221Z" fill="black"/>
</g>
<defs>
<clipPath id="clip0_1_24">
<rect width="40" height="40" fill="white" transform="translate(0 0.58197)"/>
</clipPath>
</defs>
</svg>
