<svg width="40" height="60" viewBox="0 0 40 60" fill="none" xmlns="http://www.w3.org/2000/svg">
<g clip-path="url(#clip0_1_69)">
<path fill-rule="evenodd" clip-rule="evenodd" d="M37.3184 21.2152C35.6403 18.3456 33.2686 15.9432 30.4209 14.2282L30.2868 14.124C27.5118 12.485 24.3866 11.53 21.1695 11.3381V6.77946C21.1773 5.74291 21.5956 4.75172 22.3328 4.02295C23.0699 3.29418 24.0658 2.88722 25.1024 2.89119C25.2555 2.89517 25.4079 2.86844 25.5506 2.81257C25.6932 2.75671 25.8232 2.67285 25.9329 2.56593C26.0426 2.45901 26.1297 2.3312 26.1892 2.19005C26.2488 2.0489 26.2794 1.89726 26.2793 1.74408C26.2793 1.59022 26.2488 1.43789 26.1895 1.29593C26.1301 1.15396 26.0432 1.0252 25.9337 0.917099C25.8242 0.808999 25.6944 0.723719 25.5517 0.666206C25.409 0.608693 25.2563 0.580093 25.1024 0.582066C23.4495 0.574133 21.8609 1.22215 20.6851 2.38397C19.5093 3.54579 18.8424 5.12654 18.8305 6.77946V11.3381H18.6369C13.8548 11.6717 9.35352 13.7187 5.95903 17.1035C4.08179 18.9128 2.58702 21.0806 1.56339 23.4785C0.539758 25.8763 0.00811764 28.4553 1.33033e-07 31.0625V31.7478C-9.61014e-05 31.9489 0.0520205 32.1467 0.151251 32.3216C0.250482 32.4966 0.393429 32.6428 0.566108 32.7459C1.60272 33.3371 2.68949 33.8357 3.81378 34.2357C3.17355 39.2737 4.5378 44.3615 7.61266 48.4033L8.02979 48.9545C8.13925 49.0995 8.28117 49.2168 8.44417 49.297C8.60716 49.3772 8.78669 49.4181 8.96834 49.4163H9.07263C9.75325 49.3496 10.4297 49.2452 11.0987 49.1035C11.7666 51.3431 12.8983 53.4172 14.4203 55.1907C15.9424 56.9643 17.8206 58.3977 19.933 59.3977L20.4693 59.651C20.6274 59.7271 20.8003 59.7677 20.9758 59.7701C21.2041 59.7726 21.4277 59.705 21.6164 59.5765C24.1763 57.9329 26.2372 55.6195 27.5754 52.8875C28.3339 51.3503 28.8371 49.6999 29.0652 48.0011L29.7058 48.0904H29.8398C30.1283 48.0791 30.4021 47.9608 30.6081 47.7586C30.8141 47.5564 30.9374 47.2848 30.9542 46.9967C30.9709 46.7086 30.8798 46.4245 30.6986 46.1998C30.5174 45.9752 30.2591 45.826 29.9739 45.7813C28.292 45.5829 26.6467 45.1465 25.0875 44.4852L24.2979 44.1277L23.9553 43.9489L23.6723 43.7999L23.4041 43.651L22.4358 43.07L22.1378 42.8763H22.0633C22.057 42.8519 22.057 42.8262 22.0633 42.8018L22.406 42.3847L22.5251 42.2357L22.8082 41.8782C22.8559 41.8354 22.8961 41.7851 22.9274 41.7292L23.2551 41.2971V41.2227C23.3843 41.056 23.5037 40.8819 23.6127 40.7012L23.8361 40.5076C23.9255 40.3735 24.0149 40.2394 24.0894 40.1053L24.1937 39.9415C24.2831 39.8074 24.3575 39.6733 24.432 39.5392L24.5214 39.3903L24.8194 38.8391L25.0726 38.3176L25.1471 38.1538L25.3408 37.7366L25.4153 37.5579C25.4153 37.394 25.5493 37.245 25.6089 37.0811V36.9769L25.8324 36.381V36.232C25.8383 36.1825 25.8383 36.1325 25.8324 36.083C25.8324 36.083 25.8324 36.083 25.8324 36.0085C25.8525 35.9277 25.8774 35.8481 25.9069 35.7701V35.6361V35.5169C25.9153 35.4776 25.9153 35.437 25.9069 35.3977L26.8901 35.5169H27.4413H30.54H31.1061H31.2849C31.9059 35.4601 32.5228 35.3656 33.1322 35.2338C33.1209 36.7456 32.9054 38.249 32.4916 39.7031C32.4392 39.9933 32.4976 40.2926 32.6554 40.5418C32.8131 40.7909 33.0586 40.9718 33.3433 41.0486C33.628 41.1254 33.9312 41.0925 34.1928 40.9565C34.4544 40.8204 34.6554 40.5911 34.7561 40.3139C35.2619 38.4602 35.5026 36.5442 35.4711 34.623C36.8692 34.165 38.213 33.5556 39.4786 32.8055C39.6513 32.7024 39.7942 32.5562 39.8934 32.3812C39.9927 32.2063 40.0448 32.0085 40.0447 31.8074V31.1221C40.0408 27.6351 39.0992 24.2133 37.3184 21.2152ZM18.8305 13.6621V17.2376C18.863 17.525 19.0002 17.7904 19.2159 17.9831C19.4316 18.1758 19.7108 18.2823 20 18.2823C20.2892 18.2823 20.5684 18.1758 20.7841 17.9831C20.9998 17.7904 21.137 17.525 21.1695 17.2376V13.6621C23.7439 13.8271 26.2509 14.5543 28.514 15.7925C28.514 15.9862 28.514 16.1649 28.514 16.3437V16.5672C28.5065 16.6912 28.5065 16.8156 28.514 16.9396C28.5213 17.0139 28.5213 17.0888 28.514 17.1631C28.522 17.2771 28.522 17.3916 28.514 17.5057C28.5212 17.59 28.5212 17.6747 28.514 17.759C28.514 17.8633 28.514 17.9675 28.514 18.0718V18.3251V18.6379V18.8912C28.5069 18.9954 28.5069 19.0999 28.514 19.204C28.514 19.2934 28.514 19.3679 28.514 19.4573C28.514 19.5467 28.514 19.651 28.514 19.7552C28.514 19.8595 28.514 19.934 28.514 20.0085L28.4395 20.3065L28.365 20.5597L28.2756 20.8577C28.2575 20.9391 28.2326 21.0188 28.2011 21.096L28.0968 21.394L28.0074 21.6323C27.9817 21.7298 27.9468 21.8246 27.9032 21.9154L27.8138 22.1687L27.6946 22.4368L27.5903 22.6901L27.4711 22.9582C27.4711 23.0327 27.4711 23.1221 27.352 23.1966C27.3061 23.2831 27.2662 23.3727 27.2328 23.4647L27.0987 23.7031L26.9646 23.9713L26.8305 24.2096L26.6816 24.4629L26.5475 24.6863L26.3985 24.9396L26.2495 25.178L26.0857 25.4163C26.0309 25.4873 25.9811 25.5619 25.9367 25.6398L25.7579 25.8782L25.594 26.1016L25.4153 26.34C25.369 26.4157 25.314 26.4857 25.2514 26.5485C25.1914 26.6316 25.1267 26.7112 25.0577 26.7869L24.8939 26.9806L24.6853 27.2189L23.9851 27.3977L23.7616 27.6212L23.5829 27.8148L23.3594 28.0383L23.1806 28.2171L22.9423 28.4405L22.7635 28.6044L22.5102 28.8428L22.3315 28.9917L22.0335 29.2301L21.8845 29.3642L21.4674 29.677L21.0056 30.0197L20.8566 30.124L20.514 30.3474L20.3203 30.4666L20.0372 30.6454C17.46 29.101 15.3237 26.9192 13.8339 24.3101C12.3441 21.701 11.5509 18.7523 11.5307 15.7478C13.7839 14.5314 16.2748 13.8197 18.8305 13.6621ZM2.33892 31.0923C2.33945 28.4143 2.95971 25.7727 4.15116 23.3742C5.34261 20.9758 7.07293 18.8857 9.2067 17.2674C9.44145 20.1705 10.3167 22.9856 11.7696 25.51C13.2224 28.0344 15.2167 30.2055 17.6089 31.867C15.8208 32.6071 13.9236 33.0499 11.9926 33.178H9.71322C7.13246 33.0287 4.61556 32.3169 2.33892 31.0923ZM9.48976 47.0327C6.8811 43.5912 5.66319 39.294 6.07821 34.9955C6.54004 35.0998 7.00186 35.204 7.46369 35.2785L8.02979 35.3679H8.14897L8.67039 35.4424H8.93855H9.43017H12.067C12.5289 35.4424 12.9907 35.3679 13.4376 35.3083C14.5199 38.2228 16.2879 40.8339 18.5922 42.921L18.3389 43.1296L18.1601 43.2785L17.6387 43.6808L17.2216 43.9787H17.1173L16.7598 44.2171C14.5759 45.6056 12.1151 46.5004 9.54935 46.839L9.48976 47.0327ZM22.8976 46.0197H23.0168L23.1508 46.0942L24.0596 46.5113L24.2235 46.5858L24.432 46.6752L24.8641 46.839L25.1918 46.9582L25.594 47.0923H25.8175L26.2346 47.2264L26.5922 47.3307C26.3969 48.8495 25.9487 50.3248 25.2663 51.6957C24.2862 53.897 22.7702 55.8177 20.8566 57.2823C19.0785 56.4141 17.4991 55.1878 16.2172 53.6804C14.9354 52.173 13.979 50.417 13.4078 48.5225C14.9786 47.9965 16.4794 47.2811 17.8771 46.3921C18.0559 46.2729 18.2346 46.1687 18.4134 46.0346L18.9199 45.6621H19.0093L19.2775 45.4536H19.352L19.635 45.2301L19.7095 45.1556L19.9628 44.9471L20.0968 44.8279L20.3054 44.664L20.4544 44.7683L20.8119 45.0215L20.9311 45.1109L21.1099 45.2301L21.4823 45.4536L21.6462 45.5579H21.7356L22.8976 46.0197ZM23.9553 34.8465C23.9553 35.0551 23.8212 35.2636 23.7467 35.4722C22.9861 37.6242 21.8063 39.604 20.2756 41.2971C18.3158 39.5256 16.7871 37.3293 15.8063 34.8763C17.2585 34.5264 18.6675 34.0168 20.0074 33.3567L20.4544 33.5802H20.5438L20.8715 33.7292L21.0354 33.8037L21.3184 33.9228L21.527 34.0122L21.7803 34.1165L22.0037 34.191L22.257 34.2953L22.4655 34.3698L22.7337 34.4592L22.9423 34.5336L23.2551 34.623H23.419H23.6276L23.8361 34.8465H23.9702H23.9553ZM37.6611 31.0327C36.3779 31.7332 35.0114 32.2688 33.594 32.6268H33.5196L33.0577 32.731H32.9683C32.8226 32.7751 32.6729 32.8051 32.5214 32.8204H32.4022L31.9851 32.8949H31.8212H31.4339H31.2253H30.8678H30.6145H30.3017H28.7225C27.57 32.8607 26.4231 32.7211 25.2961 32.4778H25.162L24.2831 32.2394H24.0447C23.7764 32.1657 23.5128 32.0762 23.2551 31.9713L22.9125 31.8372H22.7188L22.3464 31.867C22.7933 31.5541 23.2253 31.2264 23.6425 30.8688L24 30.5709L24.0894 30.4815L24.2533 30.3474L24.3724 30.2431L24.5065 30.124L24.7002 29.9303L24.8045 29.826H24.879C25.1471 29.5579 25.4153 29.2897 25.6685 29.0066C28.6024 25.7971 30.3709 21.6935 30.689 17.3567C32.8084 18.9782 34.529 21.0629 35.7194 23.4512C36.9097 25.8396 37.5382 28.4685 37.5568 31.137L37.6611 31.0327Z" fill="black"/>
<path d="M32.2831 43.1741C32.0036 43.0438 31.6845 43.0269 31.3928 43.1269C31.1011 43.2269 30.8595 43.4361 30.7188 43.7105C30.647 43.8492 30.6046 44.0013 30.5944 44.1573C30.5842 44.3132 30.6064 44.4695 30.6596 44.6165C30.7127 44.7634 30.7957 44.8977 30.9034 45.011C31.011 45.1243 31.1409 45.2141 31.2849 45.2747C31.4459 45.3578 31.6253 45.3988 31.8063 45.3939C32.021 45.3961 32.2321 45.3388 32.4162 45.2283C32.6002 45.1179 32.7501 44.9586 32.8492 44.7682C32.9237 44.6277 32.9683 44.4732 32.9799 44.3145C32.9916 44.1559 32.9701 43.9965 32.9169 43.8466C32.8636 43.6967 32.7798 43.5595 32.6707 43.4437C32.5616 43.328 32.4296 43.2362 32.2831 43.1741Z" fill="black"/>
<path d="M19.9926 19.4423C19.8407 19.4403 19.6899 19.4685 19.549 19.5253C19.4081 19.5821 19.2799 19.6663 19.1718 19.773C19.0637 19.8797 18.9779 20.0068 18.9193 20.147C18.8607 20.2871 18.8306 20.4375 18.8306 20.5894C18.8631 20.8768 19.0003 21.1422 19.216 21.3349C19.4317 21.5276 19.7108 21.6341 20 21.6341C20.2893 21.6341 20.5684 21.5276 20.7841 21.3349C20.9998 21.1422 21.137 20.8768 21.1695 20.5894C21.1695 20.4362 21.1389 20.2846 21.0794 20.1434C21.0199 20.0023 20.9327 19.8745 20.823 19.7676C20.7133 19.6606 20.5833 19.5768 20.4407 19.5209C20.2981 19.4651 20.1457 19.4383 19.9926 19.4423Z" fill="black"/>
</g>
<defs>
<clipPath id="clip0_1_69">
<rect width="40" height="59.1881" fill="white" transform="translate(0 0.58197)"/>
</clipPath>
</defs>
</svg>
