<svg width="40" height="72" viewBox="0 0 40 72" fill="none" xmlns="http://www.w3.org/2000/svg">
<path fill-rule="evenodd" clip-rule="evenodd" d="M19.9869 14.7667C22.5548 17.1078 24.5694 19.9911 25.8846 23.2074C24.442 24.8821 23.2272 26.7404 22.272 28.7337C21.5502 28.0576 21.0492 27.6677 20.9678 27.6072L19.9943 26.8534L19.0159 27.6072C18.9344 27.6689 18.4619 28.0428 17.7623 28.6868C16.7964 26.6875 15.5709 24.8244 14.1176 23.1457C15.4335 19.9534 17.4376 17.0907 19.9869 14.7618" fill="#595959"/>
<path fill-rule="evenodd" clip-rule="evenodd" d="M10.2693 22.5263C12.6396 24.8478 14.4856 27.6496 15.6833 30.7436C13.9146 32.9225 12.54 35.3936 11.6216 38.0455C9.20312 36.8663 6.59783 36.1173 3.92242 35.832V35.6099C4.02607 29.4062 8.34695 24.4363 10.268 22.5312" fill="#595959"/>
<path fill-rule="evenodd" clip-rule="evenodd" d="M30.1031 22.5263C32.155 24.4363 36.7523 29.4062 36.8633 35.605V35.8307C34.0016 36.1091 31.2057 36.8595 28.5892 38.0516C27.6062 35.4031 26.1584 32.9513 24.314 30.8115C25.6134 27.6612 27.5898 24.8352 30.1031 22.5337" fill="#595959"/>
<path fill-rule="evenodd" clip-rule="evenodd" d="M20.0005 30.2859C22.0203 32.2193 26.5547 37.2497 26.6632 43.5299C26.7484 48.0741 24.5016 52.4887 20.0005 56.6677C15.4946 52.4875 13.2552 48.0741 13.3378 43.5299C13.4501 37.2497 17.9845 32.2193 20.0005 30.2859Z" fill="#595959"/>
<path fill-rule="evenodd" clip-rule="evenodd" d="M0 38.824C3.73928 38.738 7.44332 39.5634 10.7924 41.2288C10.6546 42.0361 10.5795 42.8529 10.5678 43.6718C10.4716 48.4998 12.4568 53.1168 16.468 57.4438C11.4426 57.2193 7.51405 55.6708 4.74656 52.8034C0.383723 48.29 -0.0283796 41.5928 0.00246631 38.824" fill="#595959"/>
<path fill-rule="evenodd" clip-rule="evenodd" d="M39.9973 38.824C40.0405 41.594 39.6271 48.29 35.2618 52.8034C32.4919 55.6646 28.5572 57.2193 23.5293 57.4438C27.5442 53.118 29.527 48.4998 29.4332 43.6718C29.4199 42.8529 29.3448 42.0363 29.2086 41.2288C32.5565 39.5638 36.2592 38.7384 39.9973 38.824Z" fill="#595959"/>
</svg>
