<svg width="40" height="72" viewBox="0 0 40 72" fill="none" xmlns="http://www.w3.org/2000/svg">
<g clip-path="url(#clip0_26_388)">
<path fill-rule="evenodd" clip-rule="evenodd" d="M19.9882 15.0447C22.5561 17.3858 24.5708 20.2691 25.886 23.4854C24.4434 25.1602 23.2286 27.0184 22.2733 29.0118C21.5515 28.3357 21.0506 27.9458 20.9691 27.8853L19.9956 27.1314L19.0172 27.8853C18.9358 27.947 18.4632 28.3209 17.7636 28.9649C16.7977 26.9656 15.5722 25.1024 14.1188 23.4237C15.4348 20.2314 17.4389 17.3687 19.9882 15.0398" fill="#595959"/>
<path fill-rule="evenodd" clip-rule="evenodd" d="M10.2705 22.8056C12.6408 25.127 14.4869 27.9289 15.6846 31.023C13.9158 33.2019 12.5412 35.673 11.6228 38.3249C9.20432 37.1457 6.59901 36.3967 3.92358 36.1114V35.8893C4.02723 29.6855 8.34815 24.7156 10.2692 22.8105" fill="#595959"/>
<path fill-rule="evenodd" clip-rule="evenodd" d="M30.1033 22.8056C32.1552 24.7156 36.7525 29.6855 36.8635 35.8843V36.1101C34.0018 36.3884 31.2059 37.1389 28.5894 38.331C27.6064 35.6825 26.1586 33.2307 24.3141 31.0908C25.6136 27.9405 27.59 25.1144 30.1033 22.813" fill="#595959"/>
<path fill-rule="evenodd" clip-rule="evenodd" d="M20.0018 30.5652C22.0216 32.4987 26.556 37.5291 26.6646 43.8093C26.7497 48.3536 24.5029 52.7683 20.0018 56.9473C15.4958 52.767 13.2564 48.3536 13.3391 43.8093C13.4513 37.5291 17.9857 32.4987 20.0018 30.5652Z" fill="#595959"/>
<path fill-rule="evenodd" clip-rule="evenodd" d="M0.0012207 39.1034C3.74053 39.0175 7.4446 39.8428 10.7937 41.5082C10.6559 42.3155 10.5808 43.1323 10.5691 43.9512C10.4729 48.7793 12.4581 53.3963 16.4693 57.7234C11.4439 57.4988 7.51533 55.9504 4.74782 53.0829C0.384946 48.5695 -0.0271591 41.8722 0.00368704 39.1034" fill="#595959"/>
<path fill-rule="evenodd" clip-rule="evenodd" d="M39.9975 39.1035C40.0407 41.8734 39.6273 48.5695 35.262 53.0829C32.492 55.9442 28.5573 57.4988 23.5294 57.7234C27.5443 53.3975 29.5271 48.7793 29.4333 43.9512C29.42 43.1324 29.3449 42.3157 29.2087 41.5082C32.5566 39.8432 36.2594 39.0179 39.9975 39.1035Z" fill="#595959"/>
<path d="M20.0018 61.0399L14.1164 71.2315H25.8885L20.0018 61.0399Z" fill="#595959"/>
<path d="M20.0018 10.9533L14.1164 0.761719H25.8885L20.0018 10.9533Z" fill="#595959"/>
</g>
<defs>
<clipPath id="clip0_26_388">
<rect width="40" height="70.4698" fill="white" transform="translate(0 0.761719)"/>
</clipPath>
</defs>
</svg>
