<svg width="40" height="72" viewBox="0 0 40 72" fill="none" xmlns="http://www.w3.org/2000/svg">
<path fill-rule="evenodd" clip-rule="evenodd" d="M19.9947 14.7617L20.8108 15.4135C23.3671 17.5853 25.4238 20.284 26.8401 23.3246C27.4183 22.7678 27.8109 22.4456 27.8781 22.3923L28.6899 21.7405L29.5006 22.3923C29.8004 22.628 36.792 28.3192 36.952 36.4298V36.5365C38.0038 36.5365 38.6823 36.5994 38.7804 36.609L39.8205 36.7157L39.9272 37.7451C39.9677 38.1217 40.8521 47.0398 35.1694 52.8932C32.0651 56.0935 27.6498 57.7053 22.0237 57.7053C21.3666 57.7053 20.686 57.6829 19.9968 57.6381C19.3024 57.6819 18.6282 57.7053 17.97 57.7053C12.346 57.7053 7.93387 56.0945 4.82639 52.8932C-0.851993 47.0452 0.0323529 38.1281 0.0728899 37.7515L0.179565 36.7242L1.2186 36.6176C1.84752 36.5574 2.47935 36.5332 3.11103 36.545V36.4383C3.26998 28.3245 10.2583 22.6366 10.5592 22.4008L11.3699 21.749L12.1817 22.4008C12.2447 22.4488 12.6255 22.7582 13.1791 23.2884C14.5924 20.2642 16.6418 17.5806 19.1872 15.421L19.9947 14.7617ZM19.9947 18.138C17.8614 20.1685 16.1976 22.6406 15.1196 25.3813C16.3317 26.8379 17.3494 28.4458 18.1471 30.1647C18.7263 29.6079 19.121 29.2857 19.1904 29.2313L20.0011 28.5816L20.8118 29.2313C20.8748 29.2857 21.2908 29.6228 21.8957 30.2052C22.6836 28.4902 23.6917 26.885 24.8943 25.4304C23.8169 22.6693 22.1444 20.1795 19.9958 18.138M28.6888 25.1093C26.5664 27.1286 24.9084 29.5852 23.8297 32.3089C25.385 34.1806 26.5993 36.3109 27.4172 38.6028C29.607 37.569 31.9569 36.916 34.3661 36.672V36.4832C34.2712 31.0896 30.4127 26.7681 28.6888 25.1061M11.3656 25.1061C9.64602 26.7681 5.78434 31.0896 5.6926 36.4832V36.6773C8.07968 36.9247 10.4074 37.5758 12.5764 38.6028C13.4032 36.2899 14.6326 34.1414 16.2077 32.2566C15.1254 29.554 13.4735 27.1163 11.3646 25.1093M19.9926 31.9494C18.2708 33.6114 14.4113 37.9329 14.3152 43.3264C14.247 47.2329 16.1543 51.0242 19.9926 54.6149C23.8329 51.0242 25.7414 47.2329 25.6699 43.3264C25.576 37.9329 21.7143 33.6114 19.9926 31.9494ZM37.4021 39.0903C34.1647 39.0167 30.9573 39.7263 28.053 41.1588C28.1699 41.8531 28.2348 42.5552 28.2472 43.2592C28.3304 47.41 26.6086 51.3837 23.1321 55.1003C27.4876 54.9083 30.8992 53.5706 33.2983 51.1117C37.08 47.2297 37.4374 41.4724 37.4021 39.0882M2.57872 39.0882C2.55098 41.4724 2.90835 47.2297 6.68896 51.1117C9.08491 53.5748 12.4932 54.9083 16.8499 55.1003C13.3722 51.3805 11.6483 47.4079 11.7294 43.2592C11.7424 42.5551 11.8083 41.853 11.9268 41.1588C9.02213 39.7263 5.81442 39.0167 2.57658 39.0903" fill="#595959"/>
</svg>
