<svg width="40" height="100" viewBox="0 0 40 100" fill="none" xmlns="http://www.w3.org/2000/svg">
<path fill-rule="evenodd" clip-rule="evenodd" d="M9.48473 98.4622H31.6075C32.8381 98.4622 33.9893 97.8601 34.6875 96.8518C35.3884 95.835 35.5468 94.5408 35.1099 93.3816C27.1271 72.19 37.5586 15.6834 39.7313 4.57178C39.8952 3.72886 39.6774 2.86274 39.1304 2.20264C38.5831 1.53529 37.7718 1.15663 36.9097 1.15663H3.63272C2.77764 1.15663 1.97508 1.53093 1.42643 2.18814C0.879211 2.8468 0.652794 3.70712 0.808118 4.55001C11.8766 64.9258 8.79539 86.1305 5.97383 93.3962C5.53413 94.5292 5.68343 95.8088 6.3743 96.8199C7.07824 97.8471 8.24226 98.4622 9.48473 98.4622ZM2.75605 3.29517C2.97499 3.03549 3.29306 2.88606 3.63272 2.88606H36.9097C37.2536 2.88606 37.5772 3.03693 37.7952 3.30243C38.0129 3.56502 38.0971 3.90596 38.0315 4.24107C35.8445 15.431 25.3431 72.3627 33.4915 93.991C33.7312 94.6265 33.6497 95.3113 33.2638 95.8684C32.8834 96.4182 32.2795 96.7329 31.6078 96.7329H9.48473C8.81272 96.7329 8.18418 96.3993 7.80256 95.8422C7.42824 95.2952 7.34979 94.6323 7.58788 94.0214C10.4748 86.5833 13.6549 65.0332 2.5092 4.24107C2.44823 3.90306 2.53833 3.55922 2.75605 3.29517ZM32.26 17.1209H8.27815C13.8836 41.7145 13.8836 82.4977 13.8836 82.4977H26.6546C24.7851 62.5741 32.26 17.1209 32.26 17.1209Z" fill="black"/>
</svg>
