<svg width="40" height="41" viewBox="0 0 40 41" fill="none" xmlns="http://www.w3.org/2000/svg">
<g clip-path="url(#clip0_9_68)">
<mask id="mask0_9_68" style="mask-type:luminance" maskUnits="userSpaceOnUse" x="0" y="0" width="40" height="41">
<path d="M40 0.118561H0V40.9988H40V0.118561Z" fill="white"/>
</mask>
<g mask="url(#mask0_9_68)">
<path d="M0.40865 13.7287C0.405884 13.9323 0.478804 14.1298 0.613288 14.2828C0.711094 14.4055 0.780933 14.548 0.817927 14.7005C0.843263 14.9396 0.971243 14.9987 1.16744 15.0416C1.27583 15.0571 1.37725 15.1042 1.45905 15.177C1.54084 15.2497 1.59939 15.345 1.62739 15.4509C1.6878 15.673 1.80734 15.7322 2.02952 15.6458C2.46478 15.4833 2.89939 15.304 3.33466 15.1338C3.32556 15.1852 3.30867 15.2638 3.29957 15.3385C3.25395 15.6396 3.22834 15.9434 3.22292 16.248C3.21833 16.3149 3.22785 16.3821 3.25088 16.4452C3.2739 16.5083 3.30992 16.5658 3.35658 16.614C3.40325 16.6623 3.45953 16.7002 3.52178 16.7253C3.58402 16.7505 3.65086 16.7622 3.71795 16.7599C4.28054 16.7599 4.83469 16.7515 5.39793 16.7339C5.53086 16.7327 5.66198 16.703 5.78253 16.647C5.90308 16.591 6.01028 16.5099 6.09695 16.4091C6.12294 16.3831 6.15737 16.3409 6.18205 16.3493C6.51467 16.4091 6.69397 16.1791 6.89666 15.9829C7.00285 15.8672 7.13197 15.7748 7.27581 15.7118C7.41965 15.6487 7.57505 15.6162 7.73211 15.6165C7.96165 15.6036 8.18977 15.5721 8.41424 15.5223C8.43734 15.5517 8.45757 15.5833 8.47465 15.6165C8.54261 15.695 8.58213 15.7941 8.58685 15.8979C8.59156 16.0016 8.56119 16.1039 8.50064 16.1882C8.43243 16.2986 8.46621 16.478 8.45776 16.6313C8.46545 16.7452 8.45978 16.8597 8.44087 16.9723C8.38397 17.1243 8.38699 17.2922 8.44932 17.442C8.6412 17.8385 8.92145 18.1856 9.26852 18.4568C9.35421 18.5303 9.45565 18.5833 9.56502 18.6114C9.67439 18.6396 9.78877 18.6422 9.89933 18.6192C9.98745 18.6207 10.0733 18.6473 10.1468 18.6958C10.2495 18.7556 10.3261 18.8751 10.4288 18.9005C10.5663 18.9343 10.6891 19.012 10.7783 19.122C10.8323 19.2011 10.9072 19.2636 10.9945 19.3028C11.0819 19.342 11.1784 19.3563 11.2733 19.3442C11.4266 19.3182 11.4955 19.3611 11.5371 19.515C11.6319 19.8399 11.8275 19.9328 12.1601 19.8561C12.267 19.8365 12.3774 19.8516 12.4752 19.899C12.6889 19.9932 12.8845 20.1205 13.0891 20.2141C13.1493 20.2346 13.2024 20.2721 13.2417 20.3222C13.281 20.3722 13.305 20.4326 13.3106 20.496C13.3377 20.688 13.352 20.8816 13.3535 21.0755C13.3451 21.3406 13.3795 21.6134 13.1495 21.8265C13.1154 21.8636 13.097 21.9125 13.0982 21.9629C13.0999 22.1837 13.1886 22.395 13.345 22.5508C13.6355 22.8056 13.9996 22.9612 14.3845 22.9952C14.5553 23.0121 14.7346 22.9952 14.9133 23.0036C15.1446 23.0121 15.2206 23.1225 15.1615 23.3363C15.145 23.3917 15.1248 23.4459 15.101 23.4987C15.041 23.5774 15.0029 23.6707 14.9907 23.769C14.9785 23.8673 14.9926 23.967 15.0316 24.0581C15.0705 24.1491 15.133 24.2282 15.2126 24.2872C15.2921 24.3462 15.3859 24.383 15.4843 24.3939C15.5785 24.4277 15.715 24.5297 15.715 24.5985C15.7318 24.9571 15.8852 25.3411 15.6032 25.6737C15.5648 25.708 15.538 25.7534 15.5266 25.8036C15.4958 25.8971 15.49 25.997 15.5097 26.0934C15.5323 26.1269 15.543 26.1671 15.5399 26.2074C15.5369 26.2477 15.5202 26.2858 15.4928 26.3155C15.361 26.4756 15.2804 26.6717 15.2615 26.8781C15.2362 27.3329 15.1771 27.7824 15.1433 28.2346C15.1241 28.4584 15.118 28.6831 15.1251 28.9076C15.1237 28.9968 15.1524 29.0838 15.2067 29.1545C15.2609 29.2253 15.3375 29.2756 15.4239 29.2974C15.6791 29.3509 15.9389 29.3792 16.1996 29.3819C16.3612 29.3811 16.521 29.4161 16.6675 29.4843C16.8141 29.5524 16.9437 29.6522 17.0472 29.7763C17.1507 29.9005 17.2255 30.046 17.2661 30.2024C17.3068 30.3588 17.3124 30.5223 17.2826 30.6812C17.2555 30.8677 17.2499 31.0566 17.2657 31.2444C17.2741 31.4828 17.3508 31.5341 17.5905 31.4913C17.7009 31.4744 17.812 31.4399 17.9231 31.4309C17.9819 31.42 18.0423 31.4235 18.0995 31.441C18.1566 31.4585 18.2087 31.4895 18.2513 31.5314C18.2939 31.5732 18.3258 31.6247 18.3444 31.6815C18.3629 31.7383 18.3675 31.7987 18.3577 31.8577C18.3274 32.1672 18.262 32.4724 18.1628 32.7672C18.0524 33.092 18.027 33.0829 18.3083 33.2784C18.4392 33.3628 18.5422 33.484 18.6044 33.6268C18.6665 33.7695 18.6851 33.9275 18.6579 34.0808C18.6325 34.3023 18.5734 34.516 18.5643 34.7369C18.5602 34.8782 18.5095 35.0142 18.42 35.1237C18.3306 35.2332 18.2075 35.3101 18.0699 35.3424C17.4158 35.5791 16.8238 35.9612 16.3386 36.4598C16.0229 36.7502 15.7494 37.0737 15.4596 37.3901C15.4224 37.4174 15.3915 37.4523 15.3688 37.4925C15.3462 37.5328 15.3324 37.5773 15.3283 37.6233C15.3243 37.6693 15.3301 37.7156 15.3453 37.7592C15.3606 37.8028 15.3849 37.8426 15.4168 37.876C15.4485 37.936 15.4857 37.993 15.5279 38.0462C15.7325 38.3106 15.9969 38.5321 15.9112 38.9336C15.8767 39.0954 15.9963 39.172 16.1587 39.1214C16.2266 39.102 16.2903 39.07 16.3464 39.0272C16.3715 39.0075 16.4004 38.9934 16.4313 38.9858C16.4623 38.9781 16.4944 38.9771 16.5258 38.9827C16.5571 38.9884 16.5869 39.0006 16.6132 39.0185C16.6395 39.0365 16.6617 39.0598 16.6784 39.0869C17.0063 39.497 17.3848 39.864 17.8049 40.179C17.8997 40.2404 17.9811 40.3205 18.044 40.4143C18.107 40.5081 18.1503 40.6137 18.1713 40.7247C18.1973 40.9196 18.3161 40.9378 18.4701 40.9196C18.6143 40.9027 18.7508 40.8605 18.9054 40.8267C18.9989 41.0216 19.1438 41.0482 19.2802 40.8774C19.3477 40.8043 19.3975 40.7167 19.4257 40.6214C19.511 40.2474 19.7071 39.9078 19.9883 39.6469C20.2696 39.3832 20.5171 39.0843 20.79 38.7855C20.8069 38.8024 20.8407 38.8199 20.8667 38.8453C20.9027 38.8973 20.9518 38.9389 21.0091 38.966C21.0663 38.993 21.1297 39.0046 21.1928 38.9995C21.2559 38.9943 21.3165 38.9727 21.3686 38.9367C21.4207 38.9008 21.4625 38.8518 21.4897 38.7946C21.5873 38.641 21.6754 38.4815 21.7534 38.3171C21.8865 38.0394 22.0895 37.8012 22.3426 37.6259C22.5781 37.4516 22.7704 37.2256 22.9049 36.9653C23.0394 36.7051 23.1124 36.4174 23.1183 36.1245C23.1612 35.8173 23.1787 35.5015 23.2125 35.1949C23.221 35.0754 23.247 34.9558 23.2638 34.8454C23.3236 34.4621 23.6471 34.1626 23.5965 33.7364C23.6816 33.7793 23.7413 33.8215 23.8095 33.856C23.8333 33.8715 23.8604 33.8813 23.8886 33.8844C23.9169 33.8875 23.9454 33.8839 23.972 33.8739C23.9986 33.8639 24.0224 33.8478 24.0416 33.8268C24.0608 33.8059 24.0748 33.7807 24.0824 33.7533C24.1483 33.6165 24.245 33.4968 24.3649 33.4036C24.4849 33.3103 24.6247 33.2462 24.7736 33.2161C24.9972 33.1445 25.2055 33.0317 25.3875 32.8835C25.4841 32.7808 25.6003 32.6985 25.7291 32.6414C25.858 32.5843 25.997 32.5535 26.1379 32.5508C26.3611 32.5724 26.5864 32.5427 26.7964 32.4639C27.0064 32.3851 27.1956 32.2593 27.3495 32.0961C27.4545 31.9529 27.6116 31.8566 27.7869 31.8279C27.9622 31.7992 28.1417 31.8405 28.2869 31.9428C28.5186 32.0601 28.7822 32.0988 29.0379 32.0532C29.5351 31.967 30.0051 31.7656 30.4106 31.4653C30.7458 31.2512 31.0172 30.9507 31.196 30.5954C31.245 30.4721 31.3187 30.3601 31.4126 30.2662C31.5064 30.1724 31.6184 30.0987 31.7417 30.0497C31.8262 30.0219 31.9043 29.9777 31.9717 29.9198C32.3037 29.5189 32.6369 29.1097 32.9611 28.6919C33.1235 28.4789 33.0462 28.2229 33.0638 27.9838C33.0512 27.8744 33.0656 27.7636 33.1057 27.661C33.1458 27.5584 33.2103 27.4672 33.2937 27.3953C33.6033 27.1659 33.8311 26.8432 33.9434 26.4747C33.9888 26.3217 34.0174 26.1642 34.0285 26.005C34.02 25.979 34.0798 25.9621 34.0889 25.9368C34.1234 25.8309 34.1488 25.7222 34.1649 25.612C34.2253 25.3047 34.2844 25.0065 34.3358 24.7025C34.3955 24.3354 34.4469 23.9684 34.4982 23.602C34.5495 23.2609 34.5664 22.9198 34.6339 22.5788C34.6481 22.4594 34.6957 22.3464 34.7712 22.2529C34.8467 22.1593 34.9471 22.089 35.0608 22.05C35.4407 21.9398 35.7864 21.7348 36.0653 21.4543C36.3443 21.1739 36.5474 20.8271 36.6556 20.4466C36.6953 20.2753 36.7873 20.1207 36.9191 20.0042C37.0508 19.8878 37.2155 19.8153 37.3904 19.797C37.6063 19.7768 37.8154 19.7108 38.0037 19.6034C38.192 19.496 38.3552 19.3496 38.4825 19.174C38.5375 19.0578 38.6027 18.9467 38.6773 18.842C38.8995 18.6029 39.1379 18.3814 39.3686 18.1508C39.6325 17.9157 39.8252 17.6113 39.9248 17.2722C40.0243 16.9331 40.0268 16.5728 39.9318 16.2324C39.8702 15.9765 39.8216 15.7176 39.7863 15.4567C39.7735 15.2388 39.7477 15.0219 39.709 14.8071C39.6658 14.5833 39.5558 14.3778 39.3934 14.2179C39.231 14.0579 39.0239 13.951 38.7995 13.9112C38.6546 13.8859 38.5182 13.843 38.3733 13.8261C38.0704 13.7865 37.7935 13.6344 37.5976 13.3999C37.2559 12.9647 36.9227 12.5132 36.6076 12.061C36.4029 11.77 36.249 11.4549 35.828 11.4211C35.7773 11.4211 35.7169 11.3438 35.6831 11.2847C35.608 11.1461 35.499 11.0288 35.3664 10.9437C35.2337 10.8587 35.0816 10.8086 34.9243 10.7981C34.7458 10.7695 34.5635 10.7753 34.3871 10.815C33.9462 10.9271 33.4796 10.8759 33.0735 10.6708C32.8992 10.608 32.7417 10.5057 32.6135 10.3719C32.469 10.2216 32.2754 10.1278 32.0678 10.1075C31.6854 10.0711 31.3 10.1359 30.9505 10.2953C30.7712 10.3635 30.5841 10.4317 30.3794 10.4999C30.473 10.1335 30.5581 9.80024 30.6523 9.46827C30.6951 9.30586 30.6783 9.22076 30.5067 9.15254C30.2535 9.0357 30.0084 8.90178 29.7733 8.75171C29.6544 8.6744 29.5602 8.56396 29.4316 8.48731C28.9776 8.22605 28.481 8.04703 27.9647 7.95849C27.6883 7.8932 27.4008 7.8907 27.1233 7.95119C26.8459 8.01167 26.5855 8.1336 26.3614 8.308C26.1223 8.49575 25.8839 8.6744 25.6532 8.84526C25.5806 8.67117 25.4695 8.51573 25.3284 8.39051C25.4192 8.37979 25.5082 8.35684 25.5928 8.3223C25.7639 8.25928 25.927 8.17642 26.0788 8.07543C26.3398 7.88133 26.5878 7.6704 26.8213 7.44398C26.9577 7.3082 26.9233 7.19711 26.744 7.11201C26.253 6.88305 25.7161 6.76949 25.1745 6.78004C24.9362 6.78954 24.7056 6.86635 24.5092 7.00157C24.3046 7.1315 24.1253 7.28286 23.9122 7.4024C23.8251 7.46377 23.7266 7.50692 23.6224 7.52924C23.5182 7.55157 23.4106 7.55262 23.3061 7.53233C23.3636 7.37465 23.4351 7.22246 23.5198 7.07757C23.8977 6.55561 24.3873 6.12459 24.9529 5.81596C25.1147 5.73086 25.2511 5.62107 25.2167 5.40604C25.2035 5.34023 25.2112 5.27192 25.2388 5.21074C25.2664 5.14956 25.3125 5.09858 25.3706 5.06497C25.4642 4.99676 25.55 4.91945 25.6682 4.81811C25.5849 4.76423 25.4965 4.71854 25.4044 4.68168C25.2339 4.63637 25.0658 4.58216 24.901 4.51927C24.7932 4.4679 24.7102 4.37583 24.6703 4.26331C24.6197 4.06842 24.6365 3.85403 24.5859 3.64939C24.4839 3.18035 24.3553 2.7113 24.2442 2.28514C24.2098 2.25567 24.1693 2.23408 24.1257 2.22189C24.0821 2.2097 24.0363 2.2072 23.9916 2.21457C23.9469 2.22194 23.9044 2.23899 23.867 2.26453C23.8296 2.29008 23.7982 2.3235 23.7751 2.36244C23.6556 2.49237 23.5192 2.60086 23.4087 2.73729C23.3503 2.80913 23.3225 2.90108 23.3314 2.99325C23.3658 3.24986 23.3658 3.29209 23.1268 3.35186C23.0321 3.37428 22.9447 3.42056 22.873 3.48628C22.8012 3.55201 22.7475 3.63499 22.7168 3.72735C22.6938 3.78908 22.6549 3.84364 22.604 3.8855C22.5531 3.92737 22.4921 3.95506 22.4271 3.96577C22.0507 4.04403 21.6629 4.04976 21.2844 3.98266C21.143 3.97954 21.0041 3.94415 20.8785 3.87919C20.7528 3.81422 20.6437 3.7214 20.5594 3.60782C20.5384 3.57825 20.5118 3.55319 20.481 3.5341C20.4502 3.51502 20.4159 3.50231 20.3801 3.49673C20.1332 3.45385 19.885 3.43176 19.6382 3.38629C19.5635 3.367 19.4844 3.37427 19.4145 3.40686C19.3446 3.43945 19.2881 3.49533 19.2549 3.56494C19.1529 3.74966 18.9899 3.89318 18.7938 3.97093C18.5976 4.04868 18.3805 4.05581 18.1797 3.99111C17.8797 3.8891 17.553 3.89832 17.2592 4.01709C16.969 4.10938 16.6727 4.1808 16.3724 4.23083C16.2679 4.25704 16.1586 4.25668 16.0543 4.22979C15.95 4.20289 15.8541 4.15032 15.7754 4.07686C15.4175 3.74884 15.1906 3.30225 15.1368 2.8198C15.1083 2.42313 15.2236 2.02948 15.4616 1.71085C15.6922 1.36134 15.6838 1.32106 15.3687 1.07095C15.2966 1.02485 15.2411 0.95697 15.2103 0.877174C15.1795 0.797378 15.1749 0.709825 15.1972 0.627241C15.2154 0.550582 15.2654 0.473924 15.2492 0.414806C15.2448 0.367037 15.2311 0.320591 15.2088 0.278121C15.1865 0.235651 15.1561 0.197991 15.1192 0.167291C14.9243 0.0646473 14.7697 0.124415 14.6158 0.337499C14.4033 0.618795 14.2149 0.934523 13.831 0.994291C13.5575 1.03652 13.2768 1.05926 12.9955 1.08784C12.9273 1.09628 12.8591 1.07095 12.7909 1.07939C12.6984 1.08983 12.6102 1.12453 12.5354 1.17997C12.4605 1.23541 12.4017 1.30963 12.3647 1.39512C12.1854 1.69331 12.1081 1.70175 11.8528 1.46333C11.8268 1.44579 11.8099 1.41201 11.7846 1.40292C11.554 1.28403 11.3298 1.16385 11.1018 1.0703C11.0587 1.06554 11.015 1.07167 10.9748 1.08812C10.9347 1.10458 10.8993 1.13084 10.8718 1.1645C10.8046 1.26815 10.7613 1.38547 10.745 1.50794C10.7287 1.63042 10.7398 1.75498 10.7776 1.87261C10.8082 2.03024 10.876 2.17826 10.9754 2.30428C11.0749 2.43031 11.2031 2.53067 11.3493 2.59697C11.4119 2.62384 11.4652 2.66847 11.5027 2.72534C11.5402 2.78221 11.5601 2.84882 11.5601 2.91692C11.5601 2.98502 11.5402 3.05162 11.5027 3.10849C11.4652 3.16536 11.4119 3.20999 11.3493 3.23687C11.2642 3.28819 11.1616 3.31353 11.0758 3.3668C10.4964 3.69942 9.91622 4.03203 9.33673 4.3731C9.28606 4.40813 9.22695 4.42901 9.16551 4.43358C9.10407 4.43815 9.04253 4.42624 8.98722 4.39908C8.88805 4.34301 8.77465 4.31714 8.66097 4.32464C8.54729 4.33214 8.43827 4.37269 8.34732 4.44131C8.32682 4.45396 8.3032 4.46066 8.27911 4.46066C8.25502 4.46066 8.2314 4.45396 8.2109 4.44131C8.07442 4.36419 7.95593 4.2589 7.86329 4.13244C7.77066 4.00597 7.70601 3.86124 7.67364 3.70786C7.66299 3.56561 7.60663 3.43061 7.51296 3.32301C7.4193 3.21541 7.29335 3.14099 7.15392 3.11084C6.94401 3.07327 6.72772 3.09695 6.53091 3.17905C6.24646 3.26671 5.94543 3.28651 5.65194 3.23687C5.43644 3.20672 5.2178 3.20672 5.0023 3.23687C4.93339 3.24941 4.87071 3.28478 4.82436 3.33728C4.77801 3.38978 4.75068 3.45636 4.74678 3.52629C4.74288 3.59622 4.76263 3.66542 4.80285 3.72276C4.84308 3.78009 4.90143 3.82221 4.96851 3.84234C5.06358 3.87211 5.1528 3.91804 5.23227 3.97811C5.30425 4.03851 5.35067 4.12393 5.3622 4.21718C5.3622 4.27695 5.268 4.36205 5.20044 4.38739C5.09251 4.41907 4.98026 4.43354 4.86782 4.43027C4.46699 4.44716 4.27924 4.69467 4.44165 5.06172C4.54861 5.29549 4.68625 5.51396 4.85093 5.71137C4.99715 5.86082 5.08389 6.05844 5.09489 6.26723C5.10589 6.47602 5.0404 6.68167 4.9107 6.84565C4.81837 6.94494 4.75096 7.06475 4.71402 7.19521C4.67709 7.32567 4.67168 7.46304 4.69826 7.59599C4.70852 7.66402 4.69324 7.73344 4.65539 7.79089C4.52601 8.04427 4.45918 8.32494 4.46049 8.60944C4.45592 8.68264 4.43878 8.7545 4.40982 8.82187C4.3512 8.97089 4.30767 9.12542 4.27989 9.28312C4.2539 9.65862 4.09214 9.79439 3.74393 9.68395C3.59211 9.63216 3.43075 9.61445 3.27131 9.63207C3.11187 9.6497 2.95827 9.70224 2.82143 9.78595C2.71002 9.82927 2.59147 9.85131 2.47193 9.85091C2.33198 9.84461 2.19251 9.8303 2.0542 9.80804C2.04123 9.88759 2.0009 9.96012 1.94019 10.0131C1.87947 10.0661 1.80216 10.0963 1.72158 10.0984C1.68051 10.11 1.64255 10.1307 1.61049 10.1588C1.12505 10.5448 0.807553 11.1034 0.724378 11.718C0.681501 11.8798 0.672406 12.0331 0.476863 12.1273C0.342252 12.2055 0.230314 12.3175 0.15204 12.4521C0.0477556 12.5701 -0.00688538 12.7239 -0.000469214 12.8813C0.00594695 13.0387 0.072924 13.1875 0.186471 13.2966C0.26332 13.3358 0.326 13.398 0.365726 13.4745C0.405453 13.551 0.420235 13.6381 0.408 13.7235" fill="black"/>
</g>
</g>
<defs>
<clipPath id="clip0_9_68">
<rect width="40" height="40.8803" fill="white" transform="translate(0 0.118561)"/>
</clipPath>
</defs>
</svg>
