<svg width="41" height="42" viewBox="0 0 41 42" fill="none" xmlns="http://www.w3.org/2000/svg">
<g clip-path="url(#clip0_15_225)">
<path d="M7.43865 28.911C6.22861 28.911 5.24768 29.8919 5.24768 31.1019C5.24768 32.312 6.22861 33.2929 7.43865 33.2929H15.6219C16.8319 33.2929 17.8129 32.312 17.8129 31.1019C17.8129 29.8919 16.8319 28.911 15.6219 28.911H7.43865Z" stroke="black" stroke-width="1.5" stroke-miterlimit="10"/>
<path d="M12.3135 21.783C11.1035 21.783 10.1226 22.7639 10.1226 23.974C10.1226 25.184 11.1035 26.1649 12.3135 26.1649H20.4968C21.7068 26.1649 22.6877 25.184 22.6877 23.974C22.6877 22.7639 21.7068 21.783 20.4968 21.783H12.3135Z" stroke="black" stroke-width="1.5" stroke-miterlimit="10"/>
<path d="M1.7546 20.7152C0.785563 21.4399 0.587462 22.8129 1.31213 23.782C2.03681 24.751 3.40983 24.9491 4.37887 24.2245L10.9323 19.3236C11.9014 18.599 12.0995 17.2259 11.3748 16.2569C10.6501 15.2879 9.27709 15.0898 8.30805 15.8144L1.7546 20.7152Z" stroke="black" stroke-width="1.5" stroke-miterlimit="10"/>
<path d="M17.355 36.3082C16.5551 37.2162 16.6427 38.6006 17.5506 39.4005C18.4585 40.2004 19.843 40.1128 20.6429 39.2049L26.0525 33.0646C26.8524 32.1567 26.7648 30.7722 25.8568 29.9723C24.9489 29.1724 23.5644 29.26 22.7645 30.168L17.355 36.3082Z" stroke="black" stroke-width="1.5" stroke-miterlimit="10"/>
<path d="M17.1226 1.11856C15.9126 1.11856 14.9316 2.09949 14.9316 3.30952C14.9316 4.51956 15.9126 5.50049 17.1226 5.50049L25.3059 5.50049C26.5159 5.50049 27.4968 4.51956 27.4968 3.30952C27.4968 2.09949 26.5159 1.11856 25.3059 1.11856L17.1226 1.11856Z" stroke="black" stroke-width="1.5" stroke-miterlimit="10"/>
<path d="M29.6258 17.8283C28.4157 17.8283 27.4348 18.8093 27.4348 20.0193C27.4348 21.2293 28.4157 22.2103 29.6258 22.2103H37.809C39.0191 22.2103 40 21.2293 40 20.0193C40 18.8093 39.0191 17.8283 37.809 17.8283H29.6258Z" stroke="black" stroke-width="1.5" stroke-miterlimit="10"/>
<path d="M32.093 5.7763C31.1851 4.9764 29.8006 5.06399 29.0007 5.97193C28.2008 6.87987 28.2884 8.26435 29.1963 9.06424L35.3366 14.4738C36.2445 15.2737 37.629 15.1861 38.4289 14.2782C39.2288 13.3702 39.1412 11.9857 38.2333 11.1858L32.093 5.7763Z" stroke="black" stroke-width="1.5" stroke-miterlimit="10"/>
<path d="M29.6014 24.7146C28.6935 23.9147 27.309 24.0023 26.5091 24.9102C25.7092 25.8181 25.7968 27.2026 26.7048 28.0025L32.845 33.412C33.7529 34.2119 35.1374 34.1244 35.9373 33.2164C36.7372 32.3085 36.6496 30.924 35.7417 30.1241L29.6014 24.7146Z" stroke="black" stroke-width="1.5" stroke-miterlimit="10"/>
<path d="M10.3463 6.86217C9.43837 6.06228 8.0539 6.14987 7.254 7.05781C6.45411 7.96575 6.5417 9.35023 7.44964 10.1501L13.5899 15.5597C14.4978 16.3596 15.8823 16.272 16.6822 15.364C17.4821 14.4561 17.3945 13.0716 16.4866 12.2717L10.3463 6.86217Z" stroke="black" stroke-width="1.5" stroke-miterlimit="10"/>
<path d="M18.8082 14.7026C17.9003 15.5025 17.8127 16.887 18.6126 17.7949C19.4125 18.7028 20.7969 18.7904 21.7049 17.9905L27.8451 12.581C28.7531 11.7811 28.8407 10.3966 28.0408 9.48868C27.2409 8.58074 25.8564 8.49315 24.9485 9.29305L18.8082 14.7026Z" stroke="black" stroke-width="1.5" stroke-miterlimit="10"/>
</g>
<defs>
<clipPath id="clip0_15_225">
<rect width="41" height="41" fill="white" transform="translate(0 0.118561)"/>
</clipPath>
</defs>
</svg>
