<svg width="40" height="36" viewBox="0 0 40 36" fill="none" xmlns="http://www.w3.org/2000/svg">
<g clip-path="url(#clip0_1_86)">
<path d="M39.8077 26.1932C37.2172 23.1955 35.5769 21.6118 31.9457 23.105C28.552 24.5077 22.1719 26.4987 16.3122 25.5597C17.4434 24.6548 18.7443 23.7724 20.0452 22.9353C25.4111 22.5244 30.541 20.5589 34.8077 17.2792C34.9032 17.2279 34.9908 17.1631 35.0678 17.0869C35.1311 16.9729 35.1623 16.8439 35.1583 16.7136C35.1645 16.6799 35.1645 16.6454 35.1583 16.6118C35.1471 16.4966 35.1125 16.385 35.0565 16.2837C33.6254 14.2394 31.992 12.3444 30.181 10.6276C30.0853 10.5391 29.9684 10.4768 29.8416 10.4466C27.0362 9.70001 23.1335 10.605 19.2421 12.2792C15.2811 13.1931 11.1671 13.2202 7.19455 12.3584C12.6129 8.43004 19.195 6.43791 25.8823 6.70227C26.0443 6.71434 26.2061 6.67632 26.3457 6.59335C26.4853 6.51039 26.596 6.3865 26.6629 6.23847C26.7289 6.09184 26.7481 5.92837 26.7177 5.77043C26.6874 5.61249 26.6089 5.46779 26.4932 5.35612C23.19 2.08689 20.362 0.118563 16.0294 0.118563H15.9163C11.1972 0.0403104 6.63004 1.78692 3.1674 4.99413C0.429842 7.68644 0.147036 8.73847 -2.25186e-05 12.4828C-0.0132078 14.4831 0.195458 16.4787 0.622149 18.433V18.5235C0.64164 18.5831 0.668226 18.64 0.701335 18.6932L0.769208 18.7724L0.916267 18.9082C2.53955 19.876 4.31385 20.5643 6.16514 20.9444C4.88981 22.1692 4.0044 23.7433 3.61989 25.4692C3.60322 25.5666 3.60322 25.666 3.61989 25.7634C4.482 28.8037 6.0966 31.5777 8.31446 33.829C8.40454 33.9272 8.52329 33.9945 8.65382 34.0213C11.3076 35.2945 14.2173 35.9445 17.1606 35.9217C23.6199 35.9217 31.052 33.0824 39.6493 27.3697C39.7345 27.3062 39.8062 27.2264 39.8603 27.135C39.9145 27.0436 39.9499 26.9424 39.9646 26.8371C39.9794 26.7319 39.9731 26.6248 39.9461 26.5221C39.9192 26.4193 39.8721 26.3229 39.8077 26.2385V26.1932ZM23.6878 20.786C26.0978 19.4329 28.6716 18.395 31.3461 17.6977C28.9751 19.1306 26.3894 20.1732 23.6878 20.786ZM12.9525 14.5077C13.5407 14.5077 14.0837 14.5077 14.7172 14.4511C13.6538 15.0733 12.6131 15.7181 11.6516 16.3855C10.2261 17.3527 8.87602 18.4267 7.6131 19.5982C5.76818 19.3565 3.98439 18.7734 2.35292 17.8787C3.0484 16.1938 4.14784 14.7058 5.55428 13.5462C7.96891 14.1826 10.4554 14.5057 12.9525 14.5077ZM4.25337 6.14797C7.36696 3.28157 11.4466 1.69415 15.6787 1.70227H15.9163C17.3872 1.69341 18.8452 1.97798 20.2048 2.53932C21.5645 3.10067 22.7985 3.92752 23.8348 4.9715C14.604 5.11856 5.10179 10.2996 1.74206 15.5484C1.62945 14.557 1.57656 13.5598 1.58369 12.562C1.70812 9.16834 1.79862 8.55748 4.25337 6.14797ZM12.5452 17.6864C17.6357 14.191 24.9887 10.8991 29.1516 11.872C30.4724 13.1132 31.694 14.4559 32.8054 15.8878C29.2986 16.2498 24.1289 18.5009 19.4231 21.4534L19.3212 21.5213C14.4231 24.6095 10.0339 28.4557 8.58595 31.7023C7.07561 29.8739 5.96226 27.7512 5.31672 25.4692C5.65609 23.5575 8.42758 20.4806 12.5452 17.6864ZM9.81898 32.8109C10.4072 31.0801 12.2511 28.9647 14.7285 26.8493C21.3235 28.4557 28.6878 26.1367 32.5452 24.5869C34.8077 23.614 35.7918 24.0665 38.009 26.5552C26.4819 34.0552 17.2511 36.0914 9.81898 32.8109Z" fill="black"/>
</g>
<defs>
<clipPath id="clip0_1_86">
<rect width="40" height="35.8032" fill="white" transform="translate(0 0.118561)"/>
</clipPath>
</defs>
</svg>
