<svg width="40" height="41" viewBox="0 0 40 41" fill="none" xmlns="http://www.w3.org/2000/svg">
<path d="M27.012 23.4807C26.5213 23.4807 26.5797 23.4807 26.0656 23.3989M23.4016 23.0601C21.6395 22.7718 19.8957 22.3817 18.1788 21.8916C7.94341 18.8771 0.699215 12.9649 1.94942 8.71189C3.19963 4.45885 12.4652 3.34885 22.6655 6.31663C32.8658 9.28441 40.11 15.1732 38.8598 19.4613C38.6003 20.2797 38.0892 20.9952 37.3992 21.5061C35.4971 22.8258 33.2293 23.5163 30.9145 23.4807" stroke="black" stroke-width="1.4" stroke-linecap="round" stroke-linejoin="round"/>
<path d="M38.9298 19.4847C35.6349 30.8184 24.6751 37.5835 14.4631 34.6741C4.25115 31.7648 -1.35726 20.0339 1.94937 8.71188" stroke="black" stroke-width="1.4" stroke-linecap="round" stroke-linejoin="round"/>
<path fill-rule="evenodd" clip-rule="evenodd" d="M21.8593 9.12083C30.0382 11.4577 36.0556 15.664 35.261 18.4682C34.4665 21.2724 27.1639 21.5061 18.9032 19.1108C10.6425 16.7155 4.81205 12.4976 5.55984 9.76346C6.30763 7.02936 13.657 6.72557 21.8593 9.12083Z" stroke="black" stroke-width="1.4" stroke-linecap="round" stroke-linejoin="round"/>
<path d="M14.2762 10.7683L14.58 11.0137" stroke="black" stroke-width="1.4" stroke-linecap="round" stroke-linejoin="round"/>
<path d="M18.1787 11.5161L18.4942 11.7498" stroke="black" stroke-width="1.4" stroke-linecap="round" stroke-linejoin="round"/>
<path d="M17.6179 14.8344L17.9216 15.0798" stroke="black" stroke-width="1.4" stroke-linecap="round" stroke-linejoin="round"/>
<path d="M22.2798 12.7663L22.5953 13" stroke="black" stroke-width="1.4" stroke-linecap="round" stroke-linejoin="round"/>
<path d="M25.7034 17.1829L26.0072 17.4166" stroke="black" stroke-width="1.4" stroke-linecap="round" stroke-linejoin="round"/>
<path d="M26.3927 14.4255L26.6965 14.6591" stroke="black" stroke-width="1.4" stroke-linecap="round" stroke-linejoin="round"/>
<path d="M29.933 17.0193L30.2368 17.253" stroke="black" stroke-width="1.4" stroke-linecap="round" stroke-linejoin="round"/>
<path d="M10.14 10.6515L10.4437 10.8968" stroke="black" stroke-width="1.4" stroke-linecap="round" stroke-linejoin="round"/>
<path d="M13.0493 13.5024L13.3531 13.7478" stroke="black" stroke-width="1.4" stroke-linecap="round" stroke-linejoin="round"/>
<path d="M21.5905 15.921L21.8942 16.1547" stroke="black" stroke-width="1.4" stroke-linecap="round" stroke-linejoin="round"/>
</svg>
