<svg width="40" height="41" viewBox="0 0 40 41" fill="none" xmlns="http://www.w3.org/2000/svg">
<path d="M7.4995 5.6185L38.58 1.96197V2.36803L16.2445 4.99245L15.582 5.07029V5.73733V8.78456V9.53456H16.332H38.58V9.95106H16.332H15.582V10.7011V20.2836V21.0336H16.332H38.5619C38.4162 24.0395 37.3897 26.7974 35.5088 29.3222C33.4677 32.0621 30.8208 34.0688 27.5484 35.4L27.081 35.5901V36.0947V38.6986H13.249V36.0947V35.5912L12.783 35.4005C9.52928 34.0695 6.86181 32.043 4.81972 29.3202C2.94081 26.815 1.91374 24.0429 1.76805 21.0336H6.7495H7.4995V20.2836V5.6185ZM8.59137 5.8918L7.916 5.95934V6.63808V8.78456V9.53456H8.666H10.5825H11.3325V8.78456V6.44643V5.61769L10.5079 5.70015L8.59137 5.8918ZM8.666 9.95106H7.916V10.7011V20.2836V21.0336H8.666H10.5825H11.3325V20.2836V10.7011V9.95106H10.5825H8.666ZM14.4155 21.0336H15.1655V20.2836V10.7011V9.95106H14.4155H12.499H11.749V10.7011V20.2836V21.0336H12.499H14.4155ZM14.4155 9.53456H15.1655V8.78456V6.00564V5.18511L14.3483 5.25866L12.4318 5.43114L11.749 5.49259V6.17812V8.78456V9.53456H12.499H14.4155Z" stroke="black" stroke-width="1.5"/>
</svg>
