<svg width="40" height="46" viewBox="0 0 40 46" fill="none" xmlns="http://www.w3.org/2000/svg">
<path d="M30.4203 14.2309C23.8159 11.1823 16.1864 11.1823 9.58199 14.2309C7.78273 15.0478 5.54033 14.7168 4.45116 13.1524C3.36199 11.5988 4.29633 9.08941 6.6989 7.97888C15.1293 4.08671 24.8731 4.08671 33.3034 7.97888C35.706 9.08407 36.635 11.5988 35.5512 13.1524C34.462 14.7168 32.2249 15.0478 30.4203 14.2309Z" stroke="black" stroke-width="1.5" stroke-linecap="round" stroke-linejoin="round"/>
<path d="M7.03009 14.6527L19.6089 40.8248L34.7932 14.012" stroke="black" stroke-width="1.5" stroke-linecap="round" stroke-linejoin="round"/>
<path d="M15.5725 21.3585C17.1441 21.3585 18.4182 20.0845 18.4182 18.5128C18.4182 16.9412 17.1441 15.6671 15.5725 15.6671C14.0008 15.6671 12.7267 16.9412 12.7267 18.5128C12.7267 20.0845 14.0008 21.3585 15.5725 21.3585Z" stroke="black" stroke-width="1.5" stroke-linecap="round" stroke-linejoin="round"/>
<path d="M21.424 27.4184C22.9957 27.4184 24.2697 26.1444 24.2697 24.5727C24.2697 23.0011 22.9957 21.727 21.424 21.727C19.8524 21.727 18.5783 23.0011 18.5783 24.5727C18.5783 26.1444 19.8524 27.4184 21.424 27.4184Z" stroke="black" stroke-width="1.5" stroke-linecap="round" stroke-linejoin="round"/>
<path d="M28.7865 21.129C29.8804 21.129 30.7672 20.2422 30.7672 19.1482C30.7672 18.0542 29.8804 17.1674 28.7865 17.1674C27.6925 17.1674 26.8057 18.0542 26.8057 19.1482C26.8057 20.2422 27.6925 21.129 28.7865 21.129Z" stroke="black" stroke-width="1.5" stroke-linecap="round" stroke-linejoin="round"/>
<path d="M17.7134 33.5103C18.8074 33.5103 19.6942 32.6234 19.6942 31.5295C19.6942 30.4355 18.8074 29.5487 17.7134 29.5487C16.6194 29.5487 15.7326 30.4355 15.7326 31.5295C15.7326 32.6234 16.6194 33.5103 17.7134 33.5103Z" stroke="black" stroke-width="1.5" stroke-linecap="round" stroke-linejoin="round"/>
<path d="M19.6943 14.279L21.8193 16.4146" stroke="black" stroke-width="1.5" stroke-linecap="round" stroke-linejoin="round"/>
<path d="M24.2752 17.8775L21.8193 19.9383" stroke="black" stroke-width="1.5" stroke-linecap="round" stroke-linejoin="round"/>
<path d="M12.449 25.9288L15.1399 24.2096" stroke="black" stroke-width="1.5" stroke-linecap="round" stroke-linejoin="round"/>
<path d="M24.6915 31.8498L22.7695 29.9438" stroke="black" stroke-width="1.5" stroke-linecap="round" stroke-linejoin="round"/>
</svg>
