<svg width="40" height="30" viewBox="0 0 40 30" fill="none" xmlns="http://www.w3.org/2000/svg">
<g clip-path="url(#clip0_1_18)">
<path d="M11.4704 16.4086C11.1435 16.1835 10.7749 16.0261 10.3862 15.9458C9.99753 15.8654 9.5967 15.8638 9.20738 15.9409C8.81807 16.0181 8.44815 16.1724 8.11947 16.3949C7.79078 16.6173 7.51 16.9034 7.29369 17.2362C6.775 18.0132 6.55743 18.8787 6.56617 20.1375V20.156C6.59628 21.2244 7.10137 22.3764 7.91728 23.2312C8.55835 23.9023 9.38495 24.2714 10.2213 24.2714C10.3197 24.2714 10.4168 24.2666 10.5127 24.2569C11.4441 24.1597 12.2892 23.6003 12.8302 22.7251C14.0706 20.729 13.4198 17.7179 11.4704 16.4086ZM11.349 21.8053C11.0896 22.2229 10.7302 22.4764 10.3359 22.5172C9.94151 22.558 9.52773 22.3832 9.18388 22.0228C8.56807 21.3798 8.33301 20.6183 8.31649 20.1161C8.30969 19.0778 8.48453 18.6028 8.74776 18.2094C8.83883 18.0686 8.95686 17.9472 9.09506 17.8522C9.23326 17.7571 9.38889 17.6904 9.55299 17.6558C9.71571 17.6257 9.8828 17.6282 10.0445 17.6632C10.2063 17.6982 10.3595 17.765 10.4952 17.8598C11.6481 18.6339 12.0784 20.6251 11.349 21.8053Z" fill="black"/>
<path d="M20.2783 18.4387C20.2793 18.3965 20.2773 18.3543 20.2725 18.3124C20.2443 18.0793 20.22 17.8462 20.1967 17.6131C20.1433 17.0837 20.087 16.5378 19.984 15.99C19.3725 12.7474 18.0084 9.69359 16.0016 7.07422C14.7768 5.46086 13.3742 3.7999 11.4519 2.65762C10.2863 1.96604 9.16641 1.58917 8.02316 1.50175C6.13686 1.35994 4.41082 2.69648 3.91933 4.6838C3.82937 5.07462 3.75967 5.46983 3.71049 5.86784C3.68136 6.07376 3.65416 6.26803 3.62113 6.45938C3.29053 8.35732 2.62062 10.1802 1.64352 11.8405C0.205819 14.2469 -0.315315 17.0912 0.175855 19.851C0.777104 23.4157 2.53714 26.186 5.41031 28.0839C6.91506 29.0867 8.68206 29.6235 10.4903 29.6273C11.0166 29.6273 11.5418 29.5811 12.06 29.4894C14.3688 29.0733 16.4299 27.7869 17.818 25.8955C19.3964 23.7635 20.2035 21.3245 20.2783 18.4387ZM16.4096 24.8494C14.024 28.0625 9.70744 28.8241 6.37386 26.6211C3.88533 24.9844 2.42835 22.6717 1.89995 19.5606C1.48102 17.2051 1.92556 14.7776 3.15198 12.7234C4.23432 10.8824 4.97627 8.86156 5.34232 6.75757C5.3802 6.53805 5.41128 6.32145 5.43945 6.11067C5.48097 5.7712 5.53965 5.43404 5.61526 5.1005C5.88723 4.00096 6.77016 3.24042 7.75216 3.24042C7.79879 3.24042 7.8493 3.24042 7.89398 3.24042C8.774 3.30647 9.62099 3.59786 10.5612 4.15637C12.2251 5.14518 13.4927 6.64879 14.6146 8.12617C16.4556 10.5303 17.7068 13.3329 18.2677 16.3086C18.3571 16.7836 18.4066 17.2702 18.462 17.785C18.4843 18.0026 18.5076 18.2269 18.5329 18.4503C18.4552 20.9418 17.7597 23.035 16.4096 24.8533V24.8494Z" fill="black"/>
<path d="M39.9544 4.47592C39.8786 3.64933 39.6824 2.42838 38.8665 1.38129C38.1225 0.427454 37.0987 0.198222 36.0575 0.751876C35.5908 1.00199 35.1534 1.30299 34.753 1.64938C33.6097 2.63333 32.2343 3.07819 30.5481 3.00923C28.9648 2.93684 27.3957 2.67598 25.8741 2.23217C22.3055 1.20743 18.4843 0.202108 14.4494 0.125373C13.9084 0.118574 13.3635 0.118574 12.8351 0.118574H12.1008C11.9183 0.117573 11.74 0.173727 11.591 0.279161C11.442 0.384594 11.3298 0.534018 11.27 0.706477C11.2102 0.878935 11.2059 1.06578 11.2577 1.2408C11.3095 1.41582 11.4148 1.57024 11.5588 1.6824C11.8599 1.92232 12.1629 2.14864 12.4553 2.36816C13.0614 2.82176 13.6345 3.25109 14.125 3.73578C17.4771 7.04604 19.6616 10.8896 20.6261 15.1605C21.4585 18.8583 20.9835 22.1608 19.1691 25.2564C18.934 25.6575 18.6533 26.0451 18.3571 26.456C18.2153 26.6502 18.0657 26.8552 17.9239 27.063C17.8329 27.1941 17.7796 27.3476 17.7696 27.5069C17.7597 27.6661 17.7935 27.8251 17.8675 27.9665C17.9414 28.1079 18.0527 28.2263 18.1891 28.309C18.3256 28.3917 18.4821 28.4354 18.6417 28.4355C18.6591 28.4355 18.6854 28.4355 18.7174 28.4355C18.8385 28.4358 18.9584 28.413 19.071 28.3685C19.1681 28.3306 19.2653 28.2888 19.3896 28.2315C23.2137 26.5094 26.4627 23.9033 29.3243 20.2667C30.6394 18.5931 31.8332 16.6184 33.0804 14.0502C33.5758 12.9937 34.3553 12.0957 35.3319 11.4568C35.632 11.2625 35.9448 11.0683 36.2478 10.8808C36.5509 10.6934 36.8384 10.5146 37.1347 10.3243C37.8534 9.8619 38.5916 9.32185 39.1375 8.50594C40.0739 7.10335 40.0525 5.53466 39.9544 4.47592ZM37.6873 7.53947C37.3192 8.08341 36.751 8.49622 36.1915 8.86047C35.9079 9.04308 35.6087 9.22569 35.328 9.4015C35.0191 9.59576 34.6996 9.79002 34.3858 9.994C33.139 10.8063 32.1431 11.9499 31.5097 13.2965C30.3189 15.7481 29.1883 17.6218 27.9518 19.1953C25.9004 21.8033 23.6449 23.8421 21.1049 25.3749C22.7708 22.1316 23.1845 18.5756 22.3307 14.7875C21.2943 10.1737 18.9467 6.04364 15.3528 2.49151C15.1362 2.27782 14.9079 2.07482 14.6728 1.88055C18.4066 1.99031 22.0131 2.94221 25.3924 3.90673C27.0476 4.39001 28.7546 4.67402 30.4772 4.75275C32.5976 4.83823 34.4198 4.23892 35.8933 2.97037C36.1955 2.70807 36.5258 2.48004 36.8782 2.29045C37.1259 2.15835 37.2435 2.13795 37.4873 2.45169C37.8991 2.98009 38.1235 3.65224 38.2138 4.63133C38.3313 5.91639 38.173 6.81195 37.6873 7.53947Z" fill="black"/>
</g>
<defs>
<clipPath id="clip0_1_18">
<rect width="40" height="29.5088" fill="white" transform="translate(0 0.118561)"/>
</clipPath>
</defs>
</svg>
