<svg width="40" height="36" viewBox="0 0 40 36" fill="none" xmlns="http://www.w3.org/2000/svg">
<g clip-path="url(#clip0_3_37)">
<path d="M16.9588 0.118561H18.2892C18.9263 0.31734 19.5617 0.518467 20.1995 0.712551C20.2715 0.732174 20.3478 0.728891 20.4179 0.703159C20.9047 0.509858 21.3914 0.31421 21.8798 0.118561H22.8189C22.876 0.144986 22.9348 0.167472 22.995 0.185864C24.4287 0.509858 25.3451 1.38089 25.7599 2.79738C25.8312 2.98381 25.959 3.14331 26.1253 3.25364C27.1372 3.96658 27.8056 4.90726 28.0756 6.11715C28.1538 6.45445 28.1883 6.79958 28.2423 7.14079C29.5281 7.19009 30.6245 7.63304 31.5221 8.53068C32.4198 9.42831 32.8525 10.5506 32.9073 11.8317H33.8394C34.7863 11.8317 35.2348 12.2738 35.2348 13.2082C35.2348 15.46 35.2348 17.7116 35.2348 19.9628C35.2418 21.5008 34.9728 23.0276 34.4404 24.4706C34.2667 24.9401 34.0577 25.3948 33.8519 25.8871C35.4054 25.8871 36.915 25.9121 38.4238 25.8761C39.1509 25.8589 39.6869 26.0694 39.9984 26.7456V27.3717C39.6854 28.0478 39.1501 28.2536 38.4238 28.2411C36.4846 28.209 34.5445 28.2247 32.6052 28.2411C32.4091 28.2567 32.2236 28.3368 32.0778 28.4689C31.7968 28.7185 31.5706 29.0292 31.2952 29.2867C28.7126 31.7072 25.6566 32.9383 22.102 32.9187C19.5375 32.9054 16.9729 32.9187 14.4091 32.9109C14.1145 32.9003 13.8272 33.0044 13.6077 33.2012C11.0213 35.3612 8.10218 35.8988 5.00858 34.577C1.89307 33.2442 0.243361 30.7462 0.031278 27.3474C0.0109305 27.0211 0.187797 26.6838 0.250405 26.348C0.279 26.2185 0.27388 26.0837 0.235535 25.9567C-0.0622562 25.1436 -0.0586465 24.2506 0.245709 23.4399C0.312806 23.2241 0.333345 22.9966 0.305969 22.7723C0.219883 21.8645 0.0398865 20.9638 0.023452 20.0591C-0.0180255 17.7567 0.00780011 15.4527 0.0109305 13.1496C0.0109305 12.2887 0.480487 11.8371 1.3476 11.8317C1.67942 11.8317 2.01124 11.8317 2.34385 11.8317C2.40019 10.5709 2.80401 9.51675 3.62026 8.62302C3.70478 8.52989 3.71965 8.31468 3.68287 8.17851C3.32287 6.8481 3.59287 5.6562 4.55703 4.68657C5.53292 3.70519 6.7342 3.42972 8.0787 3.79441C8.15952 3.81153 8.24303 3.81161 8.32388 3.79463C8.40473 3.77765 8.48115 3.74399 8.54826 3.6958C9.69085 2.71208 10.9931 2.29183 12.4886 2.54617C12.7461 2.59 12.887 2.51565 13.0364 2.31922C13.614 1.57654 14.3324 0.995067 15.2081 0.650725C15.7787 0.426903 16.3766 0.292297 16.9588 0.118561ZM16.2545 25.8706C16.3523 25.8769 16.429 25.8863 16.5057 25.8863C21.2821 25.8863 26.0578 25.8826 30.8327 25.8753C30.9837 25.8753 31.1895 25.7384 31.2748 25.6053C32.3705 23.8836 32.8924 21.9897 32.894 19.9519C32.894 18.1566 32.894 16.3613 32.894 14.566C32.894 14.4416 32.8831 14.3172 32.8776 14.2029H2.37124V19.5183C2.3903 19.4831 2.40653 19.4465 2.41976 19.4087C2.94879 16.809 5.81857 15.6773 7.95897 17.2386C8.20783 17.4202 8.34009 17.3169 8.52478 17.183C10.3975 15.8018 13.164 16.7072 13.877 18.9251C14.1302 19.6939 14.113 20.5261 13.8284 21.2838C16.1512 22.5595 16.5785 23.3616 16.2529 25.8706H16.2545ZM4.70494 11.8051H30.5306C30.4852 10.4934 29.5375 9.54414 28.2321 9.49405C27.7516 9.47527 27.2687 9.50501 26.7882 9.48153C26.0267 9.44396 25.5415 8.79754 25.6926 8.05016C25.7262 7.88503 25.781 7.72382 25.8115 7.55791C25.9446 6.82775 25.7489 6.1915 25.2739 5.61238C23.9943 7.22296 22.3548 7.44287 21.0479 6.87784C19.2479 6.09994 18.6296 4.6357 18.9145 2.7246C18.0998 2.428 17.2898 2.36539 16.4697 2.65182C15.6106 2.94407 14.8972 3.55624 14.478 4.36101C14.0186 5.20934 13.5498 5.3729 12.6459 5.02465C12.5974 5.00587 12.5505 4.98317 12.5019 4.96517C11.7796 4.69048 11.0995 4.79535 10.4484 5.18665C10.2089 5.33064 10.1213 5.46603 10.2543 5.77672C10.7763 6.99914 10.6331 8.18399 9.83485 9.23736C8.79243 10.6116 7.18889 11.0045 5.58379 10.333C5.38736 10.25 5.28327 10.2727 5.16432 10.4402C4.87373 10.8367 4.71323 11.3135 4.70494 11.8051ZM2.51367 28.2396C2.87366 30.5091 5.17449 33.1018 8.60461 32.8976C11.1919 32.741 13.8856 30.3698 13.8918 28.2396H2.51367ZM28.9309 28.245H16.3867C16.152 29.0339 15.9172 29.7938 15.6941 30.5459C18.1264 30.5459 20.5595 30.5584 22.9918 30.5357C23.5201 30.531 24.053 30.4285 24.5735 30.3197C26.159 29.9894 27.5872 29.3094 28.927 28.2482L28.9309 28.245ZM23.517 3.64024C23.519 3.40894 23.4523 3.18224 23.3255 2.98883C23.1986 2.79541 23.0172 2.64398 22.8042 2.55368C22.5913 2.46338 22.3563 2.43827 22.1291 2.48153C21.9019 2.5248 21.6926 2.63449 21.5277 2.79673C21.3629 2.95897 21.2498 3.16647 21.2029 3.39297C21.156 3.61947 21.1773 3.8548 21.2642 4.06918C21.351 4.28356 21.4996 4.46735 21.6909 4.59731C21.8823 4.72727 22.1078 4.79755 22.3392 4.79926C22.6481 4.7987 22.9445 4.67699 23.1648 4.46029C23.385 4.24358 23.5114 3.94915 23.517 3.64024ZM5.86944 7.11418C5.86303 7.34533 5.9253 7.57319 6.04839 7.76895C6.17148 7.96471 6.34985 8.11957 6.56095 8.21396C6.77205 8.30835 7.0064 8.33802 7.23436 8.29922C7.46232 8.26042 7.67366 8.15489 7.84165 7.99599C8.00964 7.83708 8.12674 7.63193 8.17813 7.40647C8.22953 7.18102 8.21292 6.94538 8.1304 6.72937C8.04789 6.51335 7.90317 6.32665 7.71454 6.19289C7.52592 6.05912 7.30187 5.98429 7.07072 5.97785C6.76159 5.9723 6.46262 6.08821 6.23801 6.30068C6.0134 6.51314 5.88107 6.80522 5.86944 7.11418ZM7.0355 20.027C7.03504 19.7957 6.96599 19.5698 6.8371 19.3777C6.7082 19.1857 6.52525 19.0362 6.31139 18.9482C6.09752 18.8601 5.86235 18.8375 5.63562 18.8831C5.40889 18.9288 5.20078 19.0406 5.03763 19.2045C4.87447 19.3685 4.7636 19.5771 4.71903 19.804C4.67446 20.031 4.6982 20.266 4.78724 20.4795C4.87628 20.6929 5.02663 20.8752 5.21926 21.0032C5.41189 21.1312 5.63816 21.1992 5.86944 21.1985C6.1783 21.1953 6.47355 21.071 6.69174 20.8523C6.90993 20.6337 7.03364 20.3382 7.03629 20.0293L7.0355 20.027ZM10.5486 21.1962C10.7796 21.1971 11.0058 21.1295 11.1984 21.0019C11.391 20.8744 11.5415 20.6925 11.6309 20.4794C11.7202 20.2663 11.7443 20.0315 11.7002 19.8047C11.6561 19.5779 11.5457 19.3693 11.383 19.2052C11.2204 19.0411 11.0127 18.9289 10.7863 18.8828C10.5599 18.8368 10.3249 18.8588 10.111 18.9463C9.89715 19.0338 9.71401 19.1827 9.58476 19.3742C9.4555 19.5657 9.38594 19.7912 9.38485 20.0223C9.38545 20.3321 9.50796 20.6291 9.72588 20.8492C9.94381 21.0694 10.2396 21.1948 10.5494 21.1985L10.5486 21.1962ZM3.51304 25.8839C3.74409 25.8861 3.97058 25.8197 4.16389 25.6932C4.35721 25.5666 4.50866 25.3856 4.59911 25.173C4.68956 24.9604 4.71494 24.7257 4.67204 24.4987C4.62915 24.2716 4.5199 24.0624 4.35812 23.8974C4.19633 23.7325 3.98927 23.6192 3.76311 23.5719C3.53695 23.5246 3.30184 23.5454 3.08752 23.6317C2.87319 23.718 2.68926 23.8659 2.55898 24.0568C2.4287 24.2476 2.35792 24.4727 2.35559 24.7038C2.35553 25.0129 2.47675 25.3097 2.69318 25.5304C2.90962 25.751 3.204 25.878 3.51304 25.8839ZM8.20079 23.5471C7.96974 23.5491 7.74448 23.6196 7.55349 23.7496C7.36249 23.8797 7.21433 24.0634 7.12774 24.2776C7.04115 24.4918 7.02001 24.7269 7.067 24.9531C7.114 25.1793 7.22701 25.3866 7.39175 25.5486C7.55649 25.7106 7.76557 25.8201 7.99254 25.8633C8.21952 25.9065 8.45422 25.8814 8.66695 25.7913C8.87969 25.7011 9.06091 25.5499 9.18772 25.3567C9.31453 25.1636 9.38122 24.9372 9.37938 24.7061C9.37384 24.3971 9.24728 24.1025 9.02689 23.8858C8.80651 23.6691 8.50989 23.5475 8.20079 23.5471ZM12.8885 23.5471C12.6573 23.5482 12.4317 23.6178 12.2401 23.7472C12.0485 23.8766 11.8996 24.06 11.8122 24.274C11.7249 24.4881 11.703 24.7232 11.7493 24.9497C11.7957 25.1762 11.9082 25.3839 12.0726 25.5464C12.237 25.7089 12.4459 25.8191 12.6729 25.8628C12.8999 25.9066 13.1348 25.882 13.3478 25.7922C13.5609 25.7024 13.7425 25.5514 13.8697 25.3584C13.9969 25.1653 14.064 24.9389 14.0624 24.7077C14.0575 24.3991 13.9318 24.1048 13.7124 23.8878C13.4929 23.6708 13.1971 23.5485 12.8885 23.5471Z" fill="black"/>
</g>
<defs>
<clipPath id="clip0_3_37">
<rect width="40" height="35.1745" fill="white" transform="translate(0 0.118561)"/>
</clipPath>
</defs>
</svg>
