<svg width="40" height="41" viewBox="0 0 40 41" fill="none" xmlns="http://www.w3.org/2000/svg">
<path d="M13.846 9.78456C14.4615 8.64671 15.3803 7.70169 16.5004 7.0544C17.6205 6.40711 18.898 6.08287 20.1912 6.11768C21.4844 6.15249 22.7427 6.54497 23.8263 7.25158C24.91 7.95818 25.7766 8.95125 26.33 10.1206C24.8732 10.1534 23.4575 10.6099 22.2559 11.4342C21.0543 12.2586 20.1189 13.4152 19.564 14.7626C19.0516 13.9102 18.4386 13.1225 17.738 12.4166C16.6113 11.3101 15.2924 10.4182 13.846 9.78456ZM33.984 18.1186C33.9947 17.9532 34 17.7866 34 17.6186C34.0007 15.9935 33.4735 14.4121 32.4978 13.1125C31.5221 11.8129 30.1507 10.8654 28.59 10.4126C28.051 8.70477 27.0149 7.19652 25.6142 6.0806C24.2136 4.96468 22.5119 4.29179 20.7269 4.14794C18.9418 4.00408 17.1544 4.3958 15.5931 5.27303C14.0318 6.15025 12.7676 7.47313 11.962 9.07256C11.1665 8.82488 10.3562 8.62716 9.53603 8.48056C8.14874 8.23133 6.74149 8.11015 5.33203 8.11856L4.96403 8.13056H4.95603C4.71138 8.14484 4.4805 8.24847 4.30722 8.42175C4.13393 8.59503 4.03031 8.82591 4.01603 9.07056V9.07256L4.00003 9.44856C3.99059 10.86 4.1111 12.2692 4.36003 13.6586C4.60603 15.0226 5.02203 16.5866 5.73003 18.1186H5.00003C4.73481 18.1186 4.48045 18.2239 4.29292 18.4115C4.10538 18.599 4.00003 18.8533 4.00003 19.1186V20.1186C4.00003 24.362 5.68573 28.4317 8.68632 31.4323C11.6869 34.4328 15.7566 36.1186 20 36.1186C24.2435 36.1186 28.3132 34.4328 31.3137 31.4323C34.3143 28.4317 36 24.362 36 20.1186V19.1186C36 18.8533 35.8947 18.599 35.7071 18.4115C35.5196 18.2239 35.2652 18.1186 35 18.1186H33.984ZM7.96803 18.1186C7.10003 16.5546 6.60403 14.8406 6.32803 13.3026C6.13939 12.2523 6.03108 11.1892 6.00403 10.1226L6.23203 10.1306C6.97603 10.1566 8.01203 10.2366 9.18003 10.4486C11.54 10.8746 14.312 11.8186 16.324 13.8306C17.556 15.0626 18.39 16.5826 18.95 18.1186H15.416L11.708 14.4106C11.615 14.3177 11.5047 14.2441 11.3833 14.1939C11.2618 14.1437 11.1317 14.1179 11.0003 14.118C10.8689 14.1181 10.7388 14.1441 10.6175 14.1944C10.4961 14.2448 10.3859 14.3186 10.293 14.4116C10.2002 14.5045 10.1266 14.6149 10.0764 14.7363C10.0262 14.8577 10.0004 14.9879 10.0005 15.1193C10.0006 15.2507 10.0265 15.3808 10.0769 15.5021C10.1273 15.6235 10.201 15.7337 10.294 15.8266L12.588 18.1186H7.96803ZM21.064 18.1186L21.01 17.9566C20.9665 17.202 21.079 16.4466 21.3404 15.7375C21.6018 15.0284 22.0065 14.3807 22.5294 13.835C23.0522 13.2892 23.6819 12.8571 24.3792 12.5655C25.0765 12.274 25.8264 12.1293 26.5821 12.1404C27.3378 12.1516 28.0831 12.3184 28.7715 12.6304C29.4598 12.9424 30.0765 13.3929 30.583 13.9539C31.0895 14.5148 31.475 15.1742 31.7154 15.8907C31.9557 16.6072 32.0458 17.3656 31.98 18.1186H21.064ZM6.00003 20.1186H34C34 21.5086 33.798 22.8506 33.42 24.1186H6.58003C6.19423 22.8203 5.99886 21.4729 6.00003 20.1186ZM20 34.1186C17.3502 34.1191 14.7547 33.3676 12.515 31.9515C10.2754 30.5353 8.48365 28.5127 7.34803 26.1186H32.652C31.5164 28.5127 29.7246 30.5353 27.485 31.9515C25.2454 33.3676 22.6498 34.1191 20 34.1186Z" fill="black"/>
</svg>
