<svg width="40" height="26" viewBox="0 0 40 26" fill="none" xmlns="http://www.w3.org/2000/svg">
<g clip-path="url(#clip0_3_51)">
<mask id="mask0_3_51" style="mask-type:luminance" maskUnits="userSpaceOnUse" x="0" y="0" width="40" height="26">
<path d="M40 0.118561H0V25.4319H40V0.118561Z" fill="white"/>
</mask>
<g mask="url(#mask0_3_51)">
<path d="M37.278 9.1528C35.3377 7.48223 33.0952 6.19891 30.672 5.37226H30.6676H30.6604C29.5063 4.96849 28.32 4.66327 27.1143 4.45986C25.2692 2.30878 22.7816 0.807648 20.0184 0.177892C19.6863 0.101439 19.3413 0.100937 19.009 0.176424C18.6767 0.25191 18.3657 0.401437 18.0992 0.613857C17.8328 0.826276 17.6177 1.09611 17.47 1.40323C17.3224 1.71035 17.246 2.04684 17.2465 2.38761V5.60596C14.0765 7.08816 11.2125 9.15141 8.80268 11.6888C8.55091 10.2107 7.86944 8.8395 6.84331 7.74622C4.59234 5.49454 0.969531 5.5886 0.817586 5.59294C0.603045 5.59981 0.399156 5.68805 0.247308 5.83977C0.0954598 5.99148 0.00703177 6.19529 -2.56157e-05 6.40983C-2.56157e-05 6.56177 -0.0955341 10.1839 2.15471 12.4341C2.69206 12.9629 3.31864 13.3925 4.00555 13.7032C3.31961 14.0197 2.69346 14.4522 2.15471 14.9817C-0.0955341 17.2334 -2.56157e-05 20.8555 -2.56157e-05 21.0082C0.00686105 21.2228 0.0952343 21.4267 0.247118 21.5784C0.399002 21.7302 0.602989 21.8184 0.817586 21.8251C0.832057 21.8251 0.876917 21.8251 0.950719 21.8251C1.64316 21.8251 4.80652 21.7086 6.84331 19.6703C7.88001 18.5569 8.56359 17.1613 8.80775 15.6597C10.4807 17.3923 12.3528 18.9209 14.3849 20.2137V23.1622C14.3852 23.7626 14.6234 24.3384 15.0473 24.7637C15.4712 25.1889 16.0463 25.4289 16.6467 25.4312C16.8692 25.4313 17.0905 25.3989 17.3037 25.335C18.8728 24.8485 20.3337 24.0646 21.6066 23.0261C22.285 23.1267 22.9699 23.178 23.6557 23.1795C25.9878 23.1747 28.3031 22.7852 30.5084 22.0269H30.5128C35.7448 20.2448 40 16.4976 40 13.6728C40 12.3256 39.0348 10.7207 37.2787 9.15353M3.34929 11.241C2.39674 10.1473 1.83006 8.77094 1.73649 7.32367C3.18343 7.41575 4.55936 7.98352 5.65017 8.93863C6.5972 10.0148 7.16437 11.3724 7.26441 12.8024C5.8205 12.7389 4.44058 12.1886 3.34929 11.241ZM5.6509 18.4765C4.55824 19.4286 3.18279 19.9951 1.73649 20.0885C1.8312 18.6413 2.39859 17.2653 3.35146 16.172C4.44516 15.2192 5.82138 14.6519 7.26875 14.557C7.17656 16.0051 6.60857 17.3822 5.65307 18.4743M18.9338 2.38761C18.9335 2.29957 18.9533 2.21262 18.9917 2.13338C19.03 2.05414 19.086 1.98469 19.1552 1.93033C19.2217 1.87639 19.2996 1.83848 19.3831 1.81953C19.4665 1.80059 19.5532 1.80111 19.6364 1.82107C21.3908 2.23134 23.028 3.0377 24.4227 4.1784C24.1665 4.16827 23.9104 4.16248 23.6564 4.16248C22.0502 4.17491 20.4561 4.44359 18.9345 4.95839L18.9338 2.38761ZM16.8218 23.7179C16.7349 23.7441 16.6431 23.7495 16.5537 23.7336C16.4643 23.7178 16.3799 23.6812 16.3073 23.6267C16.2342 23.5735 16.1749 23.5036 16.1344 23.4228C16.0938 23.3419 16.0732 23.2526 16.0744 23.1622V21.1739C17.1391 21.7293 18.2534 22.1839 19.4027 22.532C18.5988 23.0405 17.7303 23.4386 16.8203 23.7157M23.6543 21.4893C22.9316 21.4876 22.2105 21.4236 21.4988 21.2983C19.4299 20.9002 17.4515 20.126 15.6619 19.0141C13.2844 17.5483 11.1301 15.7483 9.26503 13.6692C10.4661 12.3256 13.9377 8.75702 18.4042 6.94019L18.4216 6.93368C20.0795 6.23862 21.856 5.87011 23.6535 5.84835C24.6146 5.84871 25.5744 5.92127 26.5246 6.06542C27.2583 6.1781 27.9851 6.33149 28.7017 6.52487C26.8669 8.52891 25.8364 11.1396 25.8075 13.8566C25.8768 16.4421 26.8678 18.9177 28.6019 20.8367C26.9879 21.2663 25.3251 21.4852 23.655 21.4879M30.4122 20.2673C29.5233 19.4481 28.8072 18.4594 28.3062 17.3593C27.8052 16.2592 27.5293 15.07 27.4949 13.8617C27.5094 12.5888 27.7868 11.3327 28.3098 10.1721C28.8327 9.01152 29.5899 7.97156 30.5338 7.11746C35.3649 8.92633 38.3119 12.11 38.3119 13.6728C38.3119 15.2596 35.3193 18.4736 30.4122 20.2723" fill="black"/>
<path d="M33.5285 12.6389C33.3046 12.6389 33.0898 12.7278 32.9315 12.8862C32.7731 13.0445 32.6841 13.2593 32.6841 13.4832V13.8609C32.6841 13.9717 32.706 14.0814 32.7484 14.1838C32.7908 14.2861 32.8529 14.3791 32.9312 14.4575C33.0096 14.5358 33.1026 14.598 33.2049 14.6404C33.3073 14.6828 33.417 14.7046 33.5278 14.7046C33.6386 14.7046 33.7483 14.6828 33.8507 14.6404C33.953 14.598 34.046 14.5358 34.1244 14.4575C34.2027 14.3791 34.2648 14.2861 34.3072 14.1838C34.3496 14.0814 34.3715 13.9717 34.3715 13.8609V13.4832C34.3716 13.3724 34.3498 13.2627 34.3075 13.1603C34.2652 13.0579 34.2031 12.9649 34.1249 12.8865C34.0466 12.8081 33.9536 12.7458 33.8513 12.7034C33.749 12.6609 33.6393 12.6389 33.5285 12.6389Z" fill="black"/>
<path d="M24.7888 7.99945C24.7085 7.92298 24.6139 7.8631 24.5105 7.82323C24.407 7.78336 24.2967 7.7643 24.1859 7.76712C24.0751 7.76994 23.9659 7.7946 23.8646 7.83968C23.7633 7.88476 23.6719 7.94938 23.5956 8.02984C23.5146 8.11522 23.435 8.20494 23.3583 8.29538C23.2242 8.46783 23.1622 8.68551 23.1853 8.90272C23.2083 9.11993 23.3146 9.31975 23.4819 9.46023C23.6491 9.60071 23.8643 9.6709 24.0823 9.65607C24.3002 9.64125 24.5039 9.54255 24.6506 9.38071C24.7048 9.31559 24.7627 9.25047 24.8206 9.18969C24.897 9.10937 24.9568 9.01476 24.9967 8.91129C25.0365 8.80781 25.0555 8.6975 25.0526 8.58667C25.0497 8.47584 25.025 8.36667 24.9798 8.2654C24.9347 8.16414 24.87 8.07278 24.7895 7.99656" fill="black"/>
<path d="M24.6918 18.3231C23.6861 17.0442 23.1635 15.4516 23.2158 13.8255C23.2104 12.8595 23.3808 11.9007 23.7187 10.9957C23.7602 10.892 23.7808 10.781 23.7791 10.6693C23.7775 10.5575 23.7536 10.4472 23.709 10.3448C23.6643 10.2423 23.5997 10.1498 23.519 10.0725C23.4383 9.99518 23.343 9.93469 23.2388 9.89453C23.1345 9.85437 23.0232 9.83532 22.9115 9.83851C22.7998 9.84169 22.6898 9.86704 22.588 9.91308C22.4862 9.95911 22.3945 10.0249 22.3183 10.1067C22.2421 10.1884 22.183 10.2845 22.1442 10.3894C21.7318 11.4878 21.5229 12.6522 21.5277 13.8255C21.4772 15.8569 22.1464 17.8407 23.4169 19.4265C23.4896 19.5102 23.578 19.5788 23.6771 19.6283C23.7763 19.6779 23.8842 19.7074 23.9948 19.7152C24.1053 19.723 24.2164 19.709 24.3215 19.6739C24.4266 19.6389 24.5238 19.5834 24.6075 19.5108C24.6912 19.4381 24.7598 19.3497 24.8094 19.2506C24.8589 19.1514 24.8884 19.0435 24.8963 18.9329C24.9041 18.8224 24.8901 18.7114 24.855 18.6062C24.8199 18.5011 24.7645 18.4039 24.6918 18.3202" fill="black"/>
</g>
</g>
<defs>
<clipPath id="clip0_3_51">
<rect width="40" height="25.3134" fill="white" transform="translate(0 0.118561)"/>
</clipPath>
</defs>
</svg>
