<svg width="40" height="41" viewBox="0 0 40 41" fill="none" xmlns="http://www.w3.org/2000/svg">
<path d="M33.4431 29.5713H6.66298L3.94592 24.5703H36.0491L33.4431 29.5713Z" stroke="black" stroke-width="1.3" stroke-miterlimit="10"/>
<path d="M37.7694 19.8174H2.23057C1.53746 19.8174 0.975586 20.3934 0.975586 21.1038V23.284C0.975586 23.9944 1.53746 24.5703 2.23057 24.5703H37.7694C38.4625 24.5703 39.0244 23.9944 39.0244 23.284V21.1038C39.0244 20.3934 38.4625 19.8174 37.7694 19.8174Z" stroke="black" stroke-width="1.3" stroke-miterlimit="10"/>
<path d="M10.3967 19.8174H4.88025V14.1631H7.63847H10.3967V19.8174Z" stroke="black" stroke-width="1.3" stroke-miterlimit="10"/>
<path d="M7.63843 11.208V14.1631" stroke="black" stroke-width="1.3" stroke-miterlimit="10"/>
<path d="M19.9326 19.8174H12.4288V15.8433C12.4288 14.9149 13.1624 14.1631 14.068 14.1631H18.2933C19.199 14.1631 19.9326 14.9149 19.9326 15.8433V19.8174Z" stroke="black" stroke-width="1.3" stroke-miterlimit="10"/>
<path d="M16.1951 10.0598V14.1631" stroke="black" stroke-width="1.3" stroke-miterlimit="10"/>
<path d="M27.5985 19.8174H22.082V14.1631H24.8403H27.5985V19.8174Z" stroke="black" stroke-width="1.3" stroke-miterlimit="10"/>
<path d="M24.8402 11.208V14.1631" stroke="black" stroke-width="1.3" stroke-miterlimit="10"/>
<path d="M37.1345 19.8174H29.6307V15.8433C29.6307 14.9149 30.3643 14.1631 31.27 14.1631H35.4952C36.4009 14.1631 37.1345 14.9149 37.1345 15.8433V19.8174Z" stroke="black" stroke-width="1.3" stroke-miterlimit="10"/>
<path d="M33.3969 10.0598V14.1631" stroke="black" stroke-width="1.3" stroke-miterlimit="10"/>
</svg>
