<svg width="40" height="41" viewBox="0 0 40 41" fill="none" xmlns="http://www.w3.org/2000/svg">
<g clip-path="url(#clip0_12_91)">
<path d="M39 24.8686L37.2457 23.4773C35.2486 21.894 34.25 21.1023 34.25 20.1186C34.25 19.1348 35.2486 18.3431 37.2457 16.7598L39 15.3686M1 15.3686L2.75433 16.7598C4.75144 18.3431 5.75 19.1348 5.75 20.1186C5.75 21.1023 4.75144 21.894 2.75433 23.4773L1 24.8686M25.4298 39.1186L25.7591 36.8829C26.1349 34.339 26.3228 33.0681 27.182 32.572C28.0412 32.0738 29.234 32.5488 31.6238 33.4946L33.7222 34.3263M14.5702 1.11856L14.2409 3.35423C13.8651 5.89812 13.6772 7.16901 12.818 7.66512C11.9588 8.16334 10.766 7.68834 8.37622 6.74256L6.27778 5.91078M5.22222 34.3306L7.48111 33.4967C10.0524 32.5509 11.3381 32.078 12.2628 32.572C13.1874 33.066 13.388 34.3411 13.7912 36.8829L14.1459 39.1186M34.7778 5.90656L32.5189 6.73834C29.9476 7.68834 28.6598 8.15912 27.7372 7.66512C26.8147 7.17112 26.612 5.89601 26.2088 3.35423L25.8541 1.11856M34.7778 20.1186H5.22222M27.3889 32.7852L12.6111 7.45189M27.3889 7.45189L12.6111 32.7852" stroke="black" stroke-width="1.5" stroke-linecap="round" stroke-linejoin="round"/>
</g>
<defs>
<clipPath id="clip0_12_91">
<rect width="40" height="40" fill="white" transform="translate(0 0.118561)"/>
</clipPath>
</defs>
</svg>
