<svg width="40" height="41" viewBox="0 0 40 41" fill="none" xmlns="http://www.w3.org/2000/svg">
<g clip-path="url(#clip0_3_41)">
<path d="M12.9797 40.1029C12.1451 40.0247 11.297 39.9652 10.4603 39.864C7.85231 39.551 5.30895 38.9762 3.02222 37.594C2.07707 37.0233 1.25188 36.3181 0.644732 35.3792C0.276625 34.838 0.0604684 34.2079 0.0188032 33.5546C-0.0124932 32.8244 0.331768 32.2454 1.03072 32.0764C1.67357 31.922 2.33436 31.8554 2.9951 31.8782C4.59434 31.9377 6.18838 32.1108 7.78658 32.1713C10.8442 32.2882 13.904 32.3184 16.9199 31.6675C19.5342 31.1031 21.8689 30.0098 23.6831 27.9745C25.2354 26.2323 26.1732 24.1678 26.7084 21.9301C27.1017 20.2756 27.3437 18.5856 27.663 16.9133C27.906 15.6343 28.1752 14.3522 28.8022 13.2005C29.3937 12.1145 30.1396 11.1193 30.7843 10.0635C31.0972 9.54192 31.6825 9.17575 32.1895 8.80019C32.5024 8.56756 32.6694 8.34118 32.6704 7.94163C32.6704 6.77114 32.6589 5.59648 32.7424 4.43017C32.9135 2.03912 34.5357 0.415873 36.9152 0.191582C37.3544 0.149853 37.8051 0.0872602 38.2359 0.144637C39.1748 0.26565 39.709 0.890536 39.999 1.75327V2.53464C39.9693 2.57325 39.9438 2.61486 39.9228 2.65879C39.5817 3.61228 38.9412 4.08069 37.9355 4.1099C37.7801 4.1099 37.6225 4.11616 37.4692 4.13389C36.8433 4.20796 36.7076 4.31228 36.6878 4.92778C36.6537 5.99255 36.6506 7.05802 36.6784 8.12419C36.6891 8.23706 36.7244 8.3462 36.782 8.4439C36.8395 8.54161 36.9177 8.62549 37.0112 8.68961C38.3674 9.41986 38.8285 10.7301 39.2927 12.0477C39.3292 12.1321 39.3347 12.2267 39.3084 12.3148C39.1237 12.6778 39.3084 12.9824 39.42 13.309C39.5361 13.6259 39.6248 13.9523 39.685 14.2844C39.806 14.999 39.8936 15.7198 39.9979 16.4376V19.4838C39.975 19.6225 39.9406 19.7592 39.9312 19.901C39.8209 21.6019 39.5263 23.2858 39.0528 24.9231C37.6611 29.7219 34.9655 33.5609 30.6966 36.2274C26.9411 38.5704 22.7797 39.5657 18.4305 39.9485C17.7848 40.0059 17.138 40.0528 16.4922 40.1071L12.9797 40.1029ZM15.2748 38.7801C15.9268 38.7446 17.0482 38.705 18.1603 38.6195C21.146 38.392 24.0576 37.812 26.8347 36.6624C31.9694 34.5374 35.5403 30.9018 37.4035 25.6387C38.5374 22.435 38.8525 19.127 38.5719 15.7553C38.4884 14.7538 38.2923 13.7732 37.7728 12.8844C37.6382 12.6538 37.4807 12.5568 37.2063 12.5965C36.6602 12.6686 36.1541 12.9217 35.7687 13.3152C35.0009 14.0872 34.279 14.0736 33.5258 13.2672C33.0702 12.7804 32.4873 12.4309 31.8431 12.2585C31.7151 12.2138 31.5777 12.203 31.4442 12.2272C31.3108 12.2513 31.1859 12.3095 31.0816 12.3962C30.5068 12.8385 30.127 13.4206 29.8422 14.0716C29.2382 15.4559 28.9722 16.9279 28.7521 18.4072C28.4537 20.4174 28.0719 22.4037 27.3521 24.3138C25.9187 28.1237 23.4066 30.8705 19.5384 32.2924C16.9888 33.2313 14.3328 33.4889 11.6423 33.5505C9.13859 33.6068 6.64844 33.4691 4.15724 33.2605C3.37867 33.2097 2.59797 33.1996 1.81835 33.2302C1.33847 33.2396 1.28631 33.345 1.40106 33.8196C1.55233 34.4456 1.92267 34.9494 2.36812 35.3949C3.45411 36.4788 4.79777 37.1214 6.22802 37.6013C9.01653 38.537 11.9021 38.7519 15.28 38.7801H15.2748ZM37.5193 11.2392C37.319 10.5883 36.9152 10.1783 36.379 9.87575C35.7687 9.53253 35.365 9.01301 35.3504 8.31927C35.3243 7.04655 35.3296 5.76861 35.4099 4.49902C35.4641 3.65401 35.9784 3.08755 36.836 2.9102C37.2058 2.84311 37.5792 2.79748 37.9543 2.77354C38.3653 2.73807 38.648 2.49187 38.6595 2.13509C38.6567 1.95662 38.5853 1.78607 38.4603 1.6587C38.3353 1.53132 38.1661 1.45687 37.9877 1.45074C36.0702 1.44031 34.2916 2.06624 34.0641 4.58873C33.965 5.6862 33.9869 6.79826 33.9974 7.90199C34.0068 8.84088 33.6333 9.50854 32.7998 9.96338C32.4273 10.1658 32.1258 10.4996 31.792 10.7729C32.9656 11.1224 33.9045 11.6617 34.665 12.5328C35.0278 12.1332 35.4688 11.8125 35.9607 11.5905C36.4526 11.3685 36.9849 11.25 37.5245 11.2424L37.5193 11.2392Z" fill="black"/>
<path d="M10.9966 1.83047C11.0404 2.52943 11.1092 3.18665 11.1186 3.84805C11.1624 7.45445 8.24144 9.41673 4.96887 8.58738C4.117 8.39037 3.33612 7.96184 2.7124 7.34908C2.14866 8.3246 1.75496 9.38891 1.54817 10.4965C1.32284 11.6941 1.23521 12.8959 1.50227 14.0997C1.63267 14.6829 1.88722 15.1961 2.38692 15.5707C2.46011 15.6195 2.52249 15.683 2.57017 15.7569C2.61785 15.8309 2.64983 15.9139 2.66411 16.0008C2.67839 16.0877 2.67467 16.1765 2.65319 16.2619C2.63171 16.3472 2.59292 16.4273 2.53922 16.497C2.48642 16.5676 2.4202 16.627 2.34436 16.6719C2.26853 16.7167 2.18457 16.7462 2.09732 16.7585C2.01007 16.7708 1.92125 16.7657 1.83596 16.7436C1.75067 16.7215 1.67059 16.6827 1.60033 16.6295C0.870081 16.1371 0.466356 15.4163 0.255627 14.59C-0.185653 12.8531 -0.0062201 11.1266 0.43193 9.41882C0.75956 8.15904 1.30122 6.96492 2.03327 5.88858C2.45055 5.26891 2.97216 5.31273 3.35502 5.94804C3.54244 6.2736 3.79924 6.55391 4.10718 6.76905C4.58463 7.08886 5.12482 7.30314 5.69167 7.39759C6.25852 7.49203 6.839 7.46447 7.39435 7.31674C8.82355 6.95057 9.68212 5.80408 9.7781 4.24969C9.82547 3.22103 9.70891 2.19137 9.43279 1.19933C9.34829 0.872802 9.28465 0.555664 9.56632 0.292774C9.84799 0.0298839 10.139 0.107082 10.4458 0.211403C13.3219 1.19307 15.8819 2.65461 17.717 5.15103C18.2573 5.88754 18.6496 6.73358 19.1253 7.55772C19.2364 7.40498 19.3378 7.2454 19.4289 7.07993C19.8556 6.22345 19.9828 5.29916 20.0047 4.35505C20.0246 3.53717 20.4283 3.25029 21.1627 3.59559C24.3664 5.10513 26.2536 7.59111 26.6438 11.1391C26.7251 11.8839 26.6897 12.6455 26.6657 13.3976C26.65 13.8911 26.3444 14.1435 25.9218 14.0966C25.5379 14.0538 25.3011 13.7294 25.3429 13.2693C25.4847 11.7264 25.3126 10.2294 24.694 8.80019C24.0357 7.28232 22.9643 6.12539 21.556 5.271C21.4836 5.23196 21.4091 5.19713 21.3327 5.16668C21.2232 5.67994 21.1429 6.17651 21.0093 6.65847C20.7767 7.49826 20.3834 8.25772 19.7314 8.85444C19.5576 9.011 19.3677 9.14877 19.1649 9.26547C18.5807 9.60138 18.1499 9.42299 17.9913 8.77516C17.6881 7.54476 17.0955 6.40455 16.2627 5.44939C14.8346 3.78233 13.0152 2.67861 10.9966 1.83047Z" fill="black"/>
<path d="M20.8643 13.3413C20.76 13.7315 20.6943 14.1018 20.5597 14.445C20.2634 15.1941 19.7147 15.7115 18.9792 16.0349C18.6496 16.1799 18.3533 16.1131 18.1447 15.8356C16.0509 13.1483 13.1445 12.0425 9.91058 11.5939C9.24292 11.5 8.56692 11.4646 7.80433 11.3936C7.89717 11.5929 7.95142 11.7149 8.01297 11.8349C8.79017 13.4321 9.43696 15.0689 9.59344 16.8632C9.74054 18.547 9.01654 19.899 7.59777 20.4863C6.55456 20.9192 5.5635 20.8191 4.66529 20.0972C4.60479 20.0481 4.54428 19.9991 4.48273 19.9511C4.47439 19.9449 4.45978 19.9511 4.4483 19.9511C4.16559 21.5785 4.88228 23.4616 6.23429 24.149C6.67244 24.3723 6.79867 24.7541 6.5942 25.1119C6.38973 25.4697 6.00165 25.5459 5.57393 25.2955C4.1729 24.4683 3.41344 23.2122 3.14324 21.6464C2.9346 20.4341 3.05874 19.2365 3.34667 18.0483C3.42595 17.7249 3.58765 17.4975 3.92878 17.4537C4.28974 17.4078 4.49525 17.6091 4.66529 17.9106C4.8562 18.2465 5.05441 18.597 5.32669 18.862C6.27706 19.7873 7.79494 19.3941 8.12251 18.1026C8.25429 17.5082 8.26528 16.8934 8.15485 16.2947C7.86066 14.5212 7.12937 12.8854 6.22281 11.3467C5.8629 10.7354 6.06007 10.0948 6.94472 10.0854C10.1495 10.0427 13.2113 10.5632 16.0207 12.2021C17.0862 12.8264 18.0386 13.6263 18.8374 14.5681C19.0289 14.4307 19.1854 14.2501 19.2941 14.041C19.4029 13.8318 19.4608 13.6 19.4633 13.3643C19.4712 13.027 19.4457 12.6898 19.3871 12.3576C19.3433 12.055 19.3559 11.7848 19.6177 11.5835C19.8795 11.3822 20.1477 11.427 20.4241 11.5585C22.4062 12.5047 23.7186 14.0622 24.4624 16.1017C25.1926 18.1099 25.2093 20.1775 24.9005 22.2639C24.8432 22.6499 24.7712 23.0338 24.7002 23.4167C24.6074 23.9164 24.283 24.173 23.8719 24.0854C23.4828 24.003 23.3232 23.6608 23.3847 23.1611C23.5225 22.0407 23.7154 20.9182 23.7436 19.7936C23.7864 18.0473 23.4098 16.3812 22.4062 14.9061C22.0001 14.2882 21.4762 13.7565 20.8643 13.3413Z" fill="black"/>
<path d="M14.0689 17.8011C14.0835 19.7008 13.2249 21.0987 11.8781 22.2535C11.5913 22.4997 11.3315 22.7751 11.0436 23.0224C9.19812 24.6206 9.84283 28.5118 12.5823 29.386C13.2312 29.5946 13.4461 29.8919 13.2917 30.3249C13.1373 30.7578 12.7607 30.8725 12.1316 30.6378C10.2048 29.9274 9.11049 28.5191 8.7631 26.5119C8.43275 24.5938 9.00443 22.997 10.4781 21.7215C10.8026 21.4408 11.1041 21.1373 11.4243 20.8473C12.526 19.8353 12.8734 18.5689 12.7106 17.123C12.6063 16.2456 13.0236 15.9128 13.8415 16.255C16.2315 17.2534 18.2991 18.6742 19.7043 20.9088C21.1523 23.2133 21.2535 25.6794 20.4826 28.227C20.4613 28.313 20.4225 28.3938 20.3686 28.4642C20.3147 28.5346 20.2469 28.5932 20.1694 28.6363C20.0918 28.6793 20.0063 28.706 19.918 28.7145C19.8298 28.7231 19.7407 28.7134 19.6564 28.686C19.3246 28.591 19.1452 28.2687 19.213 27.8827C19.3444 27.1285 19.5573 26.3794 19.5969 25.62C19.7336 23.0411 18.6121 21.0225 16.6696 19.4118C15.8793 18.7601 15.0045 18.2182 14.0689 17.8011Z" fill="black"/>
<path d="M13.1936 25.9141C13.2625 25.4113 13.2979 25.0222 13.373 24.6425C13.4031 24.4745 13.4984 24.3253 13.6382 24.2275C13.778 24.1298 13.9509 24.0914 14.1189 24.1208C14.483 24.1876 14.699 24.5048 14.6698 24.8949C14.6364 25.3205 14.5748 25.7514 14.6124 26.1718C14.6958 27.1107 15.2039 27.7366 16.0781 28.108C16.3024 28.2019 16.5611 28.4147 16.632 28.6296C16.8083 29.1658 16.2794 29.5685 15.6869 29.3693C14.6718 29.025 13.9332 28.3553 13.5483 27.3569C13.3595 26.8645 13.2917 26.3293 13.1936 25.9141Z" fill="black"/>
<path d="M30.4139 23.6045C30.2793 24.0082 30.1208 24.5173 29.9413 25.017C28.8606 28.0194 27.1893 30.6086 24.6147 32.5521C24.4384 32.6846 24.1776 32.8338 23.994 32.7952C23.7801 32.7524 23.5495 32.5448 23.4317 32.3466C23.2741 32.0806 23.4264 31.8198 23.6497 31.6247C24.14 31.1991 24.6585 30.8006 25.1217 30.3468C27.0172 28.4898 28.1856 26.2031 28.9816 23.7046C29.0369 23.5314 29.0859 23.3531 29.1516 23.183C29.2083 23.0355 29.3175 22.914 29.4583 22.842C29.599 22.77 29.7613 22.7525 29.9142 22.7928C30.2595 22.8972 30.4295 23.1329 30.4139 23.6045Z" fill="black"/>
<path d="M29.7379 20.6793C29.8214 20.1879 29.8965 19.6465 30.0102 19.1145C30.0472 18.9536 30.1452 18.8135 30.2836 18.7235C30.422 18.6336 30.5899 18.601 30.7519 18.6325C30.9151 18.6581 31.0625 18.7447 31.1642 18.8749C31.2659 19.0051 31.3143 19.169 31.2996 19.3336C31.2308 19.8739 31.14 20.4143 31.0232 20.9453C30.9888 21.1073 30.8917 21.249 30.7531 21.3396C30.6145 21.4301 30.4456 21.462 30.2835 21.4283C29.9487 21.371 29.7317 21.0872 29.7379 20.6793Z" fill="black"/>
</g>
<defs>
<clipPath id="clip0_3_41">
<rect width="40" height="39.9844" fill="white" transform="translate(0 0.118561)"/>
</clipPath>
</defs>
</svg>
