<svg width="40" height="41" viewBox="0 0 40 41" fill="none" xmlns="http://www.w3.org/2000/svg">
<g clip-path="url(#clip0_1_52)">
<mask id="mask0_1_52" style="mask-type:luminance" maskUnits="userSpaceOnUse" x="0" y="0" width="40" height="41">
<path d="M40 0.707581H0V40.7076H40V0.707581Z" fill="white"/>
</mask>
<g mask="url(#mask0_1_52)">
<path d="M27.0908 13.6179C25.2106 11.7344 22.6624 10.6702 20.0011 10.657C18.6812 10.6523 17.3738 10.9121 16.1561 11.4213C14.9384 11.9304 13.8351 12.6785 12.9114 13.6213C11.513 15.027 10.5615 16.8149 10.1767 18.7601C9.79192 20.7052 9.99093 22.7207 10.7487 24.553C11.5065 26.3853 12.7893 27.9526 14.4356 29.0578C16.0819 30.1629 18.0183 30.7565 20.0011 30.7638C21.3208 30.7692 22.6283 30.5098 23.846 30.001C25.0638 29.4923 26.1671 28.7445 27.0908 27.8018C28.975 25.922 30.0397 23.3736 30.0528 20.7121C30.0583 19.3924 29.799 18.0849 29.2902 16.8671C28.7814 15.6494 28.0335 14.546 27.0908 13.6224M25.1866 25.8931C23.9847 27.1198 22.3941 27.8909 20.6866 28.0745C18.9791 28.2581 17.2608 27.8429 15.8256 26.8998C14.3904 25.9567 13.3274 24.5444 12.8183 22.9042C12.3093 21.2641 12.3858 19.498 13.0348 17.908C13.6838 16.318 14.865 15.0029 16.3764 14.1875C17.8878 13.3721 19.6356 13.107 21.3208 13.4377C23.006 13.7683 24.524 14.6741 25.6152 16.0002C26.7065 17.3263 27.3032 18.9902 27.3033 20.7076C27.3129 22.6483 26.5515 24.5134 25.1866 25.8931Z" fill="black"/>
<path d="M38.6241 19.3317H34.5498C34.1916 19.342 33.8515 19.4915 33.6017 19.7485C33.352 20.0055 33.2123 20.3498 33.2123 20.7081C33.2123 21.0665 33.352 21.4107 33.6017 21.6678C33.8515 21.9248 34.1916 22.0743 34.5498 22.0846H38.6241C38.9823 22.0743 39.3224 21.9248 39.5721 21.6678C39.8219 21.4107 39.9616 21.0665 39.9616 20.7081C39.9616 20.3498 39.8219 20.0055 39.5721 19.7485C39.3224 19.4915 38.9823 19.342 38.6241 19.3317Z" fill="black"/>
<path d="M20.0011 33.8815C19.6382 33.8879 19.292 34.0349 19.0353 34.2916C18.7787 34.5482 18.6317 34.8945 18.6252 35.2574V39.3317C18.6252 39.6966 18.7702 40.0466 19.0282 40.3046C19.2863 40.5626 19.6362 40.7076 20.0011 40.7076C20.3661 40.7076 20.716 40.5626 20.9741 40.3046C21.2321 40.0466 21.377 39.6966 21.377 39.3317V35.2574C21.3706 34.8945 21.2236 34.5482 20.967 34.2916C20.7103 34.0349 20.3641 33.8879 20.0011 33.8815Z" fill="black"/>
<path d="M34.1272 32.9316L31.2174 30.0219C30.9649 29.7694 30.6224 29.6275 30.2653 29.6275C29.9082 29.6275 29.5657 29.7694 29.3132 30.0219C29.0607 30.2744 28.9188 30.6169 28.9188 30.974C28.9188 31.3311 29.0607 31.6736 29.3132 31.9261L32.2241 34.8336C32.4795 35.0695 32.8164 35.1975 33.1641 35.1906C33.5117 35.1837 33.8433 35.0426 34.0893 34.7968C34.3352 34.551 34.4765 34.2195 34.4836 33.8719C34.4907 33.5242 34.3629 33.1873 34.1272 32.9316Z" fill="black"/>
<path d="M20.0011 0.707581C19.6381 0.713717 19.2917 0.860648 19.035 1.11736C18.7783 1.37407 18.6314 1.72049 18.6252 2.08348V6.1612C18.6252 6.52611 18.7702 6.87607 19.0282 7.13411C19.2863 7.39214 19.6362 7.5371 20.0011 7.5371C20.3661 7.5371 20.716 7.39214 20.9741 7.13411C21.2321 6.87607 21.377 6.52611 21.377 6.1612V2.08348C21.3709 1.72049 21.224 1.37407 20.9673 1.11736C20.7106 0.860648 20.3641 0.713717 20.0011 0.707581Z" fill="black"/>
<path d="M34.1805 6.58043C34.0556 6.45464 33.9071 6.35479 33.7435 6.28666C33.5799 6.21852 33.4045 6.18344 33.2272 6.18344C33.05 6.18344 32.8745 6.21852 32.7109 6.28666C32.5473 6.35479 32.3988 6.45464 32.274 6.58043L29.3643 9.49244C29.1203 9.74665 28.9857 10.0864 28.9893 10.4387C28.993 10.7911 29.1347 11.1279 29.3839 11.377C29.6331 11.6261 29.9701 11.7675 30.3224 11.771C30.6747 11.7745 31.0144 11.6397 31.2685 11.3955L34.1805 8.48579C34.3061 8.36107 34.4057 8.21274 34.4738 8.04933C34.5418 7.88592 34.5768 7.71068 34.5768 7.53368C34.5768 7.35668 34.5418 7.18143 34.4738 7.01803C34.4057 6.85462 34.3061 6.70515 34.1805 6.58043Z" fill="black"/>
<path d="M5.45356 19.3317H1.37585C1.01285 19.3378 0.666441 19.4847 0.409727 19.7414C0.153014 19.9982 0.00608314 20.3446 -5.33123e-05 20.7076C-0.00187356 20.8888 0.0324638 21.0686 0.100951 21.2364C0.169437 21.4042 0.270699 21.5567 0.398812 21.6849C0.526925 21.8132 0.679319 21.9145 0.84708 21.9832C1.01484 22.0518 1.1946 22.0863 1.37585 22.0846H5.45356C5.81178 22.0743 6.15187 21.9248 6.40161 21.6678C6.65135 21.4107 6.79105 21.0665 6.79105 20.7081C6.79105 20.3498 6.65135 20.0055 6.40161 19.7485C6.15187 19.4915 5.81178 19.342 5.45356 19.3317Z" fill="black"/>
<path d="M10.6357 30.0185C10.511 29.8929 10.3626 29.7932 10.1992 29.7252C10.0358 29.6572 9.86059 29.6222 9.68359 29.6222C9.50659 29.6222 9.33134 29.6572 9.16794 29.7252C9.00453 29.7932 8.8562 29.8929 8.73148 30.0185L5.82061 32.9316C5.69147 33.0557 5.58838 33.2043 5.51739 33.3688C5.4464 33.5332 5.40893 33.7101 5.40717 33.8892C5.40541 34.0683 5.4394 34.2459 5.50715 34.4117C5.5749 34.5775 5.67505 34.7281 5.80173 34.8547C5.92841 34.9813 6.07908 35.0814 6.24491 35.1491C6.41074 35.2167 6.5884 35.2506 6.76749 35.2487C6.94658 35.2469 7.12349 35.2093 7.28788 35.1382C7.45227 35.0671 7.60082 34.9639 7.72483 34.8347L10.6357 31.9238C10.7613 31.7991 10.861 31.6508 10.929 31.4874C10.997 31.324 11.032 31.1487 11.032 30.9717C11.032 30.7947 10.997 30.6195 10.929 30.4561C10.861 30.2927 10.7613 30.1432 10.6357 30.0185Z" fill="black"/>
<path d="M10.6357 9.49016L7.72599 6.58043C7.47333 6.32777 7.13064 6.18582 6.77332 6.18582C6.41599 6.18582 6.0733 6.32777 5.82064 6.58043C5.56797 6.8331 5.42603 7.17579 5.42603 7.53311C5.42603 7.89044 5.56797 8.23312 5.82064 8.48579L8.73037 11.3955C8.98303 11.6482 9.32572 11.7901 9.68305 11.7901C10.0404 11.7901 10.3831 11.6482 10.6357 11.3955C10.8884 11.1429 11.0303 10.8002 11.0303 10.4428C11.0303 10.0855 10.8884 9.74283 10.6357 9.49016Z" fill="black"/>
</g>
</g>
<defs>
<clipPath id="clip0_1_52">
<rect width="40" height="40" fill="white" transform="translate(0 0.707581)"/>
</clipPath>
</defs>
</svg>
