<svg width="40" height="41" viewBox="0 0 40 41" fill="none" xmlns="http://www.w3.org/2000/svg">
<g clip-path="url(#clip0_15_265)">
<path d="M2.18689 16.4408C2.18689 15.1338 3.0057 13.9234 4.44498 13.0232C5.87918 12.1281 7.89316 11.5686 10.1716 11.5686C12.45 11.5686 14.4691 12.1281 15.9033 13.0232C17.3375 13.9234 18.1614 15.1338 18.1614 16.4408V26.8108C18.1614 28.1178 17.3426 29.3282 15.9033 30.2284C14.4691 31.1235 12.4551 31.683 10.1716 31.683C7.88807 31.683 5.87409 31.1235 4.44498 30.2284C3.01079 29.3282 2.18689 28.1178 2.18689 26.8108V16.4408ZM3.63634 16.4408C3.63634 17.3563 4.40938 18.2107 5.53335 18.821C6.68274 19.4415 8.28985 19.8636 10.1716 19.8636C12.0533 19.8636 13.6605 19.4465 14.8098 18.821C15.9338 18.2107 16.7068 17.3512 16.7068 16.4408C16.7068 15.5305 15.9338 14.671 14.8098 14.0607C13.6605 13.4402 12.0533 13.0181 10.1716 13.0181C8.28985 13.0181 6.68274 13.4351 5.53335 14.0607C4.40938 14.671 3.63634 15.5305 3.63634 16.4408Z" stroke="black" stroke-width="1.3"/>
<path d="M12.9688 16.4408C12.9688 16.7714 12.7297 17.1274 12.2161 17.4224C11.7075 17.7123 10.9853 17.9004 10.1716 17.9004C9.35785 17.9004 8.63567 17.7123 8.12709 17.4224C7.60834 17.1274 7.37439 16.7663 7.37439 16.4408C7.37439 16.1153 7.61342 15.7542 8.12709 15.4593C8.63567 15.1694 9.35785 14.9812 10.1716 14.9812C10.9853 14.9812 11.7075 15.1694 12.2161 15.4593C12.7348 15.7542 12.9688 16.1153 12.9688 16.4408Z" stroke="black" stroke-width="1.3"/>
<path d="M2.56323 30.793L37.1365 16.5069C37.4925 16.3951 37.8739 16.4256 38.2045 16.5934C38.5351 16.7612 38.7945 17.046 38.9165 17.397C39.0437 17.7479 39.0233 18.1293 38.8707 18.4701C38.7182 18.8108 38.4385 19.0753 38.0977 19.2126L2.56323 30.793Z" stroke="black" stroke-width="1.3" stroke-linecap="round" stroke-linejoin="round"/>
<path d="M2.18689 26.0021L0 26.7498L2.18689 25.1833V26.0021ZM18.2631 18.6532L36.0787 9.17323C36.4194 9.03083 36.8059 9.02066 37.1518 9.15289C37.4976 9.28512 37.7824 9.54958 37.9401 9.88524C38.0977 10.2209 38.1181 10.6074 38.0011 10.9583C37.8841 11.3093 37.6298 11.6042 37.3043 11.7721L18.3546 20.0568L18.2682 18.6532H18.2631Z" stroke="black" stroke-width="1.3" stroke-linecap="round" stroke-linejoin="round"/>
</g>
<defs>
<clipPath id="clip0_15_265">
<rect width="40" height="40" fill="white" transform="translate(0 0.118561)"/>
</clipPath>
</defs>
</svg>
