<svg width="40" height="41" viewBox="0 0 40 41" fill="none" xmlns="http://www.w3.org/2000/svg">
<g clip-path="url(#clip0_1_66)">
<path fill-rule="evenodd" clip-rule="evenodd" d="M23.0783 4.47991C22.1555 3.13539 21.3411 1.89909 20.5806 0.773797C20.4725 0.612841 20.3101 0.449108 20.1465 0.342274C19.4956 -0.085092 18.627 0.127208 18.1927 0.773797C17.4865 1.89909 16.672 3.08266 15.6951 4.47991C11.4063 10.7099 5 20.1104 5 25.4817C5 29.4056 6.62759 32.9493 9.23477 35.5288C11.8406 38.0528 15.4233 39.6637 19.3875 39.6637C23.3503 39.6637 26.9329 38.0528 29.5386 35.4762C32.1459 32.8953 33.7735 29.3487 33.7735 25.4276C33.7735 20.0563 27.3671 10.7099 23.0783 4.47991ZM27.585 33.5404C25.4675 35.6371 22.5899 36.8706 19.3875 36.8706C16.1835 36.8706 13.3057 35.5829 11.1884 33.5404C9.07104 31.4453 7.82225 28.5967 7.82225 25.4276C7.82225 20.9153 13.958 11.9462 18.029 5.98401C18.5175 5.28607 18.9516 4.58814 19.3875 3.99427C19.8216 4.58814 20.256 5.28607 20.7445 5.98401C24.8155 12.0004 30.9511 20.9153 30.9511 25.4276C30.9511 28.5967 29.6483 31.4453 27.585 33.5404Z" fill="black"/>
<path d="M27.8013 24.4616C27.0409 24.4074 26.3901 24.9999 26.336 25.7521C26.2805 26.9313 25.9016 28.0623 25.3036 29.0279C24.707 29.9937 23.8385 30.8526 22.8061 31.3909C22.1554 31.7684 21.8834 32.6286 22.2636 33.2724C22.6979 34.0244 23.5665 34.2382 24.2173 33.8608C25.6839 33.0561 26.8786 31.8766 27.693 30.5321C28.5616 29.1876 29.05 27.5766 29.1041 25.9116C29.1596 25.1594 28.5616 24.5143 27.8013 24.4616Z" fill="black"/>
</g>
<defs>
<clipPath id="clip0_1_66">
<rect width="40" height="40" fill="white" transform="translate(0 0.118561)"/>
</clipPath>
</defs>
</svg>
