<svg width="40" height="82" viewBox="0 0 40 82" fill="none" xmlns="http://www.w3.org/2000/svg">
<g clip-path="url(#clip0_1_8)">
<path d="M38.2443 1.81197C38.1497 1.33452 37.8924 0.90469 37.5163 0.595849C37.1401 0.287009 36.6684 0.118313 36.1816 0.118561H3.81835C3.33164 0.118313 2.85993 0.287009 2.48375 0.595849C2.10757 0.90469 1.85026 1.33452 1.75573 1.81197C1.62019 2.4912 -1.51893 18.6183 0.934727 33.9244C3.3136 48.771 4.59729 61.6546 4.59729 66.227C4.59729 70.7791 3.81835 77.682 3.80433 77.7553C3.75215 78.2135 3.85194 78.6763 4.08837 79.0723C4.32481 79.4683 4.68478 79.7757 5.11295 79.9472C5.50709 80.103 8.85185 81.3368 17.6647 81.6437C17.8366 81.6888 18.0136 81.7119 18.1913 81.7123C18.8145 81.7123 19.4174 81.7081 20 81.6998C20.5826 81.7076 21.184 81.7123 21.8087 81.7123C21.9864 81.7119 22.1634 81.6888 22.3353 81.6437C31.1497 81.3321 34.4867 80.1045 34.8871 79.9472C35.3152 79.7757 35.6752 79.4683 35.9116 79.0723C36.1481 78.6763 36.2479 78.2135 36.1957 77.7553C36.1879 77.6852 35.4012 70.7822 35.4012 66.227C35.4012 61.6484 36.6864 48.7788 39.0653 33.9244C41.5189 18.6183 38.3798 2.4912 38.2443 1.81197ZM34.912 33.2577C32.4724 48.4797 31.1949 61.3649 31.1949 66.2254C31.1949 69.5873 31.5828 73.9946 31.818 76.4264C29.9486 76.8268 26.2471 77.3938 19.9922 77.4873C13.7373 77.3938 10.0296 76.8268 8.16638 76.4264C8.40941 73.9946 8.78953 69.5873 8.78953 66.2254C8.78953 61.3649 7.51363 48.4797 5.074 33.2577C3.19832 21.4708 4.86525 8.81306 5.58654 4.32482H34.4072C35.1348 8.81306 36.8017 21.4708 34.912 33.2577Z" fill="black"/>
</g>
<defs>
<clipPath id="clip0_1_8">
<rect width="40" height="81.589" fill="white" transform="translate(0 0.118561)"/>
</clipPath>
</defs>
</svg>
