<svg width="40" height="42" viewBox="0 0 40 42" fill="none" xmlns="http://www.w3.org/2000/svg">
<g clip-path="url(#clip0_18_290)">
<path d="M12.6842 28.5359C12.3637 25.7554 11.1757 23.1464 9.28892 21.0791C9.21431 20.985 9.12156 20.9069 9.01617 20.8493C8.91079 20.7917 8.79491 20.7559 8.67542 20.744C8.55593 20.732 8.43525 20.7442 8.32055 20.7797C8.20585 20.8153 8.09946 20.8735 8.00769 20.951C6.9571 21.7123 6.0898 22.6987 5.46914 23.838C4.84848 24.9774 4.49013 26.241 4.42025 27.5365C4.51993 29.6636 5.43808 31.6697 6.98271 33.1355L0.25625 39.9516C0.171023 40.0352 0.103315 40.1348 0.057092 40.2448C0.0108692 40.3548 -0.0129395 40.4729 -0.0129395 40.5923C-0.0129395 40.7116 0.0108692 40.8297 0.057092 40.9397C0.103315 41.0497 0.171023 41.1494 0.25625 41.2329C0.424672 41.396 0.649581 41.4878 0.884052 41.4891C1.00336 41.4891 1.12147 41.4653 1.23147 41.4191C1.34147 41.3729 1.44115 41.3053 1.52467 41.2201L8.23831 34.3783V34.4424C9.69758 35.866 11.6335 36.697 13.6707 36.7742H14.2473C15.4518 36.5988 16.608 36.1801 17.6454 35.5435C18.6829 34.9069 19.5799 34.0658 20.2819 33.0714C20.4255 32.8805 20.4939 32.6433 20.4741 32.4052C20.4429 32.1666 20.3185 31.9501 20.1281 31.803C18.0519 29.9585 15.4472 28.8153 12.6842 28.5359ZM14.196 34.942C13.3398 34.9706 12.4868 34.8239 11.6892 34.5111C10.8917 34.1982 10.1664 33.7258 9.55798 33.1227C9.34017 32.9561 9.1608 32.7768 8.96861 32.6102C8.93897 32.5561 8.90468 32.5046 8.86612 32.4565L8.67393 32.3283C7.95988 31.7386 7.37349 31.0096 6.95055 30.1857C6.5276 29.3619 6.27698 28.4605 6.21397 27.5365C6.26545 26.6622 6.4915 25.807 6.87879 25.0214C7.26607 24.2359 7.80675 23.5358 8.46893 22.9625C10.442 25.6403 11.2492 28.0875 10.7751 30.0093C10.6456 30.6154 10.4699 31.2108 10.2498 31.7902C10.1714 32.0128 10.184 32.2574 10.2847 32.4709C10.3854 32.6843 10.5663 32.8495 10.788 32.9305C11.0124 33.0094 11.2587 32.9972 11.4743 32.8966C11.6898 32.796 11.8574 32.615 11.9411 32.3924C12.1705 31.7396 12.3546 31.0718 12.492 30.3937C12.4841 30.373 12.4841 30.3502 12.492 30.3296C14.6239 30.4903 16.6567 31.2946 18.3216 32.6358C17.2763 33.8897 15.8093 34.7188 14.196 34.9677V34.942Z" fill="black"/>
<path d="M19.6797 21.3994C19.3652 18.6173 18.1764 16.0066 16.2844 13.9427C16.2098 13.8486 16.1171 13.7704 16.0117 13.7129C15.9063 13.6553 15.7904 13.6195 15.6709 13.6075C15.5514 13.5956 15.4308 13.6077 15.3161 13.6433C15.2014 13.6789 15.095 13.7371 15.0032 13.8146C13.9526 14.5798 13.0847 15.5685 12.4621 16.7094C11.8396 17.8504 11.4778 19.1153 11.403 20.4129C11.403 22.86 12.7611 25.1919 15.3876 27.37C16.837 28.7528 18.7413 29.5592 20.7431 29.6378H21.3197C22.5219 29.4607 23.6756 29.0412 24.7108 28.4047C25.7459 27.7682 26.6409 26.928 27.3415 25.935C27.4139 25.8413 27.467 25.7342 27.4978 25.6198C27.5286 25.5055 27.5364 25.3862 27.5208 25.2688C27.5106 25.1506 27.4757 25.036 27.4183 24.9322C27.3609 24.8285 27.2823 24.738 27.1877 24.6666C25.0986 22.8029 22.4673 21.6579 19.6797 21.3994ZM21.1787 27.8056C20.3156 27.8319 19.4562 27.6806 18.654 27.361C17.8517 27.0414 17.1237 26.5604 16.5151 25.9478C14.337 24.1413 13.2223 22.2707 13.2095 20.4001C13.2645 19.5234 13.4933 18.6663 13.8826 17.8789C14.2719 17.0914 14.814 16.3893 15.4773 15.8133C17.4504 18.4911 18.2447 20.9382 17.7707 22.8729C17.6595 23.4668 17.4966 24.0498 17.2838 24.6153C17.2022 24.8396 17.2131 25.0871 17.314 25.3033C17.415 25.5196 17.5976 25.6869 17.8219 25.7684C18.0462 25.85 18.2937 25.8391 18.5099 25.7382C18.7262 25.6373 18.8935 25.4546 18.975 25.2303C19.2102 24.5881 19.3944 23.9284 19.526 23.2572C19.52 23.232 19.52 23.2056 19.526 23.1804C21.6578 23.3411 23.6907 24.1453 25.3556 25.4866C24.3037 26.7608 22.8143 27.5968 21.1787 27.8312V27.8056Z" fill="black"/>
<path d="M39.7181 12.0465C39.6346 11.9612 39.5349 11.8935 39.4249 11.8473C39.3149 11.8011 39.1968 11.7773 39.0775 11.7773C38.9581 11.7773 38.84 11.8011 38.73 11.8473C38.62 11.8935 38.5203 11.9612 38.4368 12.0465L33.4657 17.1714C32.5362 16.4876 31.5455 15.8914 30.506 15.3905L39.6156 6.11438C39.7008 6.03087 39.7685 5.9312 39.8147 5.8212C39.861 5.7112 39.8848 5.59308 39.8848 5.47376C39.8848 5.35444 39.861 5.23633 39.8147 5.12633C39.7685 5.01632 39.7008 4.91665 39.6156 4.83315C39.4452 4.66415 39.2149 4.56932 38.975 4.56932C38.735 4.56932 38.5047 4.66415 38.3343 4.83315L28.6611 14.673C27.9805 14.4818 27.2792 14.3742 26.5727 14.3527C26.5292 13.5587 26.3783 12.7743 26.1242 12.0208L35.7463 2.23225C35.9162 2.06235 36.0116 1.83191 36.0116 1.59164C36.0116 1.35136 35.9162 1.12092 35.7463 0.95102C35.5764 0.781119 35.3459 0.685669 35.1056 0.685669C34.8654 0.685669 34.6349 0.781119 34.465 0.95102L25.3811 10.2271C24.8868 9.27876 24.3125 8.37434 23.6643 7.52373L28.6611 2.39881C28.7452 2.31468 28.8119 2.21481 28.8574 2.10489C28.903 1.99498 28.9264 1.87717 28.9264 1.7582C28.9264 1.63922 28.903 1.52141 28.8574 1.4115C28.8119 1.30158 28.7452 1.20171 28.6611 1.11758C28.5769 1.03345 28.4771 0.96672 28.3671 0.921191C28.2572 0.875662 28.1394 0.852229 28.0204 0.852229C27.9015 0.852229 27.7837 0.875662 27.6737 0.921191C27.5638 0.96672 27.464 1.03345 27.3798 1.11758L21.909 6.75499C20.8584 7.51631 19.9911 8.50266 19.3704 9.64201C18.7498 10.7814 18.3914 12.045 18.3215 13.3405C18.3215 15.7877 19.6028 18.1323 22.319 20.3104C23.7652 21.6904 25.6644 22.4966 27.6617 22.5782H28.2383C29.4189 22.4038 30.5528 21.9955 31.5736 21.3773C32.5944 20.7591 33.4816 19.9434 34.1832 18.9779L39.7181 13.3149C39.8014 13.2316 39.8674 13.1327 39.9125 13.0239C39.9576 12.9151 39.9808 12.7985 39.9808 12.6807C39.9808 12.5629 39.9576 12.4463 39.9125 12.3374C39.8674 12.2286 39.8014 12.1298 39.7181 12.0465ZM28.0845 20.7716C27.2196 20.8033 26.3576 20.6532 25.5543 20.331C24.7509 20.0088 24.0241 19.5217 23.4208 18.9011C21.2299 17.0817 20.1281 15.2111 20.1153 13.3405C20.1667 12.4662 20.3928 11.611 20.7801 10.8254C21.1674 10.0399 21.708 9.33979 22.3702 8.76652C23.1223 9.76991 23.7463 10.8631 24.228 12.0208C24.2572 12.098 24.2959 12.1712 24.3433 12.2387C24.8235 13.375 24.9486 14.6301 24.7021 15.8389C24.5866 16.436 24.4238 17.023 24.2152 17.5942C24.1336 17.8185 24.1445 18.0659 24.2454 18.2822C24.3463 18.4984 24.529 18.6658 24.7533 18.7473C24.9776 18.8289 25.2251 18.818 25.4413 18.7171C25.6576 18.6161 25.8249 18.4335 25.9064 18.2092C26.1417 17.5626 26.3259 16.8986 26.4573 16.2233C26.4626 16.1936 26.4626 16.1633 26.4573 16.1336C28.5892 16.3043 30.6204 17.1123 32.2869 18.4526C31.2277 19.7201 29.7338 20.547 28.0973 20.7716H28.0845Z" fill="black"/>
</g>
<defs>
<clipPath id="clip0_18_290">
<rect width="40" height="40.7687" fill="white" transform="translate(0 0.707581)"/>
</clipPath>
</defs>
</svg>
