<svg width="40" height="41" viewBox="0 0 40 41" fill="none" xmlns="http://www.w3.org/2000/svg">
<g clip-path="url(#clip0_3_29)">
<path d="M3.85771 37.8772C4.59395 34.9226 5.99027 32.333 7.80609 29.9224C9.50288 27.6662 11.5324 25.6806 13.8254 24.0337C15.9507 22.5056 18.3927 21.7754 20.923 21.2592C23.4533 20.743 25.9848 20.2763 28.4656 19.6018C30.6247 19.013 32.721 18.18 34.5477 16.8212C36.7431 15.1891 38.1745 13.134 37.9424 10.2639C37.813 8.702 36.6766 7.03851 34.972 6.64681C33.7498 6.36997 32.5953 6.7931 31.5399 7.37218C30.3442 8.02621 29.2562 8.8229 28.908 10.2918C28.7871 10.8043 28.1549 11.0413 27.6121 10.8684C27.1805 10.7318 26.8867 10.1793 26.9556 9.72476C27.1228 8.7269 27.619 7.81365 28.3652 7.13039C29.9235 5.65428 31.7841 4.64966 33.9638 4.53722C36.2825 4.41633 37.9944 5.55031 39.1477 7.52087C40.0786 9.10941 40.168 10.8031 39.7933 12.5984C39.2638 15.1214 37.7985 16.9675 35.8038 18.4545C33.5818 20.1107 31.0212 21.09 28.387 21.7948C25.8845 22.4645 23.3203 22.9118 20.7707 23.3918C17.4679 24.0144 14.7079 25.6077 12.3082 27.9108C10.3449 29.7979 8.64388 31.8942 7.39747 34.3181C6.59474 35.8801 5.94675 37.5182 5.76541 39.2977C5.74379 39.5618 5.69559 39.823 5.62155 40.0775C5.46801 40.5707 5.07873 40.8173 4.59758 40.7569C4.11642 40.6964 3.68483 40.4667 3.71264 39.8683C3.7477 39.201 3.80935 38.5397 3.85771 37.8772Z" fill="black"/>
<path d="M33.9771 24.5632C36.4421 25.1979 37.9666 25.9825 38.7415 27.8273C39.9166 30.6164 38.9458 33.0463 36.2693 34.3628C34.989 34.9939 33.6314 34.9588 32.2701 34.6675C31.8192 34.5708 31.3743 34.4426 30.9342 34.3048C30.1363 34.0546 29.7978 33.5275 30.0299 32.9339C30.302 32.2375 30.8448 32.1251 31.6801 32.3548C32.5314 32.6041 33.4118 32.7403 34.2987 32.7598C35.718 32.7598 37.1022 31.6041 37.153 30.354C37.2122 28.861 36.6912 27.6218 35.0978 27.0161C33.3062 26.3379 31.4625 26.4758 29.6274 26.8022C26.1426 27.4145 22.7892 28.6221 19.7141 30.3721C17.8838 31.413 16.3291 32.8287 15.2411 34.6361C14.5471 35.7833 14.0744 37.0612 14.1083 38.4611C14.1095 38.6 14.0829 38.7376 14.03 38.866C13.9772 38.9944 13.8991 39.1108 13.8004 39.2085C13.7017 39.3062 13.5845 39.3831 13.4556 39.4346C13.3266 39.4862 13.1887 39.5114 13.0499 39.5087C12.9111 39.5061 12.7742 39.4756 12.6474 39.4191C12.5205 39.3626 12.4063 39.2813 12.3115 39.1799C12.2166 39.0785 12.1431 38.9591 12.0952 38.8288C12.0473 38.6985 12.026 38.5599 12.0325 38.4212C12.0734 36.8161 12.5188 35.2472 13.3273 33.8599C15.6243 29.8547 19.4264 27.8999 23.5235 26.3645C25.7104 25.5425 27.9457 24.8437 30.2838 24.6418C31.7273 24.5076 33.1901 24.5741 33.9771 24.5632Z" fill="black"/>
<path d="M0 34.4257C0.483574 32.8009 0.869224 31.1398 1.47248 29.5622C2.30302 27.3861 3.50591 25.3853 4.92036 23.5344C7.09488 20.718 9.71052 18.2718 12.666 16.2905C12.9163 16.1212 13.1665 15.9532 13.4192 15.7864C13.6491 15.6417 13.9263 15.592 14.1922 15.6477C14.4581 15.7034 14.6919 15.8602 14.8445 16.085C15.1661 16.5528 15.0669 17.0823 14.5664 17.4644C13.3974 18.359 12.1728 19.1847 11.0448 20.124C7.81455 22.8223 5.22622 26.0478 3.59658 29.9406C2.94859 31.4916 2.60404 33.1708 2.14586 34.798C1.94759 35.5016 1.64415 35.8244 1.12552 35.7652C0.434007 35.6806 0.12452 35.2671 0.15837 34.4728L0 34.4257Z" fill="black"/>
<path d="M22.1815 7.51241C21.8563 8.22931 21.3353 9.59661 20.6413 10.8732C20.2812 11.533 19.8811 12.17 19.4433 12.7809C19.1592 13.1775 18.8388 13.5498 18.5523 13.9451C18.1715 14.471 17.0315 14.5339 16.7111 13.8533C16.6333 13.6774 16.6035 13.4841 16.6247 13.2929C16.646 13.1018 16.7175 12.9197 16.832 12.7652C16.8816 12.7012 16.9311 12.6443 16.9795 12.5742C17.4735 11.9407 17.9458 11.2863 18.3963 10.6109C19.4264 9.06468 20.2895 7.42536 20.3826 5.51162C20.466 3.80461 19.5364 2.83021 18.1461 2.28981C16.9795 1.83646 15.3655 2.64282 14.7998 3.94484C14.4627 4.76509 14.2343 5.6259 14.1203 6.50537C13.9995 7.3625 13.6779 7.81464 12.9308 7.78804C12.2936 7.76387 11.9455 7.24282 12.0349 6.40986C12.0845 5.95167 12.1437 5.49228 12.2356 5.03893C12.5125 3.67525 13.0214 2.41675 14.1119 1.49433C16.3883 -0.432707 19.0044 -0.351709 21.0911 1.84009C22.4729 3.29081 22.5841 4.99903 22.1815 7.51241Z" fill="black"/>
<path d="M11.9285 10.3002C11.9721 10.2328 12.0215 10.1693 12.076 10.1104C12.0277 10.1745 11.9781 10.2374 11.9285 10.3002Z" fill="black"/>
</g>
<defs>
<clipPath id="clip0_3_29">
<rect width="40" height="40.6432" fill="white" transform="translate(0 0.118561)"/>
</clipPath>
</defs>
</svg>
